<svg id="分離模式" xmlns="http://www.w3.org/2000/svg" viewBox="0 0 25.98 16.65"><defs><style>.cls-1{fill:#fff;}</style></defs><title>icon-university</title><polygon class="cls-1" points="0.76 4.46 0.53 10.91 0 12.94 0.76 15.49 1.48 12.94 0.85 10.89 0.76 4.46"/><path class="cls-1" d="M15.73,18.25L7.34,14.42v4.21a3.8,3.8,0,0,1,0,.51c0,1.49,1.4,4.18,8.36,4.18s8-2.41,8-3.91c0-.15,0-0.15,0-0.89v-4.1Z" transform="translate(-2.37 -6.68)"/><path class="cls-1" d="M15.55,11.14A2.07,2.07,0,0,1,14.61,11H3.11l12.62,5.7,12.62-6-12.78-4-12,3.83H14.38a1.55,1.55,0,0,1,1.17-.36,1.12,1.12,0,0,1,1.2.49A1.11,1.11,0,0,1,15.55,11.14Z" transform="translate(-2.37 -6.68)"/></svg>