<svg id="圖層_1" data-name="圖層 1" xmlns="http://www.w3.org/2000/svg" viewBox="0 0 30 30"><defs><style>.cls-1{fill:transparent;}.cls-2{fill:#fff;}.cls-3{fill:#00c300;}</style></defs><title>icon-circle-line</title><circle class="cls-1" cx="15" cy="15" r="15"/><path class="cls-2" d="M25.89,15A5.46,5.46,0,0,0,26,14.34a8.36,8.36,0,0,0,0-.85C25.7,8.85,20.89,5.15,15,5.15c-6.06,0-11,3.91-11,8.73,0,4.43,4.15,8.09,9.53,8.66a0.6,0.6,0,0,1,.53.66l-0.23,2.06a0.6,0.6,0,0,0,.86.6,25.92,25.92,0,0,0,8.89-6.41c0.3-.36,1.26-1.71,1.45-2.06A7.34,7.34,0,0,0,25.89,15h0Zm0,0" transform="translate(0 0)"/><path class="cls-3" d="M9,15.66V12a0.56,0.56,0,0,0-1.12,0v4.24a0.56,0.56,0,0,0,.56.56h2.25a0.56,0.56,0,1,0,0-1.12H9Zm0,0" transform="translate(0 0)"/><path class="cls-3" d="M12.42,16.78H12.18a0.44,0.44,0,0,1-.44-0.44V11.86a0.44,0.44,0,0,1,.44-0.44h0.25a0.44,0.44,0,0,1,.44.44v4.49a0.44,0.44,0,0,1-.44.44h0Zm0,0" transform="translate(0 0)"/><path class="cls-3" d="M17,12v2.59l-2.28-3a0.56,0.56,0,0,0-.44-0.19,0.58,0.58,0,0,0-.54.58v4.22a0.56,0.56,0,0,0,1.12,0V13.64s2.28,3,2.31,3a0.56,0.56,0,0,0,.38.15,0.58,0.58,0,0,0,.57-0.59V12A0.56,0.56,0,0,0,17,12h0Zm0,0" transform="translate(0 0)"/><path class="cls-3" d="M22.3,12a0.56,0.56,0,0,0-.56-0.56H19.49a0.56,0.56,0,0,0-.56.56v4.24a0.56,0.56,0,0,0,.56.56h2.25a0.56,0.56,0,1,0,0-1.12H20.05v-1h1.68a0.56,0.56,0,1,0,0-1.12H20.05v-1h1.68A0.56,0.56,0,0,0,22.3,12h0Zm0,0" transform="translate(0 0)"/></svg>