<svg id="分離模式" xmlns="http://www.w3.org/2000/svg" viewBox="0 0 15 14.43"><defs><style>.cls-1{fill:#fff;}</style></defs><title>icon-compare</title><rect class="cls-1" y="13.56" width="15" height="0.87"/><path class="cls-1" d="M21.67,12.54h-2.5V10.87A0.79,0.79,0,0,0,18.33,10h-2.5V9.2l2.47-1-2.47-.93a0.83,0.83,0,1,0-1.67,0V10h-2.5a0.79,0.79,0,0,0-.83.83v1.67H8.33a0.79,0.79,0,0,0-.83.83v7.5h5.83V17.54a0.79,0.79,0,0,1,.83-0.83h1.67a0.79,0.79,0,0,1,.83.83v3.33H22.5v-7.5A0.79,0.79,0,0,0,21.67,12.54ZM11,16.31H9v-2h2v2Zm4-1.74a1.26,1.26,0,1,1,1.26-1.26A1.26,1.26,0,0,1,15,14.57Zm6,1.74H19v-2h2v2ZM11,19.19H9v-2h2v2Zm10,0H19v-2h2v2Z" transform="translate(-7.5 -6.44)"/></svg>