<svg id="圖層_1" data-name="圖層 1" xmlns="http://www.w3.org/2000/svg" viewBox="0 0 30 30"><defs><style>.cls-1{fill:transparent;}.cls-2{fill:#fff;}</style></defs><title>icon-circle-wechat</title><path class="cls-1" d="M30,15A15,15,0,1,1,15,0,15,15,0,0,1,30,15h0Zm0,0"/><path class="cls-2" d="M19.08,10.92a9.86,9.86,0,0,1,1.21.08c-0.72-3.14-4-5.52-8-5.52-4.5,0-8.15,3-8.15,6.79a6.43,6.43,0,0,0,3.11,5.32L6.17,19.76,9.1,18.5a9.25,9.25,0,0,0,2,.49,5.69,5.69,0,0,1-.15-1.28C10.92,14,14.58,10.92,19.08,10.92ZM15,8.55a1,1,0,1,1-1,1A1,1,0,0,1,15,8.55Zm-5.43,2a1,1,0,1,1,1-1A1,1,0,0,1,9.57,10.58Z"/><path class="cls-2" d="M25.87,17.72c0-3-3-5.43-6.79-5.43s-6.79,2.43-6.79,5.43,3,5.43,6.79,5.43a8.3,8.3,0,0,0,1.77-.21l3.66,1.57L23.24,22A5.12,5.12,0,0,0,25.87,17.72ZM17,17.38a1,1,0,1,1,1-1A1,1,0,0,1,17,17.38Zm4.08,0a1,1,0,1,1,1-1A1,1,0,0,1,21.11,17.38Z"/></svg>