<svg id="分離模式" xmlns="http://www.w3.org/2000/svg" viewBox="0 0 31 31"><defs><style>.cls-1{fill:none;stroke:#ff9f19;stroke-miterlimit:10;}.cls-2{fill:#ff9f19;}</style></defs><title>icon-login</title><circle class="cls-1" cx="15.5" cy="15.5" r="15"/><path class="cls-2" d="M14.87,18.26a6,6,0,1,1,6-6A6,6,0,0,1,14.87,18.26Z" transform="translate(0.63 0.5)"/><path class="cls-2" d="M22.34,22.88A8.86,8.86,0,0,0,16.2,20H13.54a8.86,8.86,0,0,0-6.13,2.88,9.32,9.32,0,0,0-2.08,3.55,15,15,0,0,0,9.55,3.5,15,15,0,0,0,9.55-3.54A9.18,9.18,0,0,0,22.34,22.88Z" transform="translate(0.63 0.5)"/></svg>