<svg id="圖層_1" data-name="圖層 1" xmlns="http://www.w3.org/2000/svg" viewBox="0 0 51 51"><defs><style>.cls-1{fill:#1ed154;}.cls-2{fill:#fff;}</style></defs><title>icon-inquiry</title><rect class="cls-1" x="11.97" y="11.97" width="36.06" height="36.06" transform="translate(25.5 -16.93) rotate(45)"/><path class="cls-2" d="M17.92,24.43A13.84,13.84,0,0,1,17,28l-1.06-.46a15.75,15.75,0,0,0,.9-3.35Zm3.53-6.77A22.74,22.74,0,0,1,18,22.49a15.34,15.34,0,0,0,1.6-.39,3.57,3.57,0,0,0-.29-0.68l1-.36a9.84,9.84,0,0,1,.87,2.37l-1,.36A3.83,3.83,0,0,0,20,23.14a33.9,33.9,0,0,1-3.71.79L16,22.9a14.77,14.77,0,0,0,2.58-3q-1,.18-2.22.33l-0.24-.94a17.13,17.13,0,0,0,2.68-4.58L20,15.19a20.42,20.42,0,0,1-2.12,3.71q0.83-.07,1.47-0.19a13.14,13.14,0,0,0,.86-1.5Zm-1.52,9.7-1.19.24a14.24,14.24,0,0,0-.37-3.16l1.09-.24A21.57,21.57,0,0,1,19.94,27.36Zm1.65-1.82-1,.36A7.27,7.27,0,0,0,20,24.17l1-.29A14.16,14.16,0,0,1,21.58,25.54ZM24.15,22q0.12,2.94-2.71,5.65l-0.89-.83a6.52,6.52,0,0,0,2.35-3.63H21.39V22h2.76Zm5.13,4.49-0.9,1.14a10.94,10.94,0,0,1-2.56-3.11v2.23a1,1,0,0,1-.53,1,4.9,4.9,0,0,1-2.12.3l-0.36-1.36q1,0,1.34,0c0.22,0,.34-0.1.34-0.25V21.06h-2.8v-5h1.86a6.23,6.23,0,0,0,.68-1.35L25.53,15A5.7,5.7,0,0,1,25,16.1h3.32v5H25.82v1.16Q26,22.54,26.29,23a12.16,12.16,0,0,0,1.58-1.46l0.92,0.83A17.35,17.35,0,0,1,27,24.1,12.9,12.9,0,0,0,29.28,26.48ZM27.06,18V17.18H23V18h4.07Zm0,2V19.12H23V20h4.07Z" transform="translate(-4.5 -4.5)"/><path class="cls-2" d="M44.05,27.61H31V26.26h5.38V14.87h1.4v4.5h5.65v1.32H37.76v5.57h6.3v1.35Z" transform="translate(-4.5 -4.5)"/><path class="cls-2" d="M20.51,32.5H16V31.27h1.73a6.83,6.83,0,0,0-.5-1.1l1.34-.37a9.39,9.39,0,0,1,.56,1.47h1.34V32.5Zm-0.33,2.17h-3.8V33.44h3.8v1.23Zm0,2.22h-3.8V35.66h3.8v1.23Zm0,5.87H18.9V42.13H17.75V43H16.41V37.9h3.79v4.86ZM18.9,40.9V39.14H17.75V40.9H18.9Zm4.59-5.46H20.85V34.26h2.64v1.18Zm0-3.87H21.15V30.38h2.32v1.19Zm5.84,5.11-0.66,1.16a6.16,6.16,0,0,1-3.29-2.34,6.48,6.48,0,0,1-3.46,2.31l-0.69-1.11a6,6,0,0,0,2.58-1.23,3.62,3.62,0,0,0,1.07-2.72h1.21a6,6,0,0,0-.06,1,2.23,2.23,0,0,0,.93,1.69A6.86,6.86,0,0,0,29.31,36.68ZM28.26,43H26.91V42.25H22.76V43H21.4V38.09h6.86V43Zm0.67-11.92a16.85,16.85,0,0,1-.9,3.09l-1.25-.39q0.34-.84.54-1.52H24.89a8,8,0,0,1-1.22,1.5l-1-.84a10.57,10.57,0,0,0,2.19-3.18l1.25,0.34a7,7,0,0,1-.47,1h3.29Zm-2,10V39.28H22.76v1.78h4.15Z" transform="translate(-4.5 -4.5)"/><path class="cls-2" d="M36.17,32.45H31v-1.2h1.95a7.2,7.2,0,0,0-.43-1.13l1.32-.36a13.16,13.16,0,0,1,.54,1.49h1.8v1.2Zm-0.53,2.23H31.35v-1.2h4.29v1.2Zm0,2.16H31.35V35.66h4.29v1.19Zm0,5.9H34.31V42.07H32.67V43H31.35v-5.1h4.29v4.86Zm-1.33-1.87V39.08H32.67v1.79h1.63Zm9.57-9.26q0,3.87-.1,6.74a19,19,0,0,1-.3,3.47,1.5,1.5,0,0,1-.67.88,3.63,3.63,0,0,1-1.68.27c-0.35,0-.68,0-1,0l-0.48-1.27q0.83,0,2.13,0a0.5,0.5,0,0,0,.3-0.13,0.52,0.52,0,0,0,.19-0.35l0.15-2.67q0.13-2.43.13-5.72H38.46a14.44,14.44,0,0,1-.84,1.29h3.75v6.42H37V34.93a3,3,0,0,1-.43.43l-0.73-1.17a13,13,0,0,0,2.71-4.47l1.25,0.4a11.26,11.26,0,0,1-.66,1.49h4.75Zm-3.79,5.11V35.36H38.34v1.36h1.74Zm0,2.61V37.9H38.34v1.44h1.74Z" transform="translate(-4.5 -4.5)"/></svg>