<svg id="Capa_1" data-name="Capa 1" xmlns="http://www.w3.org/2000/svg" viewBox="0 0 30 26.25"><defs><style>.cls-1{fill:#fff;}</style></defs><title>wechat</title><path class="cls-1" d="M20.63,39.5a13.61,13.61,0,0,1,1.67.11c-1-4.33-5.56-7.61-11-7.61C5,32,0,36.2,0,41.38a8.87,8.87,0,0,0,4.3,7.35l-1.48,3,4-1.73a12.77,12.77,0,0,0,2.73.68,7.85,7.85,0,0,1-.21-1.76C9.38,43.71,14.42,39.5,20.63,39.5ZM15,36.22a1.41,1.41,0,1,1-1.41,1.41A1.41,1.41,0,0,1,15,36.22ZM7.5,39a1.41,1.41,0,1,1,1.41-1.41A1.41,1.41,0,0,1,7.5,39Z" transform="translate(0 -32)"/><path class="cls-1" d="M30,48.88c0-4.14-4.2-7.5-9.37-7.5s-9.37,3.36-9.37,7.5,4.2,7.5,9.38,7.5a11.45,11.45,0,0,0,2.45-.29l5.05,2.17-1.75-3.49A7.07,7.07,0,0,0,30,48.88Zm-12.19-.47A1.41,1.41,0,1,1,19.22,47,1.41,1.41,0,0,1,17.81,48.41Zm5.63,0A1.41,1.41,0,1,1,24.84,47,1.41,1.41,0,0,1,23.44,48.41Z" transform="translate(0 -32)"/></svg>