<svg id="分離模式" xmlns="http://www.w3.org/2000/svg" viewBox="0 0 41.54 37.58"><defs><style>.cls-1{fill:#e2b913;}</style></defs><title>icon-crown-01</title><path class="cls-1" d="M32.9,36a1.18,1.18,0,0,0-1.26-1.07H6.72A1.18,1.18,0,0,0,5.46,36v2.29a1.18,1.18,0,0,0,1.26,1.07H31.63a1.18,1.18,0,0,0,1.26-1.07V36Zm0,0" transform="translate(1.56 -1.75)"/><path class="cls-1" d="M37,11.13a1.44,1.44,0,0,0-1.49.15l-8.72,7-6.44-10a1.38,1.38,0,0,0-1-.44h0a1.38,1.38,0,0,0-1,.45l-6.44,10-8.72-7a1.44,1.44,0,0,0-1.49-.15,1,1,0,0,0-.61,1.16L5.93,38.43a1.23,1.23,0,0,0,1.23.85H31.47a1.23,1.23,0,0,0,1.23-.85L37.57,12.3A1,1,0,0,0,37,11.13h0Zm0,0" transform="translate(1.56 -1.75)"/><path class="cls-1" d="M16.71,4.25a2.5,2.5,0,1,0,2.5-2.5,2.5,2.5,0,0,0-2.5,2.5h0Zm0,0" transform="translate(1.56 -1.75)"/><path class="cls-1" d="M3.44,7.86a2.5,2.5,0,1,0-2.5,2.5,2.5,2.5,0,0,0,2.5-2.5h0Zm0,0" transform="translate(1.56 -1.75)"/><path class="cls-1" d="M37.48,5.36A2.5,2.5,0,1,0,40,7.86a2.5,2.5,0,0,0-2.5-2.5h0Zm0,0" transform="translate(1.56 -1.75)"/></svg>