<?xml version="1.0" encoding="utf-8"?>
<!-- Generator: Adobe Illustrator 19.2.1, SVG Export Plug-In . SVG Version: 6.00 Build 0)  -->
<svg version="1.1" id="圖層_1" xmlns="http://www.w3.org/2000/svg" xmlns:xlink="http://www.w3.org/1999/xlink" x="0px" y="0px"
	 viewBox="0 0 29.3 27.7" style="enable-background:new 0 0 29.3 27.7;" xml:space="preserve">
<style type="text/css">
	.st0{fill:#00C200;}
	.st1{fill:#FFFFFF;}
</style>
<title>icon-line-top</title>
<path class="st0" d="M29.2,13.1c0.1-0.3,0.1-0.6,0.1-0.9c0-0.4,0-0.8,0-1.1C28.9,4.9,22.5,0,14.6,0C6.6,0,0,5.2,0,11.6
	c0,5.9,5.5,10.8,12.7,11.5c0.4,0,0.8,0.4,0.7,0.9l-0.3,2.8c0,0.4,0.3,0.8,0.7,0.9c0.1,0,0.3,0,0.4-0.1c6.1-2.9,9.7-5.9,11.9-8.5
	c0.4-0.5,1.7-2.3,1.9-2.8C28.6,15.3,29,14.2,29.2,13.1L29.2,13.1L29.2,13.1z"/>
<path class="st1" d="M6.6,14V9.1c0-0.4-0.3-0.8-0.8-0.8S5.1,8.7,5.1,9.1v5.6c0,0.4,0.3,0.8,0.8,0.8h3c0.4,0,0.8-0.3,0.8-0.7
	c0-0.4-0.3-0.8-0.7-0.8H6.6z"/>
<path class="st1" d="M11.2,15.5h-0.3c-0.3,0-0.6-0.3-0.6-0.6v-6c0-0.3,0.3-0.6,0.6-0.6h0.3c0.3,0,0.6,0.3,0.6,0.6v6
	C11.8,15.3,11.5,15.5,11.2,15.5L11.2,15.5L11.2,15.5z"/>
<path class="st1" d="M17.3,9.1v3.5l-3-4c-0.1-0.2-0.4-0.3-0.6-0.3c-0.4,0-0.7,0.4-0.7,0.8v5.6c0,0.4,0.3,0.8,0.8,0.8
	s0.8-0.3,0.8-0.8v-3.4c0,0,3,3.9,3.1,4c0.1,0.1,0.3,0.2,0.5,0.2c0.4,0,0.8-0.4,0.8-0.8V9.1c0-0.4-0.3-0.8-0.8-0.8
	C17.6,8.3,17.3,8.7,17.3,9.1L17.3,9.1L17.3,9.1z"/>
<path class="st1" d="M24.4,9.1c0-0.4-0.3-0.8-0.8-0.8h-3c-0.4,0-0.8,0.3-0.8,0.8v5.6c0,0.4,0.3,0.8,0.8,0.8h3c0.4,0,0.8-0.3,0.8-0.8
	S24,14,23.6,14h-2.3v-1.3h2.3c0.4,0,0.8-0.3,0.8-0.8s-0.3-0.8-0.8-0.8h-2.3V9.8h2.3C24,9.8,24.4,9.5,24.4,9.1L24.4,9.1z"/>
</svg>
