<svg id="圖層_1" data-name="圖層 1" xmlns="http://www.w3.org/2000/svg" viewBox="0 0 29.29 27.7"><defs><style>.cls-1{fill:#fff;}.cls-2{fill:#00b800;}</style></defs><title>icon-line</title><path class="cls-1" d="M35.28,20.11a7.28,7.28,0,0,0,.12-0.89,11.15,11.15,0,0,0,0-1.14C35,11.91,28.62,7,20.76,7,12.68,7,6.12,12.2,6.12,18.63c0,5.91,5.54,10.79,12.71,11.54a0.8,0.8,0,0,1,.71.88L19.24,33.8a0.8,0.8,0,0,0,1.14.81c6.06-2.92,9.69-5.93,11.85-8.54,0.39-.47,1.68-2.27,1.94-2.75a9.79,9.79,0,0,0,1.12-3.21h0Zm0,0" transform="translate(-6.12 -6.99)"/><path class="cls-2" d="M12.71,21v-4.9a0.75,0.75,0,0,0-1.5,0v5.65a0.75,0.75,0,0,0,.75.75h3A0.75,0.75,0,1,0,15,21H12.71Zm0,0" transform="translate(-6.12 -6.99)"/><path class="cls-2" d="M17.33,22.49H17a0.58,0.58,0,0,1-.58-0.58v-6A0.58,0.58,0,0,1,17,15.34h0.33a0.59,0.59,0,0,1,.59.58v6a0.59,0.59,0,0,1-.59.58h0Zm0,0" transform="translate(-6.12 -6.99)"/><path class="cls-2" d="M23.38,16.08v3.45l-3-4a0.74,0.74,0,0,0-.59-0.25,0.77,0.77,0,0,0-.72.78v5.62a0.75,0.75,0,0,0,1.5,0V18.3s3,3.93,3.08,4a0.74,0.74,0,0,0,.51.2,0.78,0.78,0,0,0,.76-0.78V16.08a0.75,0.75,0,0,0-1.5,0h0Zm0,0" transform="translate(-6.12 -6.99)"/><path class="cls-2" d="M30.5,16.08a0.75,0.75,0,0,0-.75-0.75h-3a0.75,0.75,0,0,0-.75.75v5.65a0.75,0.75,0,0,0,.75.75h3a0.75,0.75,0,1,0,0-1.5H27.5V19.66h2.25a0.75,0.75,0,1,0,0-1.5H27.5V16.83h2.25a0.75,0.75,0,0,0,.75-0.75h0Zm0,0" transform="translate(-6.12 -6.99)"/></svg>