<svg id="圖層_1" data-name="圖層 1" xmlns="http://www.w3.org/2000/svg" viewBox="0 0 30 30"><defs><style>.cls-1{fill:transparent;}.cls-2{fill:#fff;}</style></defs><title>icon-circle-instagram</title><path class="cls-1" d="M30,15A15,15,0,1,1,15,0,15,15,0,0,1,30,15h0Zm0,0"/><path class="cls-2" d="M18.49,6.38h-7a5.14,5.14,0,0,0-5.14,5.14v7a5.14,5.14,0,0,0,5.14,5.14h7a5.14,5.14,0,0,0,5.14-5.14v-7A5.14,5.14,0,0,0,18.49,6.38Zm3.4,12.11a3.4,3.4,0,0,1-3.4,3.4h-7a3.4,3.4,0,0,1-3.4-3.4v-7a3.4,3.4,0,0,1,3.4-3.4h7a3.4,3.4,0,0,1,3.4,3.4v7h0Z"/><path class="cls-2" d="M15,10.54A4.46,4.46,0,1,0,19.46,15,4.47,4.47,0,0,0,15,10.54Zm0,7.19A2.73,2.73,0,1,1,17.73,15,2.73,2.73,0,0,1,15,17.73Z"/><circle class="cls-2" cx="19.47" cy="10.57" r="1.07"/></svg>