<svg id="分離模式" xmlns="http://www.w3.org/2000/svg" viewBox="0 0 97.04 70"><defs><style>.cls-1{fill:#ff9f19;}</style></defs><title>logo</title><path class="cls-1" d="M97.52,22.49V68.34H56.8c-1.27,1-4.34,1.66-7.94,1.66s-6.63-.69-7.9-1.66H0.48V22.49c24.72-9.38,45.81-.18,49,2.47C51.84,23,73.78,13.29,97.52,22.49h0Zm-50,10.14c0-6.49-10.62-10-23.69-10-6.3,0-15,1.23-19.24,3.2v37c21.38-11,42.93-.91,42.93.79V32.63Zm46.16-6.81c-4.21-2-12.94-3.2-19.19-3.2-13.07,0-23.7,3.53-23.7,10V63.58c0-1.7,21.51-11.77,42.89-.79v-37Zm-4.4,3.68" transform="translate(-0.48)"/><polygon class="cls-1" points="81.7 23.23 48.52 5.95 15.33 23.23 6.85 23.23 48.48 0.04 48.5 0 48.52 0.02 48.54 0 48.56 0.04 90.18 23.23 81.7 23.23"/><path class="cls-1" d="M7.77,49a1.78,1.78,0,0,1-.48-1.07,2.12,2.12,0,0,1,.8-1.25,1.41,1.41,0,0,1,1-.45,2.56,2.56,0,0,1,1.45.93,2.83,2.83,0,0,0,.74.6,1.76,1.76,0,0,0,.89.29q1.73,0,1.73-1.41a0.84,0.84,0,0,0-.47-0.72,3.52,3.52,0,0,0-1.18-.42,10.79,10.79,0,0,1-3-1.1A3.09,3.09,0,0,1,8,43.15a4.1,4.1,0,0,1-.47-2,3.91,3.91,0,0,1,1.22-2.85A4.48,4.48,0,0,1,12.06,37a6.81,6.81,0,0,1,2,.29,3.92,3.92,0,0,1,1.27.59l0.46,0.35a1.45,1.45,0,0,1,.58.91,2.05,2.05,0,0,1-.45,1,1.7,1.7,0,0,1-1.3.93,1.9,1.9,0,0,1-1-.37l-0.21-.19a2.91,2.91,0,0,0-.29-0.24,1.87,1.87,0,0,0-1-.24,1.67,1.67,0,0,0-1,.29,0.93,0.93,0,0,0-.4.8,1,1,0,0,0,.47.83,2.92,2.92,0,0,0,1.18.43,13.81,13.81,0,0,1,1.54.34,9.59,9.59,0,0,1,1.54.57,2.72,2.72,0,0,1,1.18,1.16,4,4,0,0,1,.47,2,4.51,4.51,0,0,1-.48,2.13,3.67,3.67,0,0,1-1.26,1.42,5.76,5.76,0,0,1-3.22,1,6.24,6.24,0,0,1-1.65-.21,4.48,4.48,0,0,1-1.26-.53,4.52,4.52,0,0,1-1.38-1.15Z" transform="translate(-0.48)"/><path class="cls-1" d="M27.84,47.33l0.33-.24a2.23,2.23,0,0,1,.89-0.37,1.79,1.79,0,0,1,1.25,1,2.16,2.16,0,0,1,.41,1,0.9,0.9,0,0,1-.25.65,2.89,2.89,0,0,1-.59.46l-0.64.39a6.75,6.75,0,0,1-1.25.48,6.11,6.11,0,0,1-1.83.3,7.15,7.15,0,0,1-1.78-.23,7.58,7.58,0,0,1-1.86-.78,7.67,7.67,0,0,1-1.72-1.34,6.17,6.17,0,0,1-1.25-2A7.19,7.19,0,0,1,19,44a6.88,6.88,0,0,1,.48-2.63,6,6,0,0,1,1.24-2,7.08,7.08,0,0,1,1.72-1.29,7.53,7.53,0,0,1,3.66-1,6.17,6.17,0,0,1,1.77.27,6.24,6.24,0,0,1,1.37.55l0.45,0.26,0.52,0.33a1.13,1.13,0,0,1,.48.88,1.78,1.78,0,0,1-.39,1,1.92,1.92,0,0,1-1.3,1,2,2,0,0,1-.95-0.41A3.21,3.21,0,0,0,26,40.43a4.06,4.06,0,0,0-2.38.84,3.12,3.12,0,0,0-.93,1.15,4,4,0,0,0,0,3.36A3.21,3.21,0,0,0,23.66,47a4,4,0,0,0,2.36.82,3.86,3.86,0,0,0,1.09-.15A2.79,2.79,0,0,0,27.84,47.33Z" transform="translate(-0.48)"/><path class="cls-1" d="M41.3,37.77a0.81,0.81,0,0,1,.5-0.39,3,3,0,0,1,.89-0.11,3.16,3.16,0,0,1,.85.09,1.46,1.46,0,0,1,.48.22,0.84,0.84,0,0,1,.26.37,3.7,3.7,0,0,1,.09,1V49.24a5.41,5.41,0,0,1,0,.64,1.48,1.48,0,0,1-.18.49,1.54,1.54,0,0,1-1.45.5,1.39,1.39,0,0,1-1.52-.69,3.12,3.12,0,0,1-.11-1V45.45H36.17v3.79a5.41,5.41,0,0,1,0,.64,1.48,1.48,0,0,1-.18.49,1.54,1.54,0,0,1-1.45.5A1.39,1.39,0,0,1,33,50.19a3.12,3.12,0,0,1-.11-1V38.91a5.41,5.41,0,0,1,0-.64,1.48,1.48,0,0,1,.18-0.49,1.54,1.54,0,0,1,1.45-.5,1.43,1.43,0,0,1,1.54.69,3.7,3.7,0,0,1,.09,1v3.79h4.93V38.91a5.41,5.41,0,0,1,0-.64A1.47,1.47,0,0,1,41.3,37.77Z" transform="translate(-0.48)"/><path class="cls-1" d="M59.82,37.1A6.85,6.85,0,0,1,66.63,44a7.09,7.09,0,0,1-1.93,5,6.25,6.25,0,0,1-4.76,2.07,6.44,6.44,0,0,1-4.8-2,6.76,6.76,0,0,1-2-4.87,7.48,7.48,0,0,1,.56-2.89,6.7,6.7,0,0,1,1.49-2.26,7,7,0,0,1,2.14-1.43A6.22,6.22,0,0,1,59.82,37.1Zm-3.38,7a3.57,3.57,0,0,0,1.07,2.69,3.3,3.3,0,0,0,4.77,0,3.53,3.53,0,0,0,1.06-2.7,3.58,3.58,0,0,0-1.07-2.71,3.38,3.38,0,0,0-2.39-1,3.33,3.33,0,0,0-2.38,1A3.58,3.58,0,0,0,56.44,44.11Z" transform="translate(-0.48)"/><path class="cls-1" d="M74.23,37.1A6.85,6.85,0,0,1,81,44a7.09,7.09,0,0,1-1.93,5,6.25,6.25,0,0,1-4.76,2.07,6.44,6.44,0,0,1-4.8-2,6.76,6.76,0,0,1-2-4.87,7.48,7.48,0,0,1,.56-2.89,6.7,6.7,0,0,1,1.49-2.26,7,7,0,0,1,2.14-1.43A6.23,6.23,0,0,1,74.23,37.1Zm-3.38,7a3.56,3.56,0,0,0,1.07,2.69,3.3,3.3,0,0,0,4.77,0,3.54,3.54,0,0,0,1.06-2.7,3.58,3.58,0,0,0-1.07-2.71,3.38,3.38,0,0,0-2.39-1,3.33,3.33,0,0,0-2.38,1A3.58,3.58,0,0,0,70.84,44.11Z" transform="translate(-0.48)"/><path class="cls-1" d="M85.53,48.14h5.06a2.12,2.12,0,0,1,.89.14,0.71,0.71,0,0,1,.37.44,3.41,3.41,0,0,1,0,1.58,0.64,0.64,0,0,1-.32.41,2.09,2.09,0,0,1-1,.19H83.88a1.38,1.38,0,0,1-1.52-.71,2.93,2.93,0,0,1-.11-0.95V38.91a5.44,5.44,0,0,1,0-.64,1.47,1.47,0,0,1,.18-0.49,1.54,1.54,0,0,1,1.45-.5,1.43,1.43,0,0,1,1.54.69,3.68,3.68,0,0,1,.09,1v9.22Z" transform="translate(-0.48)"/><rect class="cls-1" x="30.82" y="10.33" width="35.39" height="4.83"/><rect class="cls-1" x="71.1" y="4.91" width="10.38" height="3.43" rx="0.73" ry="0.73"/><rect class="cls-1" x="71.58" y="4.91" width="10.38" height="3.43" rx="0.73" ry="0.73" transform="translate(82.91 -70.14) rotate(90)"/></svg>