<?xml version="1.0" encoding="utf-8"?>
<!-- Generator: Adobe Illustrator 19.2.1, SVG Export Plug-In . SVG Version: 6.00 Build 0)  -->
<svg version="1.1" id="map-01" xmlns="http://www.w3.org/2000/svg" xmlns:xlink="http://www.w3.org/1999/xlink" x="0px" y="0px"
	 viewBox="0 0 1180 500" style="enable-background:new 0 0 1180 500;" xml:space="preserve">
<style>
	.st0{opacity:0.3;fill:#818181;stroke:#505050;stroke-width:0.45;enable-background:new    ;}
	.st1{fill:#FFCC1A;stroke:#505050;stroke-width:0.45;}
	#KOREA{
		fill:#FFCC1A
	}
	#CANADA{
		fill:#FFCC1A
	}
	#IRELAND{
		fill:#FFCC1A
	}
</style>
<g id="line">
	<path class="st0" d="M701.2,252.8l0.5-0.1l0.1,0.8l2.1-0.5l2.2,0.1l1.6,0.1l1.8-2l2-1.9l1.7-1.8l0.5,1l0.4,2.3h-1.4l-0.2,1.9
		l0.5,0.4l-1.2,0.6v1.2l-0.8,1.2l-0.1,1.2l-0.5,0.6l-8.1-1.5l-1-3L701.2,252.8z"/>
	<path class="st0" d="M727.1,217.4l2.8,1.3l2-0.4l0.6-1.5l2.1-0.5l1.5-1l0.5-2.7l2.3-0.6l0.4-1.2l1.3,0.9l0.8,0.1h1.5l2,0.7l0.8,0.4
		l2-1.1l0.9,0.6l0.9-1.5l1.6,0.1l0.4-0.5l0.3-1.4l1.2-1.2l1.5,0.8l-0.3,1l0.8,0.2l-0.3,2.8l1.1,1.1l0.9-0.7l1.2-0.3l1.7-1.5l1.8,0.3
		h2.8l0.5,1l-1.6,0.4l-1.4,0.6l-3.1,0.4l-2.9,0.7l-1.5,1.5l0.6,1.4l0.3,1.6l-1.3,1.4l0.1,1.3l-0.7,1.2l-2.6-0.1l1.1,2.1l-1.7,0.8
		l-1.1,1.9l0.1,1.9l-1.1,0.9l-1-0.3l-2.1,0.4l-0.3,0.9h-2l-1.5,1.8l-0.1,2.6l-3.5,1.3l-1.9-0.3l-0.5,0.7l-1.6-0.4l-2.7,0.5l-4.5-1.6
		l2.4-2.8l-0.2-2l-2-0.5l-0.2-2l-0.9-2.5l1.2-1.8l-1.2-0.5l0.7-2.3L727.1,217.4z"/>
	<path class="st0" d="M617.7,196.1l-0.3,1.2l0.4,1.5l1.1,0.9l-0.1,0.9l-0.9,0.5l-0.2,1.1l-1.2,1.7l-0.5-0.2V203l-1.5-1.2l-0.2-1.7
		l0.2-2.4l0.4-1.1l-0.5-0.6l-0.2-1.1l1.2-1.8l0.2,0.7l0.7-0.3l0.6,1l0.6,0.4L617.7,196.1z"/>
	<path class="st0" d="M679.6,198.8l3.8-0.6l0.6,0.9l1,0.6l-0.5,0.9l1.4,1.2l-0.7,1.1l1.1,1l1.2,0.6l0.1,2.4l-1,0.1l-1.1-2v-0.5h-1.2
		l-0.8-0.9l-0.6,0.1l-1.1-1l-2-0.9l0.3-1.7L679.6,198.8z"/>
	<path class="st0" d="M608,172.2l-0.2,1.6h-1.5l0.5,0.9l-0.9,2.6l-0.5,0.7H603l-1.4,0.9l-2.2-0.3l-3.8-1l-0.6-1.4l-2.7,0.7l-0.3,0.7
		l-1.6-0.6H589l-1.2-0.7l0.4-1l-0.1-0.7l0.8-0.2l1.4,1.1l0.4-1l2.4,0.2l1.9-0.7l1.3,0.1l0.8,0.8l0.3-0.7l-0.3-2.6l1-0.5l0.9-1.9
		l2,1.3l1.5-1.7l1-0.3l2.1,1.3l1.3-0.2l1.3,0.8l-0.2,0.5L608,172.2z"/>
	<path class="st0" d="M613.4,185h1l-0.7,1.6l1.3,1.4l-0.4,1.8L614,190l-0.5,0.4l-0.9,0.9l-0.4,2l-2.4-1.4l-1-1.6l-1-0.8l-1.3-1.4
		l-0.6-1.1l-1.3-1.8l0.6-1.6l1,0.9l0.6-0.8l1.3-0.1l2.3,0.6l1.9-0.1L613.4,185z"/>
	<path class="st0" d="M811.8,259.2v2.1l-0.9-0.4l0.2,2.3l-0.8-1.5l-0.2-1.5l-0.5-1.4l-1.1-1.7L806,257l0.3,1.2l-0.8,1.6l-1.2-0.6
		l-0.4,0.5l-0.8-0.3l-1-0.3l-0.4-2.4l-0.9-2.2l0.5-1.8l-1.7-0.8l0.6-1.1l1.7-1.1l-1.9-1.6l1-2l2.1,1.3l1.3,0.1l0.2,2.1l2.5,0.4h2.5
		l1.5,0.5l-1.2,2.5l-1.2,0.2l-1,1.7l1.5,1.5l0.4-1.9h0.8L811.8,259.2z"/>
	<path class="st0" d="M641.3,331.7l-0.2-3.2l-0.7-1.2l1.6,0.2l0.8-1.5l1.4,0.2l0.2,1.1l0.6,0.6v0.9l-0.7,0.6l-1.1,1.4l-1,1
		L641.3,331.7z"/>
	<path class="st0" d="M569.5,302.9l-2.2,0.3l-0.7-1.9l0.1-6.2l-0.5-0.6l-0.1-1.3l-0.9-1l-0.8-0.8l0.3-1.4l0.9-0.3l0.5-1.2l1.3-0.3
		l0.6-0.8l0.9-0.8h1l2.1,1.6l-0.1,0.9l0.6,1.6l-0.5,1.1l0.3,0.7l-1.3,1.7l-0.8,0.8l-0.5,1.7l0.1,1.7L569.5,302.9z"/>
	<path class="st0" d="M869.8,307.6l1.1-1l2.3-1.5l-0.2,1.3l-0.2,1.7l-1.3-0.1l-0.6,1L869.8,307.6z"/>
	<path class="st0" d="M393,380.2l-3-0.2l-1,2.3l-1.6-2.1l-3.5-0.7l-2.2,2.6l-2,0.4l-1.1-4l-1.4-3.2l0.9-2.8l-1.4-1.2l-0.4-2
		l-1.3-1.9l1.7-3l-1.2-2.3l0.6-0.9l-0.5-1l1.1-1.4l0.1-2.3l0.1-1.9l0.6-0.9l-2.3-4.4l2,0.2l1.4-0.1l0.6-0.8l2.4-1.1l1.4-1l3.5-0.5
		l-0.4,2l0.3,1l-0.2,1.8l2.9,2.5l3,0.5l1.1,1l1.8,0.5l1.1,0.8h1.7l1.6,0.8l0.1,1.6l0.6,0.8v1.2h-0.8l1,3.2l5.2,0.1l-0.4,1.6l0.3,1.1
		l1.5,0.8l0.6,1.8l-0.4,2.2l-0.7,1.2l0.3,1.6l-0.9,0.6v-0.9l-2.5-1.5h-2.5l-4.7,0.8l-1.3,2.5l-0.1,1.5l-1.1,3.5L393,380.2z"/>
	<path class="st0" d="M407.1,404.6l3.6-4.2l3-3l1.8-1.2l2.3-1.7l0.1-2.4l-1.4-1.7l-1.3,0.6l0.5-1.7l0.4-1.8v-1.6l-1-0.5l-1,0.5
		l-1-0.1l-0.3-1.1l-0.2-2.6l-0.5-0.9l-1.8-0.8l-1.1,0.6l-2.8-0.6l0.2-3.9l-0.8-1.6l0.9-0.6l-0.3-1.6l0.7-1.2l0.5-2.2l-0.6-1.8
		l-1.5-0.8l-0.3-1.2l0.4-1.6l-5.2-0.1l-1-3.2h0.8v-1.2l-0.5-0.8l-0.1-1.6l-1.6-0.8h-1.7l-1.1-0.8l-1.8-0.5l-1.1-1l-3-0.5l-2.9-2.5
		l0.2-1.8l-0.4-1l0.3-2l-3.5,0.5l-1.4,1l-2.4,1.1l-0.6,0.8l-1.4,0.1l-2-0.2l-1.5,0.5l-1.2-0.3l0.2-4.1l-2.2,1.6l-2.4-0.1l-1-1.5
		l-1.8-0.1l0.6-1.2l-1.5-1.6l-1.1-2.5l0.7-0.5v-1.1l1.6-0.8l-0.2-1.5l0.7-0.9l0.2-1.3l3.1-1.8l2.2-0.5l0.4-0.4l2.4,0.1l1.2-7.4
		l0.1-1.2l-0.4-1.5l-1.2-1v-1.9l1.5-0.4l0.5,0.3l0.1-1l-1.6-0.3v-1.7l5.2,0.1l0.9-0.9l0.8,0.9l0.5,1.6l0.5-0.3l1.5,1.4l2.1-0.2
		l0.5-0.8l2-0.6l1.1-0.4l0.3-1.1l1.9-0.8l-0.1-0.6l-2.3-0.2l-0.4-1.7l0.1-1.8l-1.2-0.7l0.5-0.3l2,0.4l2.1,0.7l0.8-0.6l1.9-0.4l3-1
		l1-1l-0.4-0.8l1.4-0.1l0.6,0.6l-0.4,1.2l0.9,0.4l0.6,1.3l-0.8,0.9l-0.4,2.3l0.7,1.4l0.2,1.2l1.7,1.3l1.3,0.1l0.3-0.5l0.9-0.1
		l1.2-0.5l0.9-0.7l1.5,0.2l0.6-0.1l1.5,0.2l0.2-0.5l-0.5-0.5l0.3-0.8l1.1,0.2l1.3-0.3l1.5,0.6l1.2,0.6l0.8-0.7l0.6,0.1l0.4,0.8
		l1.3-0.2l1-1l0.8-2l1.6-2.5l0.9-0.1l0.7,1.5l1.5,4.7l1.4,0.4l0.1,1.8l-2,2.2l0.8,0.8l4.8,0.4l0.1,2.7l2-1.8l3.4,1l4.5,1.6l1.3,1.6
		l-0.4,1.5l3.1-0.8l5.2,1.4l4-0.1l4,2.2l3.4,3l2.1,0.8l2.3,0.1l1,0.9l0.9,3.4l0.5,1.6l-1.1,4.5l-1.4,1.8l-3.8,3.8l-1.7,3.1l-2,2.4
		l-0.7,0.1l-0.8,2l0.2,5.2l-0.8,4.3l-0.3,1.9l-0.9,1.1l-0.5,3.8l-2.7,3.7l-0.5,3l-2.2,1.3l-0.6,1.7h-2.9L442,384l-1.9,1.3l-3,0.9
		l-3.1,2.3l-2.3,2.9l-0.4,2.2l0.5,1.7l-0.5,3l-0.6,1.5l-1.9,1.7l-3,5.5l-2.4,2.5l-1.8,1.5l-1.2,3l-1.8,1.8l-0.8-1.8l1.2-1.5
		l-1.6-2.2l-2.1-1.8l-2.8-2l-1,0.1l-2.7-2.4L407.1,404.6z"/>
	<path class="st0" d="M353.5,254.2l-0.7,0.1l-0.7-1.7l-1-0.9l0.6-1.9l0.8,0.1l0.9,2.4v1.9L353.5,254.2L353.5,254.2z M352.7,245.8
		l-2.9,0.5l-0.2-1.1l1.3-0.2l1.8,0.1L352.7,245.8z M354.9,245.8l-0.5,2.2l-0.5-0.4V246l-1.2-1.2v-0.4L354.9,245.8z"/>
	<path class="st0" d="M809.2,242.3l1.1,1l-0.2,1.9l-2.2,0.1l-2.3-0.2l-1.7,0.5l-2.5-1.1v-0.6l1.8-2.3l1.5-0.8l1.9,0.7l1.4,0.1
		L809.2,242.3z"/>
	<path class="st0" d="M631.3,370.2l0.5,0.5l0.8,1.6l3,3.1l1.2,0.3v1l0.8,1.8l2.1,0.4l1.7,1.3l-3.8,2.1l-2.4,2.2l-0.9,2l-0.8,1.1
		l-1.5,0.2l-0.5,1.4l-0.3,0.9l-1.7,0.7l-2.2-0.1l-1.3-0.8l-1.1-0.4l-1.3,0.7l-0.7,1.4l-1.3,0.9l-1.3,1.3l-1.9,0.3l-0.6-1l0.3-1.8
		l-1.6-2.8l-0.7-0.4v-8.5l2.7-0.1l0.1-10.1l2-0.1l4.2-1l1,1.2l1.7-1.1h0.8l1.5-0.6l0.5,0.2L631.3,370.2z"/>
	<path class="st0" d="M625.5,147.5h2.6l2.9-1.7l0.6-2.6l2.2-1.5l-0.3-2.1l1.6-0.8l2.9-1.9l2.9,1.2l0.4,1.2l1.4-0.6l2.6,1.1l0.3,2.2
		l-0.6,1.3l1.7,3l1.1,0.8l-0.2,0.8l1.8,0.8l0.8,1.2l-1,1l-2.2-0.1l-0.5,0.4l0.6,1.5l0.7,2.8l-2.3,0.3l-0.8,1l-0.2,2.2l-1.1-0.4
		l-2.4,0.2l-0.7-1l-1,0.8l-1-0.6l-2.1-0.1l-3-1l-2.7-0.4l-2.1,0.1l-1.5,1.2l-1.3,0.2v-2l-0.8-2l1.6-0.9v-1.8l-0.8-1.7L625.5,147.5z"
		/>
	<path class="st0" d="M322.2,271.3v-0.4l0.3-0.1l0.5,0.3l1-1.7h0.5v0.4h0.5v0.8l-0.4,1.2l0.2,0.4l-0.3,1l0.2,0.3l-0.3,1.4l-0.5,0.8
		l-0.5,0.1l-0.5,1H322l0.2-3.1V271.3z"/>
	<path class="st0" d="M603.4,299.8l2.2-0.2l0.5-0.7l0.4,0.1l0.7,0.6l3.4-1l1.1-1.1l1.4-1l-0.3-1l0.8-0.3l2.6,0.2l2.5-1.3l1.9-3
		l1.4-1.1l1.7-0.5l0.3,1.2l1.6,1.7v1.1l-0.4,1.1l0.2,0.8l0.9,0.8l2.1,1.2l1.5,1.1v0.9l1.8,1.4l1.1,1.2l0.7,1.6l2,1.1l0.4,0.9
		l-0.9,0.3l-1.7-0.1l-2-0.3l-1,0.2l-0.4,0.6l-0.9,0.1l-1-0.5l-3,1.3l-1.2-0.3l-0.4,0.2l-0.8,1.6l-2-0.5l-2-0.3l-1.7-1l-2.2-0.9
		l-1.4,0.9l-1.1,1.4l-0.2,1.9l-1.7-0.1l-1.8-0.5l-1.6,1.4l-1.4,2.5l-0.3-0.8l-0.1-1.2l-1.2-0.9l-1-1.4l-0.2-1l-1.3-1.4l0.2-0.8
		l-0.3-1.1l0.2-2.1l0.6-0.5L603.4,299.8z"/>
	<path class="st0" d="M597.3,332.5l-1-0.9l-0.8,0.5l-1.1,1.1l-2.2-2.8l2-1.5l-1-1.8l0.9-0.7l1.8-0.3l0.2-1.2l1.4,1.3l2.4,0.1
		l0.8-1.3l0.3-1.8l-0.3-2.1l-1.3-1.6l1.2-3.1L600,316l-2,0.2l-0.8-1.4l0.2-1.2l3.4,0.1l2.2,0.7l2.1,0.6l0.2-1.4l1.4-2.5l1.6-1.4
		l1.8,0.5l1.7,0.1l-0.2,1.6l-0.7,1.4l-0.5,1.6l-0.3,2.4l0.1,1.5l-0.4,0.9l-0.1,1l-0.3,0.9l-1.8,1.3l-1.2,1.4l-1.2,2.6l0.1,2.2
		l-0.7,0.9l-1.6,1.3l-1.6,1.7l-1-0.5l-0.2-0.8h-1.5l-0.9,1L597.3,332.5z"/>
	<path class="st0" d="M588.1,174.6l0.1,0.7l-0.4,1l1.2,0.7l1.4,0.1l-0.2,1.6l-1.2,0.7l-2-0.5l-0.6,1.6l-1.3,0.1l-0.5-0.6l-1.5,1.3
		l-1.3,0.2l-1.2-0.8l-0.9-1.7l-1.3,0.6v-1.8l2-2.2l-0.1-1l1.2,0.4l0.7-0.7h2.3l0.6-0.9L588.1,174.6z"/>
	<path class="st0" d="M597.5,313.6l-0.3-0.1l-1.6,0.4l-1.6-0.4l-1.3,0.2l-4.4-0.1l0.4-2.1l-1.1-1.8l-1.2-0.5l-0.5-1.2l-0.7-0.4v-0.7
		l0.7-1.9l1.3-2.6h0.8l1.6-1.6h1l1.5,1.1l1.8-0.9l0.3-1.1l0.6-1.1l0.4-1.4l1.4-1.1l0.5-1.9l0.6-0.6l0.4-1.4l0.7-1.7l2.3-2.1l0.1-0.9
		l0.3-0.5l-1-1.2l0.1-0.9l0.8-0.2l1.1,1.8l0.2,1.8l-0.1,1.8l1.5,2.5h-1.5l-0.8,0.2l-1.2-0.3l-0.6,1.2l1.6,1.6l1.2,0.5l0.4,1.1
		l0.8,1.9l-0.4,0.7l-1.4,2.8l-0.6,0.5l-0.2,2.1l0.3,1.1l-0.2,0.8l1.3,1.4l0.2,1l1,1.4l1.2,0.9l0.1,1.2l0.3,0.8l-0.2,1.4l-2.1-0.6
		l-2.2-0.7L597.5,313.6z"/>
	<path class="st0" d="M859.4,268.8l-2.3,1.4l-2.2-0.9l-0.1-2.4l1.3-1.3l2.9-0.8l1.5,0.1l0.6,1.1l-1.2,1.2L859.4,268.8z M906,165.6
		l4.7,1.3l3.2,2.9l1.1,3.8h4.1l2.3-1.6l4.5-1.2l-1.4,3.6l-1,1.4l-0.9,4.3l-1.8,3.7l-3.3-0.7l-2.3,1.3l0.7,3.2l-0.4,4.4l-1.4,0.1v1.9
		l-1.8-2.1l-1.1,2l-4.2,1.6l0.4,1.9l-2.3-0.1l-1.3-1.1l-1.8,2.5l-3,1.9l-2.2,2.3l-3.8,1l-2,1.6l-2.9,0.9l1.4-1.6l-0.6-1.4l2.1-2.4
		l-1.4-1.9l-2.3,1.3l-3,2.4l-1.7,2.3l-2.6,0.2l-1.4,1.6l1.4,2.3l2.2,0.6l0.1,1.5l2.1,1l3-2.4l2.4,1.3l1.7,0.1l0.4,1.8l-3.8,0.9
		l-1.3,1.8l-2.6,1.7l-1.4,2.3l2.9,1.8l1.1,3.2l1.6,2.9l1.8,2.4v2.3l-1.7,0.9l0.6,1.7l1.6,1l-0.4,2.5l-0.7,2.4l-1.5,0.3l-2,3.3
		l-2.2,3.9l-2.5,3.5l-3.7,2.7l-3.7,2.3l-3,0.3l-1.6,1.3l-0.9-0.9L867,259l-3.8,1.4l-2.8,0.4l-0.9,3L858,264l-0.7-2.1l0.6-1.1
		l-3.6-0.9l-1.3,0.5l-2.7-0.8l-1.3-1.2l0.4-1.7l-2.5-0.5l-1.3-1.1l-2.3,1.6l-2.6,0.3h-2.2l-1.4,0.7l-1.4,0.4l0.4,3.3l-1.4-0.1
		l-0.2-0.7l-0.1-1.2l-2,0.8l-1.2-0.5l-2-1.1l0.8-2.4l-1.7-0.6l-0.6-2.7l-2.8,0.5l0.3-3.5l2.5-2.5l0.1-2.5l0.2-1.9l-1.2-0.7l-0.9-1.8
		l-1.6,0.2l-2.9-0.4l0.9-1.3l-1.3-1.9l-1.9,1.3l-2.3-0.8l-3.1,1.9l-2.5,2.3l-2.2,0.4l-1.2-0.8l-1.4-0.1l-1.9-0.7l-1.5,0.8l-1.8,2.3
		l-0.2-2.4l-1.6,0.6l-3.1-0.3l-3-0.7l-2.2-1.3L789,239l-0.9-1.5l-1.5-0.4l-2.7-2l-2.2-1l-1.1,0.7l-3.8-2.2l-2.6-2l-0.8-3.5l1.9,0.4
		l0.1-1.6l-1.1-1.6l0.3-2.6l-2.9-3.8l-4.4-1.3l-0.8-2.6l-2-1.6l-0.5-1l-0.4-1.9l0.1-1.3l-1.6-0.8l-0.9,0.4l-0.7-3.2l0.8-0.8L761,203
		l2.6-1.7l1.9-0.7l2.8,0.5l1-2.3l3.5-0.4l1-1.4l4.2-1.9l0.4-0.8l-0.2-2.1l1.8-1l-2.4-6.5l5.3-1.5l1.4-0.9l1.9-7l5.3,1.3l1.5-1.8
		l0.1-4l2.2-0.4l2-2.7l1.1-0.3l0.7,2.9l2.3,2.1l3.8,1.5l1.8,3.2l-1,4.5l1,1.7l3.2,0.6l3.6,0.5l3.3,2.4l1.7,0.4l1.2,3.4l1.6,2.2
		l3-0.1l5.6,0.8l3.6-0.5l2.7,0.6l4,2.2h3.3l1.2,1.1l3.1-1.9l4.3-1.3l4-0.1l3.2-1.3l1.9-2l1.9-1.3l-0.4-1.1l-0.9-1.4l1.4-2.4l1.5,0.4
		l2.8,0.8l2.7-2l4.1-1.5l2-2.6l1.9-1.1l3.9-0.5l2.1,0.4l0.3-1.4l-2.4-2.8l-2.2-1.3l-2.1,1.5l-2.7-0.6l-1.5,0.5l-0.7-1.6l1.9-4.1
		l1.3-3.1l3.2,1.6l3.8-2.6v-1.9l2.4-4.5l1.5-1.4v-2.4l-1.5-1.1l2.2-2.2l3.3-0.8l3.6-0.1l4,1.3l2.4,1.6l1.7,4.4l1,1.9l0.9,2.6
		L906,165.6z"/>
	<path class="st0" d="M359.3,320.1l-1.1-0.6l-1.3-0.9l-0.8,0.4l-2.3-0.4l-0.6-1.1h-0.5L350,316l-0.4-0.8l1-0.2l-0.1-1.3l0.6-1
		l1.3-0.2l1.1-1.7l1-1.4l-1-0.6l0.5-1.6l-0.6-2.5l0.6-0.7l-0.4-2.3l-1.1-1.4l0.4-1.3l0.9,0.2l0.5-0.8l-0.6-1.6l0.3-0.4l1.4,0.1
		l2-1.9l1.1-0.3v-0.9l0.5-2.3l1.5-1.3h1.7l0.2-0.6l2.1,0.2l2.1-1.4l1-0.6l1.3-1.3l1,0.2l0.7,0.7l-0.5,0.9l-1.7,0.5l-0.7,1.4l-1,0.8
		l-0.8,1l-0.3,1.9l-0.7,1.6l1.4,0.2l0.4,1.3l0.6,0.6l0.2,1.1l-0.3,1l0.1,0.6l0.7,0.2l0.6,0.9l3.5-0.3l1.6,0.4l1.9,2.3l1.1-0.3
		l1.9,0.1l1.5-0.3l1,0.5l-0.5,1.4l-0.6,0.9l-0.2,1.9l0.5,1.8l0.8,0.8l0.1,0.6l-1.4,1.3l1,0.6l0.7,0.9l0.8,2.7l-0.5,0.3l-0.5-1.6
		l-0.8-0.9l-0.9,0.9l-5.2-0.1v1.7l1.6,0.3l-0.1,1l-0.5-0.3l-1.5,0.4v1.9l1.2,1l0.4,1.5l-0.1,1.2l-1.2,7.4l-1.3-1.4l-0.8-0.1l1.7-2.7
		l-2.1-1.3L370,326l-1-0.5l-1.5,0.7l-2-0.3l-1.6-2.8l-1.3-0.7l-0.9-1.3l-1.8-1.3L359.3,320.1z"/>
	<path class="st0" d="M338.9,297.6l-1.5-0.6l-0.5-0.6l0.3-0.5l-0.1-0.6l-0.8-0.6l-1.1-0.5l-0.9-0.4l-0.2-0.8l-0.7-0.5l0.2,0.8
		l-0.5,0.6l-0.6-0.8l-0.9-0.3l-0.4-0.5v-0.8l0.4-0.9l-0.8-0.4l0.6-0.5l0.4-0.4l1.8,0.7l0.6-0.4l0.9,0.2l0.5,0.6l0.8,0.2l0.6-0.6
		l0.7,1.5l1,1.1l1.3,1.2l-1,0.2v1.1l0.6,0.4l-0.4,0.3l0.1,0.5l-0.2,0.5L338.9,297.6z"/>
	<path class="st0" d="M340.7,255.9l2.3,0.2h2.1l2.5,1l1.1,1.1l2.5-0.3l1,0.7l2.3,1.8l1.7,1.3h0.9l1.6,0.6l-0.2,0.8l2,0.1l2,1.2
		l-0.3,0.7l-1.8,0.4l-1.8,0.1l-1.9-0.2l-3.9,0.3l1.8-1.6l-1.1-0.7l-1.7-0.2l-0.9-0.8l-0.6-1.6l-1.5,0.1l-2.5-0.8l-0.8-0.6L342,259
		l-1-0.6l1-0.7l-2.6-0.1l-1.9,1.5h-1.1l-0.4,0.7l-1.3,0.3l-1.1-0.3l1.4-0.9l0.6-1l1.2-0.6l1.4-0.6l2-0.3L340.7,255.9z"/>
	<path class="st0" d="M653.5,218.8l1.8-1.4l-2.5,1H651l-0.4,0.8h-0.2l-1.3,0.1l0.6,1.3l1.3,0.4l2.8-1.3l-0.1-0.3L653.5,218.8z"/>
	<path class="st0" d="M607.9,170.3l-1.3-0.8l-1.3,0.2l-2.1-1.3l-1,0.3l-1.5,1.7l-2-1.3l-1.5-1.8l-1.4-1l-0.3-1.8l-0.5-1.3l2-0.9
		l1-1.1l1.9-0.8l0.7-0.8l0.7,0.5l1.2-0.4l1.3,1.4l2,0.4l-0.2,1.2l1.5,0.9l0.4-1.1l1.8,0.5l0.3,1.3l2,0.3l1.2,2H612l-0.4,0.7
		l-0.6,0.2l-0.2,0.9l-0.5,0.2l-0.1,0.4l-0.9,0.4l-1.2-0.1L607.9,170.3z"/>
	<path class="st0" d="M589,142.5v1.8l2.7,1.1v1.6l2.7-0.9l1.5-1.3l3,1.8l1.3,1.4l0.6,2.3l-0.8,1.2l1,1.6l0.7,2.4l-0.2,1.5l1.1,2.8
		l-1.2,0.4l-0.7-0.5l-0.7,0.8l-1.9,0.8l-1,1.1l-2,0.9l0.5,1.3l0.3,1.8l1.4,1l1.5,1.8l-0.9,1.9l-1,0.5l0.4,2.6l-0.3,0.7l-0.8-0.8
		l-1.3-0.1l-1.9,0.7l-2.4-0.2l-0.4,1l-1.4-1.1l-0.8,0.2l-2.9-1.2l-0.6,0.9h-2.3l0.3-2.9l1.4-2.8l-3.9-0.8l-1.3-1.1l0.2-1.8l-0.5-0.9
		l0.3-2.9l-0.5-4.5h1.7l0.7-1.6l0.7-4.1l-0.5-1.5l0.5-1l2.3-0.3l0.5,1l1.9-2.2l-0.6-1.7l-0.1-2.6l2,0.6L589,142.5z"/>
	<path class="st0" d="M678.3,285.4l0.6,0.9l-0.1,1.1l-1.5,0.6l1.2,0.7l-1,1.5l-0.6-0.5l-0.6,0.2h-1.5v-0.8l-0.2-0.8l0.9-1.3l1-1.2
		l1.2,0.2L678.3,285.4z"/>
	<path class="st0" d="M596.4,139.6l-1.6,3.8l-2.8-2.7l-0.4-2l4-1.6L596.4,139.6z M591.6,135.5l-0.6,1.8l-0.8-0.5l-1.9,3.4l0.7,2.3
		l-1.7,0.7l-2-0.6l-1.1-2.6l-0.1-4.9l0.5-1.3l0.8-1.5l2.4-0.3l0.9-1.4l2.2-1.4l-0.1,2.6l-0.8,1.6l0.3,1.4L591.6,135.5z"/>
	<path class="st0" d="M369.1,265.9l0.3-0.5h2.1l1.6,0.7l0.7-0.1l0.5,1l1.5-0.1l-0.1,0.9l1.2,0.2l1.3,1l-1,1.1l-1.3-0.6l-1.2,0.1
		l-0.9-0.1l-0.5,0.5l-1,0.2l-0.4-0.7l-0.9,0.4l-1.1,1.9l-0.7-0.4l-0.1-0.8l0.1-0.8l-0.7-0.9l0.6-0.5l0.2-1.1L369.1,265.9z"/>
	<path class="st0" d="M627.7,128.9l0.3-3l-1,0.6l-1.7-1.8l-0.2-3l3.4-1.5l3.4-0.8l2.9,0.9l2.8-0.2l0.4,0.9l-1.9,3l0.8,4.8l-1.2,1.6
		h-2.2l-2.3-1.9L630,128L627.7,128.9z"/>
	<path class="st0" d="M656.3,237l-0.8,1.2l-0.6,2.3l-0.7,1.6l-0.6,0.5l-0.9-1l-1.2-1.4l-1.9-4.4l-0.3,0.3l1.1,3.2l1.7,3.1l2,4.7
		l1,1.6l0.9,1.7l2.4,3.3l-0.5,0.5l0.1,1.9l3.1,2.6l0.5,0.6h-32v-21.5l-0.8-2.5l0.7-1.9l-0.4-1.3l1-1.5h3.6l2.6,0.8l2.7,0.9l1.3,0.5
		l2.1-1l1.1-0.9l2.4-0.3l1.9,0.4l0.7,1.6l0.6-1l2.2,0.7l2.1,0.2l1.3-0.8L656.3,237z"/>
	<path class="st0" d="M527,242.5h3.5h8.4l0,0h-8.4H527l-0.1,0.1l0,0l-1.7,3.1l-1.8,1.1l-1,1.8l-0.1,1.6l-0.7,1.8l-0.9,0.5l-1.5,1.9
		l-0.9,2.1l0.2,1l-0.9,1.5l-1,0.8l-0.2,1.3l-0.1,1.2l0.6-1h10.5l-0.5-4.2l0.7-1.5l2.5-0.3l-0.1-7.5l8.8,0.2v-4.5l0.1-0.6v-0.2
		L527,242.5z"/>
	<path class="st0" d="M676.3,285.9l-0.9-0.9l-1.1-1.6l-1.2-0.9l-0.7-1l-2.3-1.1h-1.8l-0.7-0.6l-1.6,0.6l-1.6-1.3l-0.8,2.1l-3.1-0.6
		l-0.3-1.1l1.2-4.1l0.3-1.9l0.8-0.9l2-0.5l1.4-1.6l1.6,3.3l0.7,2.6l1.5,1.4l3.7,2.6l1.5,1.6l1.5,1.6l0.8,0.9l1.3,0.8l-0.8,0.7
		L676.3,285.9z"/>
	<path class="st0" d="M664.3,279.2l1.6,1.3l1.6-0.6l0.7,0.6h1.8l2.3,1.1l0.7,1l1.2,0.9l1.1,1.6l0.9,0.9l-1,1.2l-0.9,1.3l0.2,0.8v0.8
		h1.5l0.6-0.2l0.6,0.5l-0.6,1l1,1.5l1,1.3l1,1l8.8,3.2h2.3l-7.6,8.1l-3.5,0.1l-2.4,1.9h-1.7l-0.7,0.9H673l-1.1-0.9l-2.5,1.1
		l-0.8,1.1l-1.8-0.2l-0.6-0.3l-0.6,0.1h-0.8l-3.4-2.3h-1.9l-0.9-0.9v-1.5l-1.4-0.5l-1.5-3l-1.2-0.6l-0.5-1.1l-1.3-1.3l-1.7-0.2
		l0.9-1.5l1.4-0.1l0.4-0.8v-2.4l0.8-2.8l1.3-0.8l0.3-1.1l1.2-2.1l1.6-1.4l1.1-2.7l0.4-2.4l3.1,0.6L664.3,279.2z"/>
	<path class="st0" d="M397.5,482.7l3.2-2.6l2.3,1.1l1.6-1.7l2.1,1.9l-0.8,1.5l-3.6,1.3l-1.2-1.5l-2.3,2L397.5,482.7z"/>
	<path class="st0" d="M639.3,60.1l-0.4,5.2l4.1,4.8l-2.5,5.3l3.1,7.7l-1.8,5.5l2.4,4.7l-1.1,4l4,4.1l-1,3l-2.5,3.3l-5.8,7.1
		l-4.9,0.4l-4.7,2l-4.4,1.1l-1.6-2.9l-2.6-1.8l0.6-5.5l-1.3-5.2l1.3-3.4l2.4-3.8l6.2-6.7l1.8-1.3l-0.3-2.7l-3.8-3.1l-0.9-2.6
		l-0.1-10.7l-4.2-5l-3.6-3.7l1.6-2l3,4l3.5-0.4l2.9,1.8l2.6-3.3l1.3-5.6l4.2-2.7l3.5,3.1L639.3,60.1z"/>
	<path class="st0" d="M592.1,330.3l-2.8-2.7l-1.8-2.2l-1.6-2.8l0.1-0.9l0.6-0.9l0.7-1.9l0.5-2l0.9-0.1h3.9v-3.2l1.3-0.2l1.6,0.4
		l1.6-0.4l0.3,0.1l-0.2,1.2l0.8,1.4l2-0.2l0.7,0.5l-1.2,3.1l1.3,1.6l0.3,2.1l-0.4,1.8l-0.8,1.3l-2.4-0.1l-1.4-1.3l-0.2,1.2l-1.8,0.3
		l-0.9,0.7l1,1.8L592.1,330.3z"/>
	<path class="st0" d="M674.2,197.2l0.4-1.5l-0.7-2.5l-1.6-1.4l-1.5-0.4l-1-1.1l0.3-0.4l2.3,0.6l4,0.6l3.7,1.8l0.5,0.7l1.6-0.6
		l2.5,0.8l0.8,1.5l1.7,0.8l-0.7,0.5l1.3,1.9l-0.4,0.4l-1.5-0.2l-2-1l-0.7,0.6l-3.8,0.6L677,197L674.2,197.2z"/>
	<path class="st0" d="M420.7,313l-1,1l-1.3,0.2l-0.4-0.8l-0.6-0.1l-0.8,0.7l-1.2-0.5l0.7-1.1l0.2-1.2l0.5-1.1l-1-1.6l-0.2-1.8
		l1.4-2.3l0.9,0.3l2,0.6l2.9,2.3l0.4,1.1l-1.7,2.4L420.7,313z"/>
	<path class="st0" d="M516.9,284.2l0.3-1.2l2.9-0.1l0.6-0.6h0.8l1.1,0.7h0.8l0.9-0.5l0.5,0.8l-1.2,0.6h-1.2l-1.2-0.6l-1,0.6H520
		l-0.7,0.4L516.9,284.2z"/>
	<path class="st0" d="M521.5,290l-1.4-1.1l-1.1-0.2l-0.6-0.8v-0.4l-0.8-0.6l-0.2-0.6l1.4-0.5l0.9,0.1l0.7-0.3l5,0.1v0.9L525,287
		l0.2,0.9l-0.4,0.4h-0.6l-0.7,0.5h-0.8L521.5,290z"/>
	<path class="st0" d="M401.4,297.2l1.8,1l1.7,1.8l0.1,1.4l1,0.1l1.4,1.3l1.1,0.9l-0.4,2.4l-1.6,0.7l0.1,0.6l-0.5,1.4l1.2,1.9h0.8
		l0.4,1.5l1.6,2.3l-0.6,0.1l-1.5-0.2l-0.9,0.7l-1.2,0.5l-0.9,0.1l-0.3,0.5l-1.3-0.1l-1.7-1.3l-0.2-1.2l-0.7-1.4l0.4-2.3l0.8-0.9
		l-0.6-1.3l-0.9-0.4l0.4-1.2l-0.6-0.6l-1.4,0.1l-1.8-2l0.7-0.7l-0.1-1.3l1.7-0.4l0.7-0.5l-0.9-1l0.2-1L401.4,297.2z"/>
	<path class="st0" d="M327.1,284.6l-0.5-0.9l-0.8-0.2l0.2-1.1l-0.4-0.3l-0.6-0.2l-1.2,0.3l-0.1-0.4l-0.8-0.4l-0.6-0.5l-0.8-0.2
		l0.6-0.7l-0.2-0.5l0.2-0.5l1.3-0.8l1.2-1.1l0.3,0.1l0.6-0.5h0.8l0.3,0.2l0.4-0.1l1.3,0.3l1.3-0.1l0.9-0.3l0.3-0.3l0.9,0.1l0.6,0.2
		l0.7-0.1l0.5-0.2l1.2,0.4l0.4,0.1l0.8,0.5l0.8,0.6l1,0.4l0.7,0.8l-0.9-0.1l-0.4,0.4l-0.9,0.4h-0.7l-0.6,0.4l-0.5-0.1l-0.5-0.4
		l-0.3,0.1l-0.4,0.7H333v0.6l-0.9,0.8l-0.5,0.3l-0.3,0.4l-0.8-0.6l-0.6,0.7h-0.6l-0.6,0.1l0.1,1.4h-0.4l-0.3,0.6L327.1,284.6z"/>
	<path class="st0" d="M613,181l0.7,1.5l0.8,1.1l-1,1.4l-1.2-0.9l-1.9,0.1l-2.3-0.6l-1.3,0.1l-0.6,0.8l-1-0.9l-0.6,1.6l1.3,1.8
		l0.6,1.2l1.2,1.4l1,0.8l1,1.6l2.4,1.4l-0.3,0.6l-2.5-1.3l-1.6-1.3l-2.4-1.2l-2.3-2.7l0.5-0.3l-1.2-1.6l-0.1-1.3l-1.7-0.6l-0.8,1.6
		l-0.8-1.3l0.1-1.3l0.1-0.1l1.9,0.1l0.5-0.6l0.9,0.6l1.1,0.1v-1.1l0.9-0.4l0.3-1.6l2.1-1l0.8,0.5l2,1.7l2.2,0.7L613,181z"/>
	<path class="st0" d="M365.2,265.3l1.6,0.1l2.3,0.5l0.2,1.5l-0.2,1.1l-0.6,0.5l0.7,0.9l-0.1,0.8l-1.8-0.5l-1.3,0.2l-1.6-0.2
		l-1.3,0.5l-1.5-0.9l0.2-0.9l2.5,0.4l2,0.2l1-0.6l-1.2-1.2v-1.1l-1.7-0.4L365.2,265.3z"/>
	<path class="st0" d="M605.9,177.3l0.9-2.6l-0.5-0.9h1.5l0.2-1.6l1.4,1l1,0.4l2.3-0.5l0.2-0.8l1.1-0.1l1.3-0.6l0.3,0.3l1.3-0.5
		l0.6-1l0.9-0.2l2.9,1.2l0.6-0.4l1.5,1.1l0.2,1.1L622,174l-1.3,2.7l-1.6,2.6l-2.2,0.7l-1.7-0.2L613,181l-1,0.6l-2.2-0.7l-2-1.7
		l-0.8-0.5l-0.5-1.3L605.9,177.3z"/>
	<path class="st0" d="M658.5,226.9L658,228l-1-0.4l-0.6,2.1l0.7,0.4l-0.7,0.4l-0.1,0.8l1.3-0.4l0.1,1.2l-1.3,5l-1.8-5.3l0.8-1
		l-0.2-0.2l0.7-1.5l0.5-2.4l0.4-0.8h0.1h0.9l0.3-0.6h0.7v1.3l-0.4,0.5L658.5,226.9z"/>
	<path class="st0" d="M684.6,216.3l1.8,1l0.2,1.9l-1.4,1.1l-0.6,2.5l1.9,3.1l3.3,1.8l1.4,2.4l-0.4,2.3h0.8v1.7l1.5,1.6l-1.6-0.1
		l-1.8-0.3l-2,3l-5-0.3l-7.6-6.2l-4-2.2l-3.3-0.9l-1.1-3.9l6-3.4l1-4l-0.3-2.4l1.5-0.8l1.4-2.1l1.2-0.5l3.1,0.4l1,0.9l1.3-0.6
		L684.6,216.3z"/>
	<path class="st0" d="M353.4,269.3l1.8,0.3l1.4,0.7l0.4,0.8h-1.9l-0.8,0.5l-1.5-0.5l-1.5-1l0.3-0.6l1.1-0.2L353.4,269.3z"/>
	<path class="st0" d="M658,228l0.5-1l3,1.3l5.3-3.4l1.1,3.9l-0.5,0.5l-5.4,1.6l2.7,3.1l-0.9,0.5l-0.4,1l-2.1,0.4l-0.7,1.1l-1.2,0.9
		l-3-0.5l-0.1-0.4l1.3-5l-0.1-1.2l0.4-0.9L658,228L658,228z"/>
	<path class="st0" d="M841,291.1l-1.1-1.4l-1.3-2.8l-0.6-3.3l1.7-2.3l3.5-0.5l2.5,0.4l2.2,1.1l1.2-1.9l2.4,1l0.6,1.8l-0.3,3.3
		l-4.5,2.1l1.2,1.7l-2.8,0.2l-2.3,1.1L841,291.1z"/>
	<path class="st0" d="M914,194.1l0.4,0.6l-1-0.2l-1.2,1.2l-0.8,1.3l0.1,2.6l-1.4,0.8l-0.5,0.6l-1,1l-1.8,0.6l-1.2,0.9l-0.1,1.5
		l-0.3,0.4l1.1,0.6l1.5,1.5l-0.4,0.8l-1.1,0.2l-1.9,0.2l-1,1.5l-1.2-0.1l-0.2,0.3l-1.3-0.6l-0.3,0.6l-0.8,0.3l-0.1-0.6l-0.7-0.3
		l-0.7-0.6l0.7-1.5l0.6-0.4l-0.2-0.6l0.7-1.9l-0.2-0.6l-1.6-0.4l-1.3-0.9l2.2-2.3l3-1.9l1.8-2.6l1.3,1.1l2.3,0.1l-0.4-1.9l4.2-1.6
		l1.1-2L914,194.1z"/>
	<path class="st0" d="M618.2,195.4l-0.1,0.7h-0.3l-0.2-1.3l-0.6-0.4l-0.6-1l0.5-0.8l0.6-0.3l0.4-1.2l0.5-0.2l0.4,0.5l0.5,0.2
		l0.3,0.6l0.5,0.2l0.5,0.7h0.4l-0.3,0.9l-0.3,0.4l0.1,0.3l-0.6,0.1L618.2,195.4z"/>
	<path class="st0" d="M691.5,235.5l0.6,1.4l-0.2,0.7l0.9,2.3l-1.9,0.1l-0.7-1.4l-2.4-0.3l2-3L691.5,235.5z"/>
	<path class="st0" d="M753.3,194.6l-1.5,0.7l-3.5,2.5l-1.2,2.6h-1l-0.7-1.7l-3.4-0.1l-0.5-2.9h-1.3l0.2-3.6l-3.3-2.7l-4.6,0.3
		l-3.2,0.5l-2.6-3.4l-2.2-1.4l-4.2-2.7l-0.5-0.3l-6.9,2.3L713,198l-1.4,0.2l-1.9-2.8l-1.8-1l-3,0.8l-1.2,1.2l-0.2-0.9l0.7-1.5
		l-0.5-1.3l-3.1-1.3l-1.2-3.3l-1.5-0.9l-0.1-1.2l2.6,0.4l0.1-2.8l2.3-0.6l2.3,0.6l0.5-3.8l-0.5-2.4l-2.7,0.2l-2.3-1l-3.1,1.8
		l-2.5,0.8l-1.4-0.6l0.3-2l-1.7-2.6l-2,0.1l-2.3-2.7l1.6-3.1l-0.8-0.8l2.1-4.6l2.8,2.4l0.3-3.1l5.5-4.7l4.2-0.1l5.9,3l3.2,1.7
		l2.9-1.8l4.3-0.1l3.5,2.2l0.8-1.3l3.8,0.2l0.7-2l-4.4-3l2.6-2.1l-0.5-1.2l2.6-1.2l-1.9-3.1l1.2-1.6l10.1-1.6l1.3-1.1l6.7-1.7l2.4-2
		l4.8,1l0.8,4.8l2.8-1.1l3.5,1.6l-0.2,2.5l2.6-0.3l6.7-4.3l-1,1.4l3.4,3.5l6,11.1l1.4-2.2l3.7,2.5l3.9-1.1l1.5,0.8l1.3,2.4l1.9,0.8
		l1.2,1.8l3.5-0.6l1.4,2.5l-2.1,2.7l-2.2,0.4l-0.1,4l-1.5,1.8l-5.3-1.3l-1.9,7l-1.4,0.9l-5.3,1.5l2.4,6.5l-1.8,1l0.2,2.1l-1.7-0.5
		l-1.3-1.3l-4-0.4l-4.5-0.1l-1,0.4l-3.8-1.6l-1.5,0.8l-0.4,2.1l-4.4-1.3L754,193L753.3,194.6z"/>
	<path class="st0" d="M845.6,281.1l0.9-1.3l0.1-2.3l-2.2-2.4l-0.2-2.8l-2-2.3l-2-0.2l-0.5,1l-1.6,0.1l-0.8-0.5l-2.8,1.7l-0.1-2.5
		l0.7-3l-1.8-0.1l-0.2-1.7l-1.2-0.9l0.6-1.1l2.3-1.9l0.2,0.7l1.4,0.1l-0.4-3.3l1.4-0.4l1.6,2.3l1.2,2.6h3.3l1,2.5l-1.7,0.7l-0.8,1
		l3.2,1.7l2.2,3.3l1.7,2.5l2,1.9l0.7,2l-0.5,2.8l-2.4-1l-1.2,1.9L845.6,281.1z"/>
	<path class="st0" d="M658.7,225.1H658l-0.3,0.6h-0.9l1-2.6l1.3-2.3l0.1-0.1l1.2,0.2l0.4,1.3l-1.5,1.2L658.7,225.1z"/>
	<path class="st0" d="M782.5,299.5l-0.4,2.8l-1.1,0.8l-2.3,0.6l-1.3-2.1l-0.5-3.9l1.2-4.4l1.8,1.5l1.3,1.9L782.5,299.5z"/>
	<path class="st0" d="M541.5,308h-0.7l-2.8-1.3l-2.4-2l-2.3-1.5l-1.8-1.7l0.6-0.9l0.1-0.8l1.2-1.5l1.3-1.3l0.6-0.1l0.7-0.3l1.1,1.6
		l-0.2,1.1l0.5,0.6h0.8l0.5-1.1l0.8,0.1l-0.1,0.8l0.3,1.3l-0.6,1.2l0.8,0.7l0.8,0.2l1.1,1.1l0.1,1.1l-0.3,0.3L541.5,308z"/>
	<path class="st0" d="M640.3,400.7l0.9,0.9l-0.8,1.5l-0.5,1l-1.5,0.5l-0.5,1l-1,0.3l-2-2.4l1.4-2l1.5-1.2l1.3-0.6L640.3,400.7z"/>
	<path class="st0" d="M623.5,145.6l-0.2-1.2l0.3-1.3l-1.2-0.7l-2.8-0.8l-0.6-4l3.1-1.5l4.5,0.3l2.7-0.5l0.4,1l1.4,0.3l2.6,2.3
		l0.3,2.1l-2.2,1.5l-0.6,2.6l-2.9,1.7h-2.6l-0.6-1.4L623.5,145.6z"/>
	<path class="st0" d="M578.5,164l0.5,0.9l-0.2,1.8l-0.8,0.1l-0.6-0.4l0.3-2.3L578.5,164z"/>
	<path class="st0" d="M619,137.6l0.1-3.7l1.3-3.1l2.5-1.7l2.1,3.7l2.2-0.1l0.5-3.8l2.2-0.9l1.2,0.6l2.3,1.9h2.2l1.3,1.1l0.2,2.4
		l0.9,2.9l-2.9,1.9l-1.6,0.8l-2.6-2.3l-1.4-0.3l-0.4-1l-2.7,0.5l-4.5-0.3L619,137.6z"/>
	<path class="st0" d="M633.9,171.9l0.6-0.6l1.8-0.4l2,1.3l1.1,0.1l1.2,1.1l-0.2,1.4l1,0.6l0.4,1.6l0.9,1l-0.2,0.6l0.5,0.4l-0.7,0.3
		l-1.6-0.1l-0.3-0.6l-0.6,0.3l0.2,0.7l-0.7,1.2l-0.5,1.3l-0.7,0.4l-0.5-1.8l0.3-1.6l-0.1-1.7l-1.6-2.3l-0.8-1.7l-0.8-1.2
		L633.9,171.9z"/>
	<path class="st0" d="M615.6,193.7l-0.2-0.7l-1.2,1.8l0.2,1.1l-0.6-0.3l-0.8-1.2l-1.2-0.7l0.3-0.6l0.4-2l0.9-0.9l0.5-0.3l0.7,0.6
		l0.4,0.5l0.9,0.4l1,0.8l-0.2,0.3l-0.5,0.8L615.6,193.7z"/>
	<path class="st0" d="M695.7,353.3l0.7,1.2l0.7,1.8l0.4,3.3l0.7,1.3l-0.3,1.3l-0.5,0.8l-0.9-1.6l-0.5,0.8l0.5,2.1l-0.2,1.2l-0.7,0.6
		l-0.2,2.4l-1.1,3.3l-1.3,3.9l-1.7,5.5l-1,4l-1.2,3.4l-2.2,0.7l-2.3,1.3l-1.5-0.8l-2.1-1.1l-0.7-1.6l-0.2-2.6l-1-2.3l-0.3-2.1
		l0.5-2.1l1.2-0.5v-1l1.3-2.2l0.2-1.8l-0.6-1.3l-0.5-1.8l-0.2-2.5l0.9-1.6l0.4-1.8l1.3-0.1l1.5-0.6l1-0.5h1.2l1.5-1.6l2.2-1.7
		l0.8-1.4l-0.4-1.2l1.1,0.3l1.5-1.9v-1.6l0.9-1.2L695.7,353.3z"/>
	<path class="st0" d="M617.7,196.1h0.3l0.1-0.7l1.6-0.6l0.6-0.1l0.9-0.2l1.2-0.1l1.3,1.2l0.2,2.4l-0.5,0.1l-0.4,0.6l-1.5-0.1l-1,0.8
		l-1.8,0.3l-1.1-0.9l-0.4-1.5L617.7,196.1z"/>
	<path class="st0" d="M798.5,167.5l2.8-0.7l5.1-3.6l4.1-2l2.3,1.3l2.8,0.1l1.8,2l2.7,0.1l3.9,1l2.6-2.9l-1.1-2.5l2.8-4.5l3,1.8
		l2.4,0.5l3.2,1.1l0.5,3.2l3.8,1.8l2.5-0.8l3.4-0.6l2.7,0.6l2.6,2l1.6,2.1h2.5l3.4,0.7l2.5-1l3.5-0.7l4-2.9l1.6,0.4l1.4,1.4l3.2-0.4
		l-1.3,3.1l-1.9,4.1l0.7,1.6l1.5-0.5l2.7,0.6l2.1-1.5l2.2,1.3l2.4,2.8l-0.3,1.4l-2.1-0.4l-3.9,0.5l-1.9,1.1l-2,2.6l-4.1,1.5l-2.7,2
		l-2.8-0.8l-1.5-0.4l-1.4,2.4l0.8,1.4l0.4,1.2l-1.9,1.3l-1.9,2l-3.1,1.3l-4,0.1l-4.4,1.3l-3.1,1.9l-1.2-1.1h-3.3l-4-2.2l-2.7-0.6
		l-3.6,0.5l-5.6-0.8l-3,0.1l-1.6-2.2l-1.2-3.4l-1.7-0.4l-3.2-2.4l-3.6-0.5l-3.2-0.6l-1-1.7l1-4.5l-1.8-3.2l-3.8-1.5l-2.3-2.1
		L798.5,167.5z"/>
	<path class="st0" d="M529.5,280.1l-1.8-1.9l-1.6-2l-1.8-0.7l-1.3-0.8h-1.5l-1.3,0.6l-1.3-0.2L518,276l-0.2-1.5l0.8-1.4l0.3-2.6
		l-0.3-2.8l-0.3-1.4l0.3-1.4l-0.7-1.4l-1.4-1.2l0.6-1h10.5l-0.5-4.2l0.7-1.5l2.5-0.3l-0.1-7.5l8.8,0.2v-4.5l10.2,7.2h-4.1l1.3,12.5
		l1.3,12.2l0.5,0.4l-0.6,2h-10.8l-0.4,0.6l-1-0.2l-1.5,0.5l-1.9-0.6l-0.8,0.1l-0.5,1.6L529.5,280.1z"/>
	<path class="st0" d="M655.3,350.7l-0.8,2.1l0.8,3.6h0.9l1,0.9l1.1,2l0.2,3.6l-1.2,0.6l-0.8,1.9l-1.8-1.7l-0.2-2l0.6-1.3l-0.2-1.1
		l-1.1-0.7l-0.8,0.3l-1.5-1.3l-1.4-0.7l0.8-2.5l0.8-1l-0.6-2.2l0.5-2.2l0.5-0.7l-0.7-2.3l-1.3-1.2l2.6,0.5l0.5,0.8l0.9,1.3
		L655.3,350.7z"/>
	<path class="st0" d="M300.7,248l-1,2.6l-0.5,2.1l-0.2,3.9l-0.3,1.4l0.5,1.6l0.8,1.4l0.5,2.2l1.8,2.1l0.7,1.7l1.1,1.4l2.9,0.8
		l1.1,1.2l2.4-0.8l2-0.3l2-0.5l1.7-0.5l1.7-1.1l0.6-1.7l0.3-2.4l0.5-0.8l1.8-0.8l2.9-0.7l2.4,0.1l1.6-0.2l0.6,0.6l-0.1,1.4l-1.5,1.7
		l-0.6,1.7l0.5,0.5l-0.4,1.2l-0.7,2.2l-0.7-0.7h-0.6H324l-1,1.7l-0.5-0.3l-0.3,0.1v0.4h-2.5h-2.5v1.6H316l1,0.9l1,0.6l0.3,0.6
		l0.4,0.2l-0.1,0.9h-3.5l-1.3,2.3l0.4,0.5l-0.3,0.6l-0.1,0.8l-3-3l-1.4-0.9l-2.2-0.7l-1.5,0.2l-2.2,1l-1.4,0.3l-1.9-0.7l-2-0.5
		l-2.5-1.3l-2-0.4l-3-1.3l-2.3-1.3l-0.7-0.8l-1.5-0.2l-2.8-0.9l-1.1-1.3l-2.9-1.6l-1.3-1.8l-0.6-1.4l0.9-0.3l-0.3-0.8l0.6-0.7v-1
		l-0.9-1.3l-0.3-1.1l-0.9-1.5l-2.4-2.9l-2.7-2.3l-1.3-1.8l-2.4-1l-0.5-0.7l0.4-1.8l-1.4-0.7l-1.6-1.5l-0.7-2.1l-1.5-0.3l-1.6-1.6
		l-1.3-1.5l-0.1-1l-1.5-2.3l-1-2.4v-1.2l-1.9-1.2l-0.9,0.1l-1.5-0.9l-0.4,1.3l0.4,1.5l0.3,2.3l0.9,1.3l2,2.1l0.4,0.7l0.4,0.2
		l0.4,1.1h0.5l0.5,2l0.8,0.8l0.6,1.1l1.7,1.5l0.9,2.8l0.8,1.3l0.8,1.4l0.1,1.6l1.3,0.1l1.1,1.3l1,1.3l-0.1,0.5l-1.1,1l0,0l-0.7-1.8
		l-1.8-1.7l-1.9-1.4l-1.4-0.8l0.1-2.2l-0.4-1.6l-1.3-0.9l-1.9-1.3l-0.4,0.4l-0.7-0.8l-1.7-0.7l-1.6-1.8l0.2-0.2l1.1,0.2l1-1.1
		l0.1-1.4l-2.1-2.2l-1.6-0.9l-1-1.9l-1-2l-1.2-2.6l-1.1-2.8l3.1-0.2l3.4-0.4l-0.3,0.6l4.1,1.6l6.1,2.2h5.4h2.1V230h4.7l1,1.1l1.4,1
		l1.6,1.4l0.9,1.6l0.7,1.7l1.4,0.9l2.2,0.9l1.7-2.4l2.2-0.1l1.9,1.2l1.4,2.1l0.9,1.8l1.6,1.7l0.6,2.1l0.8,1.4l2.1,0.9l1.9,0.6
		L300.7,248z"/>
	<path class="st0" d="M606.3,399.5l-2-2.3l-1.1-2.3l-0.6-2.9l-0.6-2l-0.9-4.5L601,382l-0.3-1.6l-1-1.2l-1.4-2.4l-1.4-3.4l-0.6-1.8
		l-2.2-2.8l-0.2-2.2l1.3-0.5l1.6-0.5l1.8,0.1l1.6,1.3l0.4-0.2l10.9-0.1l1.9,1.3l6.5,0.4l5-1.1l2.2-0.6l1.8,0.2l1.1,0.6v0.2l-1.5,0.6
		h-0.8l-1.7,1.1l-1-1.2l-4.2,1l-2,0.1l-0.1,10.1l-2.7,0.1v19.6l-2.4,1.6L612,401l-1.7-0.6l-1.2-0.2l-0.5-1.3l-1.1-0.8L606.3,399.5z"
		/>
	<path class="st0" d="M1008.7,377.4l2.2,1.8l1.4,1.3l-1,0.7l-1.5-0.8l-1.9-1.3l-1.7-1.5l-1.8-2l-0.4-1h1.2l1.5,1l1.2,1L1008.7,377.4
		z"/>
	<path class="st0" d="M331.5,289.8l-0.9-0.9l-1.3-1.1l-0.6-0.9l-1.1-0.9l-1.4-1.2l0.3-0.4l0.5,0.4l0.2-0.2l0.8-0.1l0.3-0.6h0.4
		l-0.1-1.4l0.6-0.1h0.6l0.6-0.7l0.8,0.6l0.3-0.4l0.5-0.3l0.9-0.8v-0.6h0.3l0.4-0.7l0.3-0.1l0.5,0.4l0.5,0.1l0.6-0.4h0.7l0.9-0.4
		l0.4-0.4l0.9,0.1l-0.2,0.3L338,280l0.3,1l-0.6,0.9l-0.3,1.1l-0.1,1.2l0.1,0.7l0.1,1.2l-0.4,0.3l-0.3,1.2l0.2,0.7l-0.6,0.7l0.1,0.7
		l0.4,0.5l-0.6,0.6l-0.8-0.2L335,290l-0.9-0.2l-0.6,0.4l-1.8-0.7L331.5,289.8z"/>
	<path class="st0" d="M578.6,149.3l2.2,0.1l0.5,1.5l-0.7,4.1l-0.7,1.7h-1.6l0.5,4.5l-1.5-1l-1.7-1.9l-2.5,0.9l-2-0.3l1.4-1.2
		l2.4-6.5L578.6,149.3z"/>
	<path class="st0" d="M638.1,43.3l8.4,6l-3.5,2.1l2.9,4.9l-4.6,3.1l-2.2,0.7l1.1-5.4l-3.5-3.1l-4.2,2.7l-1.3,5.6l-2.6,3.3l-2.9-1.8
		l-3.5,0.4l-3-4l-1.6,2l-1.7,0.3l-0.4,4.9l-5.1-1.2l-0.7,4h-2.6l-1.8,5l-2.6,7.6l-4.2,9.1l1,2.1l-0.9,2.4l-2.7-0.1l-1.8,5.7l0.2,7.7
		l1.7,2.9l-0.9,6.5l-2.2,3.7l-1.2,3l-1.8-3.2l-5.3,6l-3.6,1.2l-3.7-2.6l-1-5.6l-0.8-12.7l2.5-3.7l7.1-5l5.3-6.3l4.9-8.9l6.5-13.1
		l4.5-5.5l7.4-9.5l5.9-3.5l4.4,0.4l4.1-6.7l4.9,0.4L638.1,43.3z"/>
	<path class="st0" d="M799.5,242l-0.2,1.3l0.4,1.9l-0.3,1.2h-2.2l-3.3-0.7l-2.1-0.3l-1.6-1.5l-3.7-0.4l-3.5-1.7l-2.5-1.5l-2.6-1.1
		l1-2.9l1.7-1.4l1.1-0.8l2.2,1l2.7,2l1.5,0.4l0.9,1.5l2.1,0.6l2.2,1.3l3,0.7L799.5,242z"/>
	<path class="st0" d="M720.8,261.9l-1,2l-1.2-0.1l-0.6,0.7l-0.4,1.4l0.3,1.9l-0.3,0.4h-1.2l-1.7,1.1l-0.3,1.4l-0.6,0.6h-1.7L711,272
		v1.1l-1.3,0.8l-1.5-0.3l-1.8,0.9l-1.3,0.1l-0.9-2l-2.1-4.6l8.1-2.8l1.8-5.7l-1.2-2.1l0.1-1.2l0.8-1.2v-1.2l1.2-0.6l-0.5-0.4
		l0.2-1.9h1.4l1.2,2l1.5,1.1l2,0.4l1.6,0.5l1.2,1.7l0.7,1l1,0.4v0.6l-1,1.7l-0.4,0.8L720.8,261.9z M714.1,247.9l-0.4,0.5l-0.5-1
		l0.8-1l0.3,0.3L714.1,247.9z"/>
	<path class="st0" d="M352.5,300.3l-0.9-0.8L351,298l0.7-0.7l-0.7-0.2l-0.5-0.9l-1.3-0.8l-1.2,0.2l-0.5,0.9l-1.1,0.7l-0.6,0.1
		l-0.3,0.6l1.3,1.5l-0.7,0.4l-0.4,0.4l-1.3,0.1l-0.5-1.6l-0.4,0.5l-0.9-0.1l-0.5-1.1l-1.1-0.2l-0.7-0.3h-1.1l-0.1,0.6l-0.3-0.4
		l0.1-0.5l0.2-0.5l-0.1-0.5l0.4-0.3l-0.6-0.4v-1.1l1-0.2l1,1l-0.1,0.6l1.1,0.1l0.3-0.2l0.8,0.6l1.3-0.2l1.1-0.7l1.6-0.5l0.9-0.8
		l1.5,0.1l-0.1,0.3l1.5,0.1l1.2,0.5l0.9,0.8l1,0.8l-0.3,0.4l0.6,1.6l-0.5,0.8l-0.9-0.2L352.5,300.3z"/>
	<path class="st0" d="M374.9,367.5l-0.7,1.5l-1.4,0.7l-2.7-1.6l-0.2-1.1l-5.3-2.8l-4.8-3l-2.1-1.7l-1.1-2.4l0.4-0.8l-2.3-3.6l-2.7-5
		l-2.5-5.4l-1.1-1.2l-0.9-2l-2.1-1.8l-1.9-1.1l0.9-1.2l-1.3-2.5l0.8-1.9l2.1-1.7l0.3,1.1l-0.8,0.6l0.1,1l1.1-0.2l1.1,0.3l1.2,1.4
		l1.5-1.1l0.5-1.8l1.6-2.3l3.2-1.1l2.9-2.8l0.8-1.7l-0.4-2l0.7-0.3l1.8,1.3l0.9,1.3l1.3,0.7l1.6,2.8l2,0.3l1.5-0.7l1,0.5l1.6-0.2
		l2.1,1.3l-1.7,2.7l0.8,0.1l1.3,1.4l-2.4-0.1l-0.4,0.4l-2.2,0.5l-3.1,1.8l-0.2,1.3l-0.7,0.9l0.3,1.5l-1.6,0.8v1.1l-0.7,0.5l1.1,2.4
		l1.5,1.6l-0.6,1.2l1.8,0.1l1,1.5l2.4,0.1l2.2-1.6l-0.2,4.1l1.2,0.3l1.5-0.5l2.3,4.4l-0.6,0.9l-0.1,1.9l-0.1,2.3l-1.1,1.4l0.5,1
		l-0.6,0.9l1.2,2.3L374.9,367.5z"/>
	<path class="st0" d="M982,338l-0.8,0.3l-1.2-1l-1.2-1.7l-0.6-2l0.4-0.3l0.3,0.7l0.8,0.6l1.3,1.7l1.3,0.9L982,338z M971.5,334.4
		l-1.4,0.2l-0.4,0.8l-1.5,0.6l-1.4,0.6h-1.4l-2.2-0.8l-1.5-0.8l0.2-0.8l2.4,0.4l1.5-0.2l0.4-1.3l0.4-0.1l0.3,1.4l1.5-0.2l0.8-0.9
		l1.5-1l-0.3-1.6h1.6l0.5,0.4l-0.1,1.5L971.5,334.4z M958.6,339.5l2.4,1.8l1.8,2.9l1.5-0.1l-0.1,1.2l2.1,0.5l-0.8,0.5l2.9,1.1
		l-0.3,0.8l-1.8,0.2l-0.7-0.7l-2.3-0.3l-2.7-0.4l-2.1-1.7l-1.5-1.5l-1.4-2.4l-3.5-1.2l-2.3,0.8l-1.6,0.9l0.3,2l-2.1,0.9l-1.5-0.5
		l-2.8-0.1v-8.8v-8.7l4.7,1.8l5,1.5l1.8,1.4l1.5,1.4l0.4,1.6l4.5,1.7l0.7,1.4l-2.5,0.3L958.6,339.5z M974.6,331.8l-0.8,0.7l-0.5-1.6
		l-0.6-1l-1.2-0.9l-1.5-1.1l-2-0.9l0.8-0.6l1.5,0.8l0.9,0.6l1.1,0.6l1.1,1.1l1,0.9L974.6,331.8z"/>
	<path class="st0" d="M602.7,159.9l-1.1-2.8l0.2-1.5l-0.7-2.4l-1-1.6l0.8-1.2l-0.6-2.3l1.8-1.3l4.2-2.1l3.4-1.6l2.7,0.8l0.2,1.1
		l2.6,0.1l3.3,0.5l5-0.1l1.4,0.5l0.6,1.4l0.1,2l0.8,1.7v1.8l-1.6,0.9l0.8,2v1.9l1.3,3.7l-0.3,1.2l-1.3,0.5l-2.5,3.5l0.7,1.8
		l-0.6-0.2l-2.5-1.6l-1.9,0.6l-1.3-0.4l-1.6,0.9l-1.3-1.5l-1.1,0.6l-0.2-0.3l-1.2-2l-2-0.3l-0.3-1.3l-1.8-0.5l-0.4,1.1l-1.5-0.9
		l0.2-1.2l-2-0.4L602.7,159.9z"/>
	<path class="st0" d="M764.7,212.5l2,1.6l0.8,2.6l4.4,1.3l-2.6,2.8l-3,0.5l-4.1-0.8l-1.3,1.4l1,2.8l0.9,2.2l2.2,1.6l-2.3,1.8v2.2
		l-2.6,3.1l-1.7,3.1l-2.8,3.2l-3.1-0.2l-3,3.2l1.8,1.3l0.3,2.3l1.5,1.5l0.5,2.5h-5.9l-1.8,2l-2-0.7l-0.8-2.1l-2-2.3l-5,0.6h-4.4
		l-3.8,0.4l1-3.5l3.9-1.6l-0.2-1.4l-1.3-0.5l-0.1-2.7l-2.6-1.3l-1.1-1.9l-1.3-1.6l4.5,1.6l2.7-0.5l1.6,0.4l0.5-0.7l1.9,0.3l3.5-1.3
		l0.1-2.6l1.5-1.8h2l0.3-0.9l2.1-0.4l1,0.3l1.1-0.9l-0.1-1.9l1.1-1.9l1.7-0.8l-1.1-2.1l2.6,0.1l0.7-1.2l-0.1-1.3l1.3-1.4l-0.3-1.6
		l-0.6-1.4l1.6-1.4l2.9-0.7l3.1-0.4l1.4-0.6L764.7,212.5z"/>
	<path class="st0" d="M383.8,269.3l1.4,0.3l0.5,0.6l-0.7,0.7h-2l-1.6,0.1l-0.1-1.2l0.4-0.4L383.8,269.3z"/>
	<path class="st0" d="M658,228v1.9l-0.4,0.9l-1.3,0.4l0.1-0.8l0.7-0.4l-0.7-0.4l0.6-2.1L658,228z"/>
	<path class="st0" d="M537.9,196l1-0.9l1.1-0.5l0.7,1.8h1.6l0.5-0.4l1.6,0.1l0.8,1.8l-1.3,1v2.8l-0.4,0.5l-0.1,1.6l-1.2,0.3l1.1,2.1
		l-0.7,2.3l0.9,1l-0.4,0.9l-1,1.3l0.2,1.1l-1.1,0.9l-1.4-0.5l-1.4,0.4l0.4-2.6l-0.3-2.1l-1.2-0.3l-0.6-1.3l0.2-2.3l1.1-1.3l0.2-1.4
		l0.6-2.1l-0.1-1.5l-0.6-1.3L537.9,196z"/>
	<path class="st0" d="M393.5,380.8l1.1-3.5l0.1-1.5l1.3-2.5l4.7-0.8h2.5l2.5,1.5v0.9l0.8,1.6l-0.2,3.9l2.8,0.6l1.1-0.6l1.8,0.8
		l0.5,0.9l0.3,2.7l0.3,1.1l1,0.1l1-0.5l1,0.5v1.6l-0.4,1.8l-0.5,1.8l-0.4,2.6l-2.4,2.3l-2.1,0.5l-3-0.5l-2.7-0.8l2.6-4.5l-0.4-1.3
		l-2.8-1.1l-3.3-2.1l-2.2-0.4L393.5,380.8z"/>
	<path class="st0" d="M699.1,251.3l-0.2-2.1l0.7-1.6l0.7-0.3l0.8,0.9v1.7l-0.6,1.7l-0.8,0.2L699.1,251.3z"/>
	<path class="st0" d="M623.4,173.2l1.2-0.9l1.7,0.4h1.7l1.3,1l0.9-0.6l2-0.4l0.7-0.9h1.1l0.8,0.4l0.8,1.2l0.8,1.7l1.6,2.3l0.1,1.7
		l-0.3,1.6l0.5,1.8l1.2,0.7l1.3-0.6l1.2,0.6l0.1,1l-1.3,0.8l-0.8-0.4l-0.8,4.5l-1.6-0.4l-2-1.4l-3.2,0.9l-1.3,1l-4-0.2l-2.1-0.6
		l-1,0.3l-0.8-1.5l-0.5-0.6l0.6-0.6l-0.7-0.5l-0.8,0.9l-1.6-1.1l-0.2-1.6l-1.6-0.9l-0.3-1.2l-1.5-1.5l2.2-0.7l1.6-2.6l1.3-2.7
		L623.4,173.2z"/>
	<path class="st0" d="M618.5,182.9l1.6,0.9l0.2,1.6l1.6,1.1l0.8-0.9l0.7,0.5l-0.6,0.6l0.5,0.6l-0.7,0.9l0.2,1.4l1.3,1.6l-1,1.1
		l-0.5,1.2l0.3,0.4l-0.5,0.5l-1.2,0.1l-0.9,0.2l-0.1-0.3l0.3-0.4l0.3-0.9h-0.4l-0.6-0.6l-0.4-0.2l-0.3-0.6l-0.5-0.2l-0.4-0.5
		l-0.5,0.2l-0.4,1.2l-0.6,0.3l0.2-0.3l-1-0.8l-0.9-0.4l-0.4-0.5L614,190l0.6-0.2l0.4-1.8l-1.3-1.4l0.7-1.6h-1l1-1.4l-0.8-1.1
		L613,181l2.1-1l1.7,0.2l1.5,1.5L618.5,182.9z"/>
	<path class="st0" d="M644.2,322.7l1.1,1.5l-0.2,1.6l-0.8,0.3l-1.4-0.2l-0.8,1.5l-1.6-0.2l0.3-1.5l0.4-0.2l0.1-1.6l0.8-0.8l0.7,0.3
		L644.2,322.7z"/>
	<path class="st0" d="M677.5,275.4l-0.3-1.2l-0.8-0.9l-0.2-1.1l-1.4-1l-1.4-2.4l-0.8-2.3l-1.9-2l-1.2-0.5l-1.8-2.7l-0.3-2l0.1-1.7
		l-1.5-3.2l-1.3-1.1l-1.5-0.6l-0.9-1.6l0.1-0.7l-0.8-1.5l-0.8-0.7l-1-2.2l-1.6-2.4l-1.4-2.1h-1.3l0.4-1.7l0.1-1.1l0.3-1.2l3,0.5
		l1.2-0.9l0.6-1.1l2.1-0.4l0.4-1l0.9-0.5l-2.7-3.1l5.4-1.6l0.5-0.5l3.3,0.9l4,2.2l7.6,6.2l5,0.3l2.4,0.3l0.7,1.4l1.9-0.1l1.1,2.6
		l1.3,0.7l0.5,1.1l1.8,1.3l0.2,1.2l-0.3,1l0.3,1l0.8,0.8l0.4,1l0.4,0.7l0.8,0.6l0.8-0.2l0.5,1.1l0.1,0.7l1,3l8.1,1.5l0.5-0.6
		l1.2,2.1l-1.8,5.7l-8.1,2.8l-7.8,0.9l-2.5,1.3l-1.9,3l-1.3,0.5L688,273l-1,0.1l-2.6-0.3l-0.5-0.3l-3.1,0.1l-0.7,0.3l-1.1-0.7
		l-0.7,1.4l0.3,1.2L677.5,275.4z"/>
	<path class="st0" d="M998.8,347.9l0.8,0.9h-1.9l-1-1.7l1.6,0.7L998.8,347.9z M995.4,346.2l-1,0.1l-1.7-0.3l-0.6-0.4l0.2-1.1
		l1.8,0.4l0.9,0.6L995.4,346.2z M997.6,345.5l-0.4,0.5l-2-2.4l-0.6-1.6h0.9l1,2.2L997.6,345.5z M992.8,342.1l0.1,0.5l-2.1-1.1
		l-1.5-1l-1-0.9l0.4-0.3l1.2,0.6l2.2,1.2L992.8,342.1z M986.5,339.4l-0.5,0.1l-1.2-0.6l-1.1-1.1l0.1-0.5l1.6,1.1L986.5,339.4z"/>
	<path class="st0" d="M599.4,178.6l2.2,0.3l1.3-0.9l2.3-0.1l0.5-0.7h0.5l0.5,1.3l-2.1,1l-0.3,1.6l-0.9,0.4v1.1l-1.1-0.1l-0.9-0.6
		l-0.5,0.6l-1.9-0.1l0.6-0.4l-0.6-1.6L599.4,178.6z"/>
	<path class="st0" d="M613,166.6l0.2,0.3l1.1-0.6l1.3,1.5l1.6-0.9l1.3,0.4l1.9-0.6l2.5,1.6l-0.7,1.1l-0.5,1.6l-0.6,0.4l-2.9-1.2
		l-0.9,0.2l-0.6,1l-1.3,0.5l-0.3-0.3l-1.3,0.6l-1.1,0.1l-0.2,0.8l-2.3,0.5l-1-0.4l-1.4-1l-0.3-1.4l0.2-0.5l0.4-0.9l1.2,0.1l0.9-0.4
		l0.1-0.4l0.5-0.2l0.2-0.9l0.6-0.2l0.4-0.7L613,166.6L613,166.6z"/>
	<path class="st0" d="M531.5,301.5l-0.7-0.2l-1.9-1.1l-1.4-1.4l-0.5-1l-0.3-2l1.4-1.2l0.3-0.8l0.5-0.6l0.8-0.1l0.6-0.5h2.2l0.8,1
		l0.6,1.1l-0.1,0.8l0.4,0.7v1l0.7-0.1l-1.3,1.3l-1.2,1.5l-0.1,0.8L531.5,301.5z"/>
	<path class="st0" d="M517.3,283l-1.1-2.1l-1.3-1l1.2-0.5l1.3-2l0.6-1.4l0.9-0.9l1.3,0.2l1.3-0.6h1.5l1.3,0.8l1.8,0.7l1.6,2l1.8,1.9
		l0.1,1.7l0.5,1.6l1,0.8l0.2,1.1l-0.1,0.9l-0.4,0.1l-1.5-0.2l-0.2,0.3l-0.6,0.1l-1.9-0.7h-1.3l-5-0.1l-0.7,0.3l-0.9-0.1l-1.4,0.5
		l-0.4-2.1l2.5,0.1l0.7-0.4h0.5l1-0.6l1.2,0.6h1.2l1.2-0.6l-0.5-0.8l-0.9,0.5H523l-1.1-0.7h-0.8l-0.6,0.6L517.3,283z"/>
	<path class="st0" d="M666.7,224.8l-5.3,3.4l-3-1.3h-0.1l0.4-0.5v-1.3l0.7-1.8l1.5-1.2l-0.4-1.3l-1.2-0.2l-0.2-2.5l0.7-1.4l0.7-0.7
		l0.7-0.7l0.2-1.9l0.9,0.6l3-0.9l1.4,0.6h2.2l3.1-1.3l1.5,0.1l3.1-0.5l-1.4,2.1l-1.5,0.8l0.3,2.4l-1,4L666.7,224.8z"/>
	<path class="st0" d="M648.6,394l-0.5,1.3l-1.6,0.3l-1.6-1.6v-1l0.7-1.1l0.3-0.9l0.8-0.2l1.3,0.5l0.4,1.3L648.6,394z"/>
	<path class="st0" d="M567.3,303.2l-2.2,0.6l-0.6-0.9l-0.7-1.7l-0.2-1.3l0.6-2.4l-0.7-1l-0.3-2.1v-2l-1.1-1.4l0.2-0.9l2.4,0.1
		l-0.3,1.4l0.8,0.8l0.9,1l0.1,1.3l0.5,0.6l-0.1,6.2L567.3,303.2z"/>
	<path class="st0" d="M753.5,201.8l-1,1.1l-2.9-0.6l-0.3,2l2.9-0.3l3.3,1.1l5.1-0.5l0.7,3.2l0.9-0.4l1.6,0.8l-0.1,1.3l0.4,1.9h-2.8
		l-1.8-0.3l-1.7,1.5l-1.2,0.3l-0.9,0.7l-1.1-1.1l0.3-2.8l-0.8-0.2l0.3-1l-1.5-0.8l-1.2,1.2l-0.3,1.4L751,211l-1.6-0.1l-0.9,1.5
		l-0.9-0.6l-2,1.1l-0.8-0.4l1.5-3.4l-0.6-2.6l-2-0.8l0.7-1.5l2.3,0.2l1.3-1.9l0.8-2.3l3.6-0.8l-0.5,1.6l0.4,1L753.5,201.8z"/>
	<path class="st0" d="M898.8,343.6l0.3-0.6l2.3-0.6l1.9-0.1l0.8-0.3l1,0.3l-1,0.7l-2.8,1.2L899,345v-0.8L898.8,343.6z"/>
	<path class="st0" d="M727.1,217.4l-0.2-2.8l-2-0.1l-3.1-3l-2.2-0.4l-3-1.7l-1.9-0.3l-1.2,0.6l-1.8-0.1l-1.9,1.9l-2.4,0.6l-0.5-2.4
		l0.4-3.6l-2.1-1.2l0.7-2.4l-1.8-0.2l0.6-3l2.5,0.9l2.4-1.1l-2-2.1l-0.8-2.1l-2.2,0.9l-0.3,2.6l-0.8-2.3l1.2-1.2l3-0.8l1.8,1
		l1.9,2.8l1.5-0.1h3l-0.4-1.8l2.3-1.3l2.3-2.1l3.6,1.9l0.3,2.9l1,0.7l2.9-0.2l0.9,0.6l1.3,3.6l3.1,2.4l1.8,1.6l2.8,1.7l3.6,1.5
		l-0.1,2.1l-0.8-0.1l-1.3-0.9l-0.4,1.2l-2.3,0.6l-0.5,2.7l-1.5,1l-2.1,0.5l-0.6,1.5l-2,0.4L727.1,217.4z"/>
	<path class="st0" d="M587.8,234.5l-1.2-5.6l-1.6-1.3v-0.8l-2.2-1.9l-0.2-2.4l1.7-1.8l0.6-2.7l-0.4-3.1l0.5-1.7l2.9-1.4l1.9,0.4
		l-0.1,1.7l2.3-1.2l0.2,0.6l-1.3,1.6v1.5l0.9,0.8l-0.4,2.8l-1.8,1.6l0.5,1.8l1.4,0.1l0.7,1.5l1,0.5L593,228l-1.3,0.9l-0.8,1
		l-1.8,1.2l0.3,1.3l-0.2,1.3L587.8,234.5z"/>
	<path class="st0" d="M890.2,252.4l-1.6,4.6l-1.2,2.4L886,257l-0.3-2.2l1.6-2.9l2.2-2.2l1.2,0.9L890.2,252.4z"/>
	<path class="st0" d="M653.5,322.2l0.5,0.3l9.8,5.5l0.2,1.6l3.9,2.7l-1.2,3.3l0.2,1.5l1.7,1l0.1,0.7l-0.7,1.6l0.2,0.8l-0.2,1.3
		l0.9,1.7l1.1,2.7l1,0.6l-2.2,1.5l-2.9,1.1h-1.6l-1,0.8l-1.9,0.1l-0.7,0.4l-3.2-0.8l-2,0.2l-0.7-3.8l-0.9-1.3l-0.5-0.8l-2.6-0.5
		l-1.5-0.8l-1.7-0.5l-1.1-0.5l-1.1-0.7l-1.5-3.4l-1.6-1.5l-0.5-1.6l0.3-1.4l-0.5-2.5l1.1-0.1l1-1l1.1-1.4l0.7-0.6v-0.9l-0.6-0.6
		l-0.2-1.1l0.8-0.3l0.2-1.6l-1.1-1.5l1-0.3h3L653.5,322.2z"/>
	<path class="st0" d="M647.9,155.6l1,0.2l0.7-1l0.8,0.2l2.8-0.4l1.7,2.5l-0.7,0.9l0.2,1.3l2.2,0.2l1,1.9l-0.1,0.8l3.4,1.5l2.1-0.7
		l1.7,2h1.6l4,1.3v1.2l-1.1,2.1l0.6,2.2l-0.4,1.3l-2.6,0.3l-1.4,1.1l-0.1,1.8l-2.2,0.3l-1.8,1.3l-2.5,0.2l-2.3,1.5l-1.3,1l1.4,1.4
		l1.3,0.9l2.8-0.2l-0.6,1.3l-3,0.6l-3.7,2.2l-1.5-0.8l0.6-1.8l-2.9-1.1l0.5-0.7l3-1.6l-0.4-0.8l-0.4,0.4l-0.4-0.2l-4.2-1l-0.2-1.4
		l-2.5,0.5l-1,2.1l-2,2.9l-1.2-0.6l-1.3,0.6l-1.2-0.7l0.7-0.4l0.5-1.3l0.7-1.2L640,179l0.6-0.3l0.3,0.5l1.6,0.1l0.7-0.3l-0.5-0.4
		l0.2-0.6l-0.9-1l-0.4-1.6l-1-0.6l0.2-1.4l-1.2-1.1l-1.1-0.1l-2-1.3l-1.8,0.4l-0.6,0.6H633l-0.7,0.9l-2,0.4l-0.9,0.6l-1.3-1h-1.7
		l-1.7-0.4l-1.2,0.9l-0.2-1.1l-1.5-1.1l0.5-1.6l0.7-1.1l0.6,0.2l-0.7-1.8l2.5-3.5l1.3-0.5l0.3-1.2l-1.3-3.7l1.3-0.2l1.5-1.2l2.1-0.1
		l2.7,0.4l3,1l2.1,0.1l1,0.6l1-0.8l0.7,1l2.4-0.2l1.1,0.4l0.2-2.2l0.8-1L647.9,155.6z"/>
	<path class="st0" d="M648.1,322.4h-3l-1,0.3l-1.6,0.8l-0.7-0.3v-2l0.6-1l0.2-2.1l0.6-1.2l1-1.4l1-0.7l0.9-1l-1.1-0.4l0.2-3.1
		l1.1-0.7l1.7,0.6l2.2-0.6h1.9l1.7-1.2l1.3,1.9l0.3,1.3l1.2,3.1l-1,2l-1.3,1.8l-0.8,1.1v2.8L648.1,322.4z"/>
	<path class="st0" d="M407.1,404.6l1.8-0.3l2.7,2.4l1-0.1l2.8,2l2.1,1.8l1.6,2.2l-1.2,1.5l0.8,1.8l-1.2,2l-3,1.8l-2-0.6l-1.5,0.4
		l-2.5-1.3l-1.8,0.1l-1.6-1.8l0.2-2.1l0.6-0.7v-3.2l0.7-3.2L407.1,404.6z"/>
	<path class="st0" d="M741.4,211.7l0.1-2.1l-3.6-1.5l-2.8-1.7l-1.8-1.6l-3.1-2.4l-1.3-3.6l-0.9-0.6l-2.9,0.2l-1-0.7l-0.3-2.9
		l-3.6-1.9l-2.3,2.1l-2.3,1.3l0.4,1.8h-3l-0.1-13.6l6.9-2.3l0.5,0.3l4.2,2.7l2.2,1.4l2.6,3.4l3.2-0.5l4.6-0.3l3.2,2.7l-0.2,3.6h1.3
		l0.5,2.9l3.4,0.1l0.7,1.7h1l1.2-2.6l3.5-2.5l1.5-0.7l0.8,0.4l-2.3,2.3l2,1.3l1.9-0.9l3.2,1.9l-3.5,2.5l-2-0.4l-1.1,0.1l-0.4-1
		l0.6-1.6l-3.6,0.8l-0.8,2.3l-1.3,1.9l-2.3-0.2l-0.7,1.5l2,0.8l0.6,2.6l-1.5,3.4l-2-0.7L741.4,211.7z"/>
	<path class="st0" d="M370.2,288l-0.1,0.6l-1.6,0.3l0.9,1.2v1.4l-1.2,1.6l1,2.1l1.2-0.2l0.6-2l-0.8-1l-0.2-2l3.4-1.1l-0.4-1.3
		l0.9-0.9l1,1.9h1.9l1.8,1.5l0.1,0.9h2.4l2.9-0.3l1.5,1.2l2.1,0.3l1.5-0.9V291l3.3-0.2h3.2l-2.3,0.8l0.9,1.3l2.2,0.2l2,1.3l0.4,2.2
		l1.4-0.1l1.1,0.6l-2.1,1.6l-0.2,1l0.9,1l-0.7,0.5l-1.7,0.4l0.1,1.3l-0.7,0.7l1.8,2l0.4,0.8l-1,1l-3,1l-1.9,0.4l-0.8,0.6l-2.1-0.7
		l-2-0.4l-0.5,0.3l1.2,0.7l-0.1,1.8l0.4,1.8l2.3,0.2l0.1,0.6l-1.9,0.8l-0.3,1.1l-1.1,0.4l-2,0.6l-0.5,0.8l-2.1,0.2l-1.5-1.4
		l-0.8-2.7l-0.7-0.9l-1-0.6l1.4-1.3l-0.1-0.6l-0.8-0.8l-0.5-1.8l0.2-1.9l0.6-0.9l0.5-1.4l-1-0.5l-1.5,0.3l-1.9-0.2l-1.1,0.3
		l-1.9-2.3l-1.6-0.4l-3.5,0.3l-0.6-0.9l-0.7-0.2l-0.1-0.6l0.3-1l-0.2-1.1l-0.6-0.6l-0.4-1.3l-1.4-0.2l0.7-1.6l0.3-1.9l0.8-1l1-0.8
		l0.7-1.4L370.2,288z"/>
	<path class="st0" d="M705.3,274.5l-2,0.8l-0.5,1.2l-0.1,1l-2.7,1.2l-4.3,1.3l-2.4,2l-1.2,0.1l-0.8-0.2l-1.6,1.1l-1.7,0.5l-2.3,0.1
		l-0.7,0.1l-0.6,0.7l-0.7,0.2l-0.4,0.7l-1.3-0.1l-0.9,0.4l-1.9-0.1l-0.7-1.6l0.1-1.5l-0.4-0.8l-0.5-2l-0.8-1.2l0.5-0.1l-0.3-1.3
		l0.3-0.5l-0.1-1.2l1.2-0.9l-0.3-1.2l0.7-1.4l1.1,0.7l0.7-0.3l3.1-0.1l0.5,0.3l2.6,0.3l1-0.1l0.7,0.9l1.3-0.5l1.9-3l2.5-1.3l7.8-1.1
		l2.1,4.6L705.3,274.5z"/>
	<path class="st0" d="M647.1,401.6l-0.5,0.4l-1.1,1.6l-0.8,1.6l-1.5,2.2l-3,3.3l-1.9,1.9l-2,1.5l-2.8,1.3l-1.4,0.2l-0.3,0.9
		l-1.6-0.5l-1.3,0.6L626,416l-1.6,0.4l-1.1-0.2l-2.8,1.3l-2.3,0.5l-1.7,1.2l-1.2,0.1l-1.2-1.2H613l-1.2-1.5l-0.1,0.5l-0.4-0.9v-1.9
		l-0.9-2.1l0.9-0.6l-0.1-2.4l-1.8-2.9l-1.3-2.6l0,0l-1.9-4l1.3-1.5l1.1,0.8l0.5,1.3l1.2,0.2l1.7,0.6l1.5-0.2l2.4-1.6v-11.1l0.7,0.4
		l1.6,2.8l-0.3,1.8l0.6,1.1l1.9-0.3l1.3-1.3l1.3-0.9l0.7-1.4l1.3-0.7l1.1,0.4l1.3,0.8l2.2,0.1l1.7-0.7l0.3-0.9l0.5-1.4l1.5-0.2
		l0.8-1.1l0.9-2l2.4-2.2l3.8-2.1h1.1l1.3,0.5l0.9-0.4l1.4,0.3l1.3,4.1l0.7,2.1l-0.5,3.3l0.2,1.1l-1.4-0.5l-0.8,0.2l-0.3,0.9
		l-0.8,1.2v1l1.6,1.6l1.6-0.3l0.5-1.3h2l-0.6,2.2l-0.3,2.5l-0.7,1.4L647.1,401.6z M640.3,400.7l-1.2-0.9l-1.3,0.6l-1.5,1.2l-1.4,2
		l2,2.4l1-0.3l0.5-1l1.5-0.5l0.5-1l0.8-1.5L640.3,400.7z"/>
	<path class="st0" d="M650.5,344.5l1.3,1.2l0.7,2.3l-0.5,0.7l-0.5,2.3l0.5,2.3l-0.8,1l-0.8,2.5l1.4,0.7l-8.2,2.3l0.3,2l-2,0.4
		l-1.5,1.1l-0.3,1l-1,0.2l-2.3,2.3l-1.5,1.8l-0.9,0.1l-0.9-0.3l-3-0.3l-0.5-0.2v-0.2l-1.1-0.6l-1.8-0.2l-2.2,0.6l-1.8-1.9l-1.8-2.3
		l0.1-8.8h5.6l-0.2-1l0.4-1l-0.5-1.3l0.3-1.3l-0.3-0.9l0.9,0.1l0.2,0.9l1.3-0.1l1.7,0.3l0.9,1.2l2.2,0.4l1.7-0.9l0.6,1.4l2.1,0.4
		l1,1.2l1.1,1.5h2.1l-0.2-3l-0.7,0.5l-1.9-0.9l-0.7-0.5l0.3-2.7l0.5-3.2l-0.6-1.2l0.8-1.7l0.7-0.3l3.6-0.5l1.1,0.3l1.1,0.7l1.1,0.5
		l1.7,0.5L650.5,344.5z"/>
	<path class="st0" d="M645.3,310.3l-0.2,3.1l1.1,0.4l-0.9,1l-1,0.7l-1,1.4l-0.6,1.2l-0.2,2.1l-0.6,1v2l-0.8,0.8l-0.1,1.6l-0.4,0.2
		l-0.3,1.5l0.7,1.2l0.2,3.2l0.5,2.5l-0.3,1.4l0.5,1.6l1.6,1.5l1.5,3.4l-1.1-0.3l-3.6,0.5l-0.7,0.3l-0.8,1.7l0.6,1.2l-0.5,3.2
		l-0.3,2.7l0.7,0.5l1.9,1.1l0.7-0.5l0.2,3H640l-1.1-1.5l-1-1.2l-2.1-0.4l-0.6-1.5l-1.7,0.9l-2.2-0.4l-0.9-1.2L629,350l-1.3,0.1
		l-0.2-0.9l-0.9-0.1l-1.2-0.2l-1.7,0.4l-1.2-0.1l-0.7,0.3l0.1-3.2l-0.9-1l-0.2-1.7l0.4-1.6l-0.5-1v-1.7h-3.3l0.2-1h-1.4l-0.1,0.5
		l-1.7,0.1l-0.7,1.6l-0.4,0.7l-1.5-0.4l-0.9,0.4l-1.8,0.2l-1-1.4l-0.6-0.9l-0.8-1.6l-0.7-2h-7.9l-1,0.3h-0.8l-1.1,0.4l-0.4-0.8
		l0.7-0.3l0.1-1.2l0.4-0.7l1-0.6l0.7,0.3l0.9-1h1.5l0.2,0.8l1,0.5l1.6-1.7l1.6-1.3l0.7-0.9l-0.1-2.2l1.2-2.6l1.2-1.4l1.8-1.3
		l0.3-0.9l0.1-1l0.4-0.9l-0.1-1.5l0.3-2.4l0.5-1.7l0.8-1.4l0.2-1.6l0.2-1.9l1.1-1.4l1.4-0.9l2.2,0.9l1.7,1l2,0.3l2,0.5l0.8-1.6
		l0.4-0.2l1.2,0.3l3-1.3l1.1,0.6l0.9-0.1l0.4-0.6l1-0.2l2,0.3l1.7,0.1l0.9-0.3l1.6,2.2l1.2,0.3l0.7-0.5l1.3,0.2l1.5-0.6l0.6,1.1
		L645.3,310.3z"/>
	<path class="st0" d="M539.5,299.1l-0.8-0.1l-0.5,1.1h-0.8l-0.5-0.6l0.2-1.1l-1.1-1.6l-0.7,0.3l-0.6,0.1l-0.7,0.1v-1l-0.4-0.7
		l0.1-0.8l-0.6-1.1l-0.8-1h-2.2l-0.6,0.5l-0.8,0.1l-0.5,0.6l-0.3,0.8l-1.4,1.2l-1.2-1.6l-1-1.1l-0.7-0.4l-0.7-0.5l-0.3-1.2l-0.4-0.6
		l-0.8-0.5l1.2-1.3h0.8l0.7-0.5h0.6l0.4-0.4L525,287l0.3-0.3v-0.9h1.3l1.9,0.7l0.6-0.1l0.2-0.3l1.5,0.2l0.4-0.1l0.2,1h0.4l0.7-0.4
		l0.4,0.1l0.8,0.7l1.2,0.2l0.7-0.6l0.9-0.4l0.6-0.4l0.5,0.1l0.6,0.6l0.3,0.8l1.1,1.1l-0.6,0.7l-0.1,0.9l0.6-0.3l0.3,0.3l-0.1,0.8
		l0.8,0.8l-0.5,0.2l-0.2,0.9l0.6,1.1l0.7,2.2l-1,0.3l-0.3,0.4l0.2,0.5v1.2L539.5,299.1L539.5,299.1z"/>
	<path class="st0" d="M587.8,317l-0.5-0.4l0.9-3l4.4,0.1v3.2h-3.9L587.8,317z"/>
	<path class="st0" d="M554.7,293.8l-1.8-0.7l-1.3,0.1l-0.9,0.7l-1.2-0.6l-0.5-0.9l-1.2-0.6l-0.2-1.6l0.7-1.2l-0.1-0.9l2.1-2.3
		l0.4-1.9l0.7-0.7l1.3,0.4l1.1-0.6l0.4-0.7l2.1-1.2l0.5-0.9l2.5-1.1l1.5-0.4l0.7,0.5h1.7l-0.2,1.3l0.4,1.3l1.5,1.8l0.1,1.3l3.1,0.6
		l-0.1,1.9l-0.6,0.8l-1.3,0.3l-0.5,1.2l-0.9,0.3l-2.4-0.1l-1.3-0.2l-0.9,0.4L559,290l-4.7,0.1l-0.1,1.5L554.7,293.8z"/>
	<path class="st0" d="M623.3,187.3l0.8,1.5l1-0.3l2.1,0.6l4,0.2l1.3-1l3.2-0.9l2,1.4l1.6,0.4l-1.4,1.5l-1,2.6l0.9,2.1l-2.3-0.5
		l-2.8,1.1v1.8l-2.5,0.3l-1.9-1.2l-2.2,1l-2-0.1l-0.2-2.4l-1.3-1.2l0.5-0.5l-0.3-0.4l0.5-1.2l1-1.1l-1.3-1.6l-0.2-1.4L623.3,187.3z"
		/>
	<path class="st0" d="M554.6,306.3h-1.2l-1.9-0.5h-1.7l-3.2,0.5l-1.9,0.8l-2.7,1h-0.5l0.2-2.2l0.3-0.3l-0.1-1.1l-1.1-1.1l-0.8-0.2
		l-0.8-0.7l0.6-1.2l-0.3-1.3l0.1-0.8h0.5l0.2-1.2l-0.2-0.5l0.3-0.4l1-0.3l-0.7-2.2l-0.6-1.1l0.2-0.9l0.5-0.2l0.3-0.2l0.8,0.4h2.1
		l0.5-0.8l0.5,0.1l0.8-0.3l0.4,1.2l0.6-0.4l1.1-0.4l1.2,0.6l0.5,0.9l1.2,0.6l0.9-0.7l1.3-0.1l1.8,0.7l0.7,3.9l-1.1,2.3l-0.7,3
		l1.2,2.3L554.6,306.3z"/>
	<path class="st0" d="M377.4,486.2v10.1h2.9l1.6,0.1l-0.9,1.9l-2.3,1.5l-1.3-0.1l-1.6-0.4l-2-1.4l-2.8-0.7l-3.4-2.6l-2.8-2.5l-3.7-5
		l2.2,0.9l3.8,3l3.6,1.6l1.4-2.1l0.9-3.1l2.5-1.8L377.4,486.2z M378.5,378.6l1.1,4l1.9-0.4l0.3,0.7l-0.9,3l-3,1.5l0.1,4.9l-0.6,1
		l0.8,1.2l-1.9,1.9l-1.8,2.8l-1,2.8l0.3,3l-1.7,3.2l1.2,5.5l0.7,0.6v3l-1.5,3.2l0.1,2.8l-2,2.2v3.1l0.8,3.3L370,433l-0.7,3.1
		l-0.6,3.6l0.4,4.3l-1.1,0.7l0.6,4.2l1.2,1.4l-0.9,1.6l1.3,0.8l0.3,1.4l-1.2,0.7l0.3,2.2l-1,5.1l-1.4,3.4l0.3,2l-0.9,2.6l-2,1.8
		l0.2,4.4l1,1.5l1.8-0.3v3.2l1.1,2.5l6.5,0.6l2.5,0.7h-2.4l-1.3,1.1l-2.4,1.6l-0.4,4.2l-1.1,0.1l-3-1.5l-3.2-3.2l0,0l-3.4-2.5
		l-0.9-2.8l0.8-2.5l-1.4-2.8l-0.4-7l1.1-3.9l2.8-3.1l-4.1-1.1l2.6-3.4l0.9-6.3l3,1.3l1.4-7.6l-1.8-1l-0.9,4.6l-1.7-0.5l0.9-5.2
		l0.9-6.6l1.2-2.4l-0.8-3.4l-0.2-3.8l1.1-0.1l1.6-5.4l1.9-5.2l1.1-4.8l-0.6-4.7l0.8-2.6l-0.3-3.8l1.6-3.7l0.5-5.8l0.9-6.1l0.9-6.5
		l-0.2-4.7l-0.6-4l1.4-0.7l0.7-1.4l1.3,1.9l0.4,2l1.4,1.2l-0.9,2.8L378.5,378.6z"/>
	<path class="st0" d="M565.1,303.8l-4.2,1.6l-1.5,0.9l-2.4,0.8l-2.4-0.8l0.1-1.1l-1.2-2.3l0.7-3l1.1-2.3l-0.7-3.9l-0.4-2l0.1-1.5
		l4.7-0.1l1.2,0.2l0.9-0.4l1.3,0.2l-0.2,0.9l1.1,1.4v2l0.3,2.1l0.7,1l-0.6,2.4l0.2,1.3l0.7,1.7L565.1,303.8z"/>
	<path class="st0" d="M436.3-102.4l9-13.1l9.5,1l3.4-8.6l9.5-2.3l21.5,3l16.9,17.8l-5,8l-10.3,0.9l-14.5,1.9l1.4,3.5l9.5-2.2
		l8.1,6.6l5.2-5.9l2.2,6.9l-3,10.5l6.9-6.7l13.2-7.2l8.1,3.7l1.5,7.8l-11,12.2l-1.5,3.8l-8.6,2.8l6.2,0.8l-3.1,11l-2.2,9.2l0.1,14.7
		l3.2,8l-4.2,0.5l-4.4,3.7l5,6.1l0.6,9.2l-2.9,1l3.4,8.7l-6,0.7l3.1,4l-0.9,3.4l-3.8,1.5h-3.8l3.4,6.2v4l-5.3-3.7l-1.4,2.4l3.6,2.2
		l3.5,5.3l1,6.7l-4.8,1.6l-2-3.2l-3.3-4.8l0.9,5.6l-3.1,4.2l7.1,0.3l3.7,0.4l-7.2,6.8l-7.3,5.9l-7.9,2.5h-3l-2.8,2.8l-3.8,7.3
		l-5.8,4.7l-1.9,0.3l-3.6,1.6l-3.9,1.5l-2.3,4v4.4l-1.4,4l-4.4,4.8l1.1,4.5l-1.2,4.7l-1.4,5.3l-3.8,0.3l-4-4.4h-5.4l-2.6-3.1
		l-1.8-5.6l-4.7-7.4l-1.4-4l-0.4-5.7l-3.7-6l1-5l-1.8-2.4l2.7-8.3l4-2.7l1.1-3.1l0.6-6l-3.1,2.8l-1.5,1.1l-2.4,1.1L415,56l-0.2-5.3
		l1.1-4.3l2.5-0.1l5.5,2.2l-4.6-5.2l-2.4-2.9l-2.7,1.2l-2.3-2.1l3-8.2l-1.6-3.4l-2.1-6.5L408,10.9l-3.4-4V2.5L397.3-4l-5.7-0.8
		l-7.2,0.4l-6.6,0.8l-3.1-3.6l-4.7-7.4l7.1-3.8l5.4-0.6L371-22.2l-6.1-5.2l0.4-5.1l10.2-6.6l9.9-6.9l1-5.4l-7.3-5.5l2.3-6.4
		l9.3-11.8l3.9-1.9l-1.1-8.2l6.4-5l8.3-3.1l8.3-0.2l2.9,6.1l7.1-10.9L433-91l3.8,1.5l5.6,6.2L436-93.7L436.3-102.4z"/>
	<path class="st0" d="M606.2,335.4l0.7,2l0.8,1.6l0.6,0.9l1,1.4l1.8-0.2l0.9-0.4l1.5,0.4l0.4-0.7l0.7-1.6l1.7-0.1l0.1-0.5h1.4
		l-0.2,1h3.3v1.7l0.5,1l-0.3,1.6l0.2,1.7l0.9,1l-0.1,3.2l0.7-0.3l1.2,0.1l1.7-0.4l1.2,0.2l0.3,0.9l-0.3,1.3l0.5,1.3l-0.4,1l0.2,1
		h-5.6l-0.1,8.8l1.8,2.3l1.8,1.8l-5,1.1l-6.5-0.4l-1.9-1.3l-10.9,0.1l-0.4,0.2l-1.6-1.3l-1.8-0.1l-1.6,0.5l-1.3,0.5l-0.3-1.8
		l0.4-2.5l0.9-2.5l0.1-1.2l0.9-2.5l0.6-1.1l1.5-1.8l0.9-1.2l0.3-2l-0.1-1.5l-0.8-1l-0.7-1.6l-0.7-1.6l0.1-0.6l0.8-1.1l-0.8-2.6
		l-0.5-1.8l-1.3-1.7l0.3-0.5l1.1-0.4h0.8l0.9-0.3H606.2L606.2,335.4z M595.8,334.9l-0.7,0.3l-0.7-2l1.1-1.2l0.8-0.5l1,0.9l-1,0.6
		l-0.4,0.7L595.8,334.9z"/>
	<path class="st0" d="M385.9,497.9l-2.5,0.2l-1.3-1.7l-1.6-0.1h-2.9v-10.1l1,2.1l1.3,3.4l3.5,2.8l3.8,1.2L385.9,497.9z M387.3,380.3
		l1.6,2.1l1-2.3l3.1,0.1l0.4,0.6l5,4.7l2.2,0.4l3.3,2.2l2.8,1.1l0.4,1.3l-2.6,4.5l2.7,0.8l3,0.5l2.1-0.5l2.4-2.3l0.4-2.6l1.3-0.6
		l1.4,1.7l-0.1,2.4l-2.3,1.7l-1.8,1.2l-3,3l-3.6,4.2l-0.7,2.5l-0.7,3.2v3.2l-0.6,0.7l-0.2,2.1l-0.2,1.7l3.4,2.8l-0.3,2.2l1.7,1.5
		l-0.1,1.6l-2.6,4.3l-4,1.8l-5.4,0.7l-3-0.4l0.6,2.1l-0.5,2.6l0.5,1.8l-1.6,1.3l-2.8,0.5l-2.6-1.3l-1,0.9l0.4,3.6l1.8,1.1l1.5-1.1
		l0.8,1.9l-2.5,1.2l-2.2,2.3l-0.4,3.8l-0.6,2h-2.5l-2.1,2l-0.8,2.9l2.7,2.9l2.6,0.8l-0.9,3.6l-3.2,2.3l-1.8,4.8l-2.5,1.6l-1.1,2
		l0.9,4.5l1.8,2.5l-1.1-0.2l-2.5-0.7l-6.5-0.6l-1.1-2.5v-3.2l-1.8,0.3l-1-1.5l-0.2-4.4l2.1-1.8l0.9-2.6l-0.3-2l1.4-3.4l1-5.1
		l-0.3-2.2l1.2-0.7l-0.3-1.4l-1.3-1l0.9-1.6l-1.2-1.4l-0.7-4.3l1.1-0.7l-0.5-4.4l0.6-3.6l0.7-3.1l1.6-1.3l-0.8-3.3v-3.1l2-2.2
		l-0.1-2.8l1.5-3.2v-3l-0.7-0.6l-1.2-5.5l1.7-3.2l-0.3-3l1-2.8l1.8-2.8l1.9-1.9l-0.8-1.2l0.6-1l-0.1-4.9l2.9-1.4l0.9-3l-0.3-0.7
		l2.3-2.6L387.3,380.3z"/>
	<path class="st0" d="M646.3,380.8l-1.4-0.3l-0.9,0.4l-1.3-0.5h-1.1l-1.7-1.4l-2.1-0.4l-0.8-1.8v-1l-1.2-0.3l-3-3.1l-0.8-1.6
		l-0.5-0.5l-1-2.3l3,0.3l0.9,0.3l0.9-0.1l1.5-1.8l2.3-2.3l1-0.2l0.3-1l1.5-1.1l2-0.4l0.2,1l2.3-0.1l1.3,0.6l0.6,0.7l1.3,0.2l1.4,0.9
		v3.5l-0.5,2l-0.1,2.1l0.4,0.9l-0.3,1.7l-0.4,0.3l-0.7,2.1L646.3,380.8z"/>
	<path class="st0" d="M707.5,212.3l2.4-0.6l1.9-1.9l1.8,0.1l1.2-0.6l1.9,0.3l3,1.7l2.2,0.4l3.1,3l2,0.1l0.2,2.8l-1.1,4l-0.7,2.4
		l1.2,0.5l-1.2,1.8l0.9,2.5l0.2,2l2,0.5l0.2,2l-2.4,2.9l1.3,1.6l1.1,1.9l2.6,1.3l0.1,2.7l1.3,0.5l0.2,1.4l-3.9,1.6l-1,3.5l-5.1-0.9
		l-2.9-0.7l-3-0.4l-1.2-3.7l-1.3-0.5l-2.1,0.5l-2.7,1.4l-3.3-1l-2.7-2.3L701,242l-1.8-2.9l-2-4.1l-1.5,0.5l-1.7-1l-1,1.2l-1.5-1.6
		v-1.7h-0.8l0.4-2.3l-1.4-2.4l-3.3-1.8l-1.9-3.1l0.6-2.5l1.4-1.1l-0.2-1.9l-1.8-1l-1.8-4l-1.5-2.7l0.5-1l-0.8-4l1.8-1l0.4,1.3
		l1.4,1.6l1.8,0.4l1-0.1l3.2-2.6l1-0.3l0.8,1l-0.9,1.7l1.7,1.8l0.7-0.2l0.8,2.5l2.5,0.7l1.9,1.7l3.8,0.6l4.2-0.9L707.5,212.3z"/>
	<path class="st0" d="M523.2,78.7l-0.6,4.3l3,4.4l-3.5,4.8l-7.8,4.2l-2.3,1.1l-3.5-0.9l-7.5-1.9l2.6-2.7l-5.9-3.1l4.8-1.2l-0.1-1.9
		l-5.6-1.5l1.8-4.3l4.1-1l4.2,4.5l4.1-3.6l3.4,1.9l4.4-3.6L523.2,78.7z"/>
	<path id="map_23_" class="st0" d="M396.2,290.7l1.5-0.4l0.6,0.1l-0.1,2l-2.3,0.3l-0.5-0.2l0.8-0.8V290.7z"/>
	<path id="map_22_" class="st0" d="M626.1,217.2l1.5,1.1l2.1-0.2l2,0.2l-0.1,0.6l1.5-0.4l-0.3,1l-3.9,0.3v-0.5l-3.3-0.6L626.1,217.2
		z M633.9,197.1l-0.8,2.2l-0.6,0.4l-1.6-0.1l-1.4-0.3l-3.3,0.9l1.9,2l-1.4,0.6h-1.5l-1.4-1.8l-0.5,0.8l0.6,2.1l1.3,1.6l-1,0.8
		l1.5,1.6l1.3,1v1.9l-1.3-1.1l-1.2,0.2l0.8,1.7l-0.9,0.2l-1-0.7l1.2,3.8H624l-0.4-1.2H623l-0.3,1.3l-0.4-0.3l0.1-0.7l-0.5-1h-0.6
		l0.1,0.8l-0.2,0.3l-0.6-0.5l-0.4-1l0.5-0.6l-0.3-0.7l-0.4-0.4l-0.4-0.1l-0.5-0.9l0.6-0.5l0.3-0.5l0.5,0.1l0.2-0.4l0.6-0.1l0.6,0.4
		l0.5,0.2l0.4-0.6l-0.9-0.1l-0.5-0.2l-1.2,0.3H619l-1-1.6l-0.2-0.2l0.2-0.6l-1.4-1.1l-0.2-1l1.3-1.7l0.2-1.1l0.9-0.5l0.1-0.9
		l1.8-0.3l1-0.8l1.5,0.1l0.4-0.6l0.5-0.1l2,0.1l2.2-1l1.9,1.3l2.5-0.3v-1.8L633.9,197.1z"/>
	<path id="map_21_" class="st0" d="M319.7,282.6l-1.4-0.5h-1.7l-1.2-0.5l-1.5-1.1l0.1-0.8l0.3-0.6l-0.4-0.5l1.3-2.3h3.5l0.1-0.9
		l-0.4-0.2l-0.3-0.6l-1-0.6l-1-0.9h1.2v-1.6h2.5h2.5v2.2l-0.2,3.1h0.8l0.9,0.5l0.2-0.4l0.8,0.4l-1.2,1.1l-1.3,0.8l-0.2,0.5l0.2,0.5
		l-0.6,0.7l-0.6,0.2l0.1,0.3l-0.5,0.3l-0.9,0.7L319.7,282.6z"/>
	<path id="map_20_" class="st0" d="M529.5,280.1l0.9-0.5l0.5-1.6l0.8-0.1l1.9,0.8l1.5-0.5l1,0.2l0.4-0.6h10.8l0.6-2l-0.5-0.4
		l-1.3-12.2l-1.3-12.5h4.1l9.1,6.4l9.1,6.3l0.6,1.3l1.7,0.8l1.3,0.5v1.8l3-0.3v6.5l-1.5,1.9l-0.2,1.7l-2.4,0.4l-3.7,0.2l-1,1
		l-1.7,0.1h-1.7l-0.7-0.5l-1.5,0.4l-2.5,1.1l-0.5,0.9l-2.1,1.2l-0.4,0.7l-1.1,0.6l-1.3-0.4l-0.7,0.7l-0.4,1.9l-2.1,2.3l0.1,0.9
		l-0.7,1.2l0.2,1.6l-1.1,0.4l-0.6,0.4l-0.4-1.2l-0.8,0.3l-0.5-0.1l-0.5,0.8h-2.1L541,292l-0.3,0.3l-0.8-0.8l0.1-0.8l-0.3-0.3
		l-0.6,0.3l0.1-0.9l0.6-0.7l-1.1-1.1l-0.3-0.8l-0.6-0.6l-0.5-0.1l-0.6,0.4l-0.9,0.4l-0.7,0.6l-1.2-0.2l-0.8-0.7l-0.4-0.1l-0.7,0.4
		h-0.4l-0.2-1l0.1-0.9l-0.2-1.1l-1-0.8l-0.5-1.6L529.5,280.1z"/>
	<path id="map_19_" class="st0" d="M830.3,264.5l-1.6,1.2l-1.9,0.1l-1.2,3.1l-1.1,0.5l1.3,2.5l1.7,2l1.1,1.8l-1,2.4l-0.9,0.5
		l0.6,1.4l1.8,2.2l0.3,1.5v1.3l1.1,2.5L829,290l-1.4,2.8l-0.3-2l0.8-2.1l-0.9-1.6l0.2-3l-1.1-1.4l-0.9-3.3l-0.5-3.6l-1.2-2.3
		l-1.8,1.4l-3.1,2l-1.5-0.3l-1.7-0.6l0.9-3.5l-0.6-2.6l-2.1-3.3l0.3-1l-1.6-0.4l-1.9-2.3l-0.2-2.3l0.9,0.4v-2.1l1.3-0.7l-0.3-1.2
		l0.6-1l0.1-3l2.1,0.7l1.2-2.4l0.1-1.4l1.5-2.5l-0.1-1.7l3.5-2.1l1.9,0.6l-0.2-1.9l1-0.6l-0.2-1.1l1.6-0.2l0.9,1.8l1.2,0.7l0.1,2.3
		l-0.1,2.4l-2.5,2.5l-0.3,3.5l2.8-0.5l0.6,2.7l1.7,0.6l-0.8,2.4l2,1.1l1.2,0.5l2-0.8l0.1,1.2l-2.3,1.9l-0.6,1.1L830.3,264.5z"/>
	<path id="map_18_" class="st0" d="M568.1,287.5l0.1-1.9L565,285l-0.1-1.3l-1.5-1.8l-0.4-1.3l0.2-1.3l1.7-0.1l1-1l3.7-0.2l2.4-0.4
		l0.2-1.7l1.5-1.9v-6.5l3.8-1.3l7.8-5.6l9.2-5.5l4.3,1.3l1.5,1.6l1.9-1.1l0.7,4.5l1,0.8v0.9l1.1,1l-0.6,1.2l-1,5.7l-0.1,3.6
		l-3.4,2.6l-1.2,3.6l1.1,1v1.8l1.7,0.1l-0.2,1.3l-0.8,0.2l-0.1,0.9l-0.5,0.1l-1.8-3l-0.6-0.1l-2.1,1.5l-2.1-0.8l-1.5-0.2L591,284
		l-1.6-0.1l-1.6,1.1l-1.4,0.1l-3.3-1.4l-1.3,0.7h-1.4l-1-1l-2.7-1l-2.9,0.3l-0.7,0.6l-0.4,1.6l-0.8,1.1l-0.2,2.4l-2.1-1.6h-1
		L568.1,287.5z"/>
	<path id="map_17_" class="st0" d="M585.2,306.9l-2.8,1l-1-0.1l-1,0.6l-2.2-0.1l-1.4-1.7l-0.9-1.9l-1.9-1.8h-2h-2.4l0.2-4.4
		l-0.1-1.7l0.5-1.7l0.8-0.8l1.3-1.7l-0.3-0.7l0.5-1.1l-0.6-1.6l0.1-0.9l0.2-2.4l0.8-1.1l0.4-1.6l0.7-0.6l2.9-0.3l2.7,1l1,1h1.4
		l1.3-0.7l3.3,1.4l1.4-0.1l1.6-1.2l1.6,0.1l0.8-0.4l1.5,0.2l2.1,0.8l2.1-1.5l0.6,0.1l1.8,3l0.5-0.1l1.1,1.1l-0.3,0.5l-0.1,0.9
		l-2.3,2.1l-0.7,1.7l-0.4,1.4l-0.6,0.6l-0.5,1.9l-1.4,1.1l-0.4,1.4l-0.6,1.1l-0.3,1.3l-1.8,0.9l-1.5-1.1h-1l-1.6,1.6h-0.8l-1.3,2.6
		L585.2,306.9z"/>
	<path id="map_16_" class="st0" d="M700,288l-0.1-0.8h-1l-1.3,0.9l-1.4,0.3l-1.2,0.4l-0.8,0.1l-1.5,0.1l-1,0.5l-1.3,0.2l-2.4,0.9
		l-2.9,0.3l-2.5,0.7h-1.3l-1.2-1.1l-0.5-1.1l-0.9-0.5l-1,1.5l-0.6,1l1,1.5l1,1.3l1,1l8.8,3.2h2.3l-7.6,8.1l-3.5,0.1l-2.4,1.9H676
		l-0.7,0.9l-2.3,3v9.8l1.6,2.2l0.6-0.6l0.6-1.4l3-3.3l2.5-2l4-2.6l2.7-2.2l3.2-3.7l2.3-3l2.3-3.9l1.7-3.5l1.3-3l0.8-2.9l0.6-1v-1.4
		L700,288z"/>
	<path id="map_15_" class="st0" d="M408.4,303.7l3.2,0.5l0.3-0.5l2.2-0.2l2.9,0.7l-1.4,2.3l0.2,1.8l1.1,1.6l-0.5,1.1l-0.2,1.2
		l-0.7,1.1l-1.5-0.6l-1.3,0.3l-1.1-0.2l-0.3,0.8l0.5,0.5l-0.2,0.5l-1.5-0.2l-1.6-2.3l-0.4-1.5h-0.9l-1.2-1.9l0.5-1.4l-0.1-0.6
		l1.6-0.7L408.4,303.7z"/>
	<path id="map_14_" class="st0" d="M655.3,350.7l2-0.2l3.2,0.8l0.7-0.4l1.9-0.1l1-0.8h1.6l2.9-1.1l2.1-1.6l0.4,1.2l-0.1,2.7l0.3,2.4
		l0.1,4.3l0.5,1.3l-0.8,2l-1,1.9l-1.7,1.7l-2.6,1.1l-3,1.4l-3,3l-1,0.5l-2,2l-1.1,0.7l-0.2,2l1.3,2.2l0.5,1.7v0.9l0.5-0.1l-0.1,2.8
		l-0.4,1.4l0.6,0.5l-0.4,1.2l-1.1,1l-2.2,1l-3.2,1.6l-1,1.3l0.2,1.3l0.7,0.2l-0.3,1.5h-2l-0.2-1.3l-0.4-1.3l-0.2-1.1l0.5-3.3
		l-0.7-2.1l-1.3-4.1l2.8-3.3l0.7-2.1l0.4-0.3l0.3-1.7l-0.4-0.9l0.1-2.1l0.5-2v-3.5l-1.4-0.9l-1.3-0.2l-0.6-0.7l-1.3-0.6l-2.3,0.1
		l-0.2-1l-0.3-2l8.2-2.3l1.5,1.3l0.8-0.3l1.1,0.7l0.2,1.1l-0.6,1.3l0.2,2l1.8,1.7l0.8-1.9l1.2-0.6l-0.2-3.6l-1.1-2l-1-0.9h-0.9
		l-0.8-3.6L655.3,350.7z"/>
	<path id="map_13_" class="st0" d="M1014.2,364.4l-0.9,0.4l-0.9-1.2l0.1-0.8L1014.2,364.4z M1012.2,360.1l0.4,2.2l-0.7-0.3l-0.6,0.1
		l-0.4-0.8l-0.1-2.1L1012.2,360.1z"/>
	<path id="map_12_" class="st0" d="M653.7,294.3v2.1l-0.4,0.8l-1.4,0.1l-0.9,1.5l1.7,0.2l1.4,1.3l0.5,1.1l1.2,0.6l1.6,2.9l-1.8,1.8
		l-1.7,1.6l-1.7,1.2h-1.9l-2.2,0.6l-1.7-0.6l-1.1,0.7l-2.4-1.8l-0.6-1.1l-1.5,0.6l-1.3-0.2l-0.7,0.5l-1.2-0.3l-1.6-2.2l-0.4-0.9
		l-2-1.1l-0.7-1.6l-1.2-1.1l-1.8-1.4v-0.9l-1.5-1.1l-1.8-1.1l0.8-0.3l0.9-0.5l0.7-2.4l0.7-1.3l2-0.4l0.5,0.7l1.4,1.6l0.7,0.2l1-0.5
		l1.9,0.1l0.4,0.6h2.7l0.1-0.6l1.4-0.5l0.3-0.8l1-0.6l2.3,1.6l1.4-0.3l1.3-2l1.5-1.5l-0.2-1.6l-0.7-0.8l1.6-0.1l0.2-0.6l1.3,0.2
		l-0.3,2l0.3,2l1.4,1.1l0.3,0.9v1.4L653.7,294.3z"/>
	<path id="map_11_" class="st0" d="M325.9,283.5l-0.3,0.6H324l-1-0.3l-1.1-0.5l-1.5-0.2l-0.8-0.6l0.1-0.4l0.9-0.7l0.5-0.3l-0.1-0.3
		l0.6-0.2l0.8,0.2l0.6,0.5l0.8,0.4l0.1,0.4l1.2-0.3l0.6,0.2l0.4,0.3L325.9,283.5z"/>
	<path id="map_10_" class="st0" d="M653.7,294.3h-0.4v-1.4L653,292l-1.4-1.1l-0.3-2l0.3-2l-1.3-0.2l-0.2,0.6l-1.6,0.1l0.7,0.8
		l0.2,1.6l-1.5,1.5l-1.3,2l-1.4,0.3L643,292l-1,0.6l-0.3,0.8l-1.4,0.5l-0.1,0.6h-2.7l-0.4-0.6l-1.9-0.1l-1,0.5l-0.7-0.2l-1.4-1.6
		l-0.5-0.7l-2,0.4l-0.7,1.3l-0.7,2.4l-0.9,0.5l-0.8,0.3l-0.2-0.1l-0.9-0.8l-0.2-0.8l0.4-1.1v-1.1l-1.6-1.7l-0.3-1.2V289l-1-0.8v-1.6
		l-0.6-1.1l-1,0.2l0.3-1l0.7-1.1l-0.2-1.1l0.9-0.9l-0.6-0.6l0.7-1.7l1.2-2l2.3,0.2l-0.1-11.1v-1.2h3.1v-5.7h32l0.9,2.8l-0.6,0.5
		l0.4,2.9l1,3.4l1,0.7l1.5,1l-1.4,1.6l-2,0.5l-0.8,0.9l-0.3,1.9l-1.2,4.1l0.3,1.1l-0.4,2.4l-1.1,2.7l-1.6,1.4l-1.2,2.1l-0.3,1.1
		l-1.3,0.8l-0.8,2.8L653.7,294.3L653.7,294.3z"/>
	<path id="map_9_" class="st0" d="M622,83.5l-2.6,4.5l0.4,3.9l-4.3,4.9l-5.2,5.1l-2,8.1l1.9,3.9l2.6,3l-2.5,6l-2.8,1.2l-1,8.5
		l-1.5,4.6l-3.3-0.5l-1.5,3.8l-3.1,0.2l-0.8-4.5l-2.2-5.6l-2-7.2l1.2-3l2.2-3.7l0.9-6.5l-1.7-2.9l-0.2-7.7l1.7-5.7l2.7,0.1l0.9-2.4
		l-1-2.1l4.2-9.1l2.7-7.6l1.8-5h2.6l0.7-4l5.1,1.2l0.4-4.9l1.7-0.3l3.6,3.7l4.2,4.9l0.1,10.7l0.9,2.6L622,83.5z"/>
	<path id="map_8_" class="st0" d="M602.3,256.8l-1.9,1.1l-1.5-1.6l-4.2-1.3l-1.2-1.8l-2.1-1.4l-1.3,0.5l-1-1.6l-0.1-1.3l-1.6-2.2
		l1.1-1.2l-0.2-1.9l0.3-1.6l-0.2-1.4l0.5-2.5l-0.1-1.4l-0.9-2.7l1.3-0.7l0.2-1.3l-0.3-1.3l1.8-1.2l0.8-1l1.3-0.9l0.2-2.4l3.2,1.1
		l1.1-0.3l2.3,0.5l3.6,1.4l1.3,2.8l2.4,0.6l3.8,1.3l2.9,1.6l1.3-0.8l1.3-1.4l-0.6-2.4l0.8-1.5l1.9-1.5l1.8-0.4l3.6,0.6l0.9,1.4h1
		l0.8,0.5l2.7,0.4l0.7,1l-1,1.5l0.4,1.3l-0.7,1.9l0.8,2.5V265h-3.1v1.2l-10.7-5.5l-10.7-5.5L602.3,256.8z"/>
	<path id="map_7_" class="st0" d="M538.9,242.6V239l4.3-2.3l2.7-0.5l2.2-0.8l1-1.6l3.2-1.2l0.1-2.3l1.6-0.3l1.2-1.2l3.5-0.5l0.5-1.2
		l-0.7-0.7l-0.9-3.4l-0.2-2l-1-2.1h-1.2l-2.8-0.7l-2.6,0.2l-1.6-1.4h-2l-0.8,2l-1.8,3.4l-2,1.3l-2.7,1.5l-1.7,2.1l-0.4,1.7l-1,2.7
		l0.7,3.9l-2.3,2.6l-1.3,0.8l-2.1,2.1l-2.5,0.3l-1.3,1.1h3.5L538.9,242.6L538.9,242.6l-8.5-0.1H527L538.9,242.6z"/>
	<path id="map_6_" class="st0" d="M594.6,255l-9.2,5.5l-7.8,5.6l-3.8,1.3l-3,0.3v-1.8l-1.3-0.5l-1.7-0.8l-0.6-1.3l-9.1-6.3l-9.1-6.4
		l-10.1-7.2l0.1-0.6v-0.2V239l4.3-2.3l2.7-0.5l2.2-0.8l1-1.6l3.2-1.2l0.1-2.3l1.6-0.3l1.2-1.2l3.5-0.5l0.5-1.2l-0.7-0.7l-0.9-3.4
		l-0.2-2l-1-2.1l2.6-1.8l2.9-0.6l1.7-1.4l2.6-1l4.6-0.6l4.5-0.3l1.3,0.5l2.5-1.3h2.9l1.1,0.8l1.8-0.2l-0.5,1.7l0.4,3.1l-0.6,2.7
		l-1.7,1.8l0.2,2.4l2.2,1.9v0.8l1.7,1.3l1.2,5.6l0.9,2.7l0.1,1.4l-0.5,2.5l0.2,1.4l-0.3,1.6l0.2,1.9l-1.1,1.2l1.6,2.2l0.1,1.3l1,1.6
		l1.3-0.5l2.1,1.4L594.6,255z"/>
	<path id="map_5_" class="st0" d="M346,328.8l1.4-2l-0.6-1.2l-1,1.3l-1.6-1.2l0.5-0.8l-0.5-2.4l0.9-0.4l0.5-1.7l1-1.7l-0.2-1.1
		l1.5-0.6l1.8-1.1l2.7,1.5h0.5l0.6,1.1l2.3,0.4l0.8-0.4l1.3,0.9l1.1,0.6l0.4,2l-0.8,1.7l-2.9,2.8l-3.2,1.1l-1.6,2.3l-0.5,1.8
		L349,333l-1.1-1.4l-1.1-0.3l-1.1,0.2l-0.1-1l0.8-0.6L346,328.8z"/>
	<path id="map_4_" class="st0" d="M601.3,285l0.3-1.3l-1.7-0.1v-1.8l-1.1-1l1.2-3.6l3.4-2.6l0.1-3.6l1-5.7l0.6-1.2l-1-1v-0.9l-1-0.8
		l-0.7-4.5l2.7-1.6l10.8,5.5l10.7,5.5l0.1,11.1l-2.3-0.2l-1.2,2l-0.8,1.8l0.6,0.6l-0.9,0.9l0.3,1.1l-0.7,1.1l-0.3,1l1-0.2l0.6,1.1
		v1.6l1,0.8v0.7l-1.7,0.5l-1.4,1.1l-1.9,3l-2.5,1.3l-2.6-0.2l-0.8,0.3l0.3,1l-1.4,1l-1.1,1.1l-3.4,1l-0.7-0.6l-0.4-0.1l-0.5,0.7
		l-2.2,0.2l0.4-0.7l-0.9-2l-0.4-1.1l-1.2-0.5l-1.6-1.6l0.6-1.3l1.2,0.3l0.8-0.2h1.5l-1.5-2.5l0.1-1.8l-0.2-1.8L601.3,285z"/>
	<path id="map_3_" class="st0" d="M747.9,469.2l1.7,1.3l2.5,0.5l0.1,0.8l-0.8,1.9l-4.1,0.3l-0.1-2.2l0.4-1.7L747.9,469.2z"/>
	<path id="map_2_" class="st0" d="M672.7,322l1.6,2.2l-1.9,1.1l-0.7,1.1l-1,0.2l-0.4,1.9l-0.9,1.1l-0.5,1.8l-1.1,0.9l-3.9-2.7
		l-0.2-1.5l-9.8-5.5l-0.5-0.3v-2.8l0.8-1.1l1.3-1.8l1-2l-1.2-3.1l-0.3-1.3l-1.3-1.9l1.7-1.6l1.8-1.8l1.4,0.5v1.5l0.9,0.9h1.9
		l3.4,2.3h0.8l0.6-0.1l0.6,0.3l1.8,0.2l0.8-1.1l2.5-1.1l1.1,0.9h1.8l-2.3,3v9.8H672.7z"/>
	<path id="map_1_" class="st0" d="M753.3,194.6l0.7-1.6l1.8-0.5l4.4,1.3l0.4-2.1l1.5-0.8l3.8,1.6l1-0.4l4.5,0.1l4,0.4l1.3,1.3
		l1.7,0.5l-0.4,0.8l-4.3,1.9l-1,1.4l-3.5,0.4l-1,2.3l-2.8-0.5l-1.8,0.7L761,203l0.4,0.8l-0.8,0.8l-5.1,0.5l-3.3-1.2l-2.9,0.3l0.3-2
		l2.9,0.6l1-1.1l2,0.4l3.5-2.5l-3.2-1.9l-1.9,0.9l-2-1.3l2.3-2.3L753.3,194.6z"/>
	<path id="map" class="st0" d="M683.4,203.6l0.8,0.9h1.2v0.5l1.1,2l-1.8-0.5l-1.4-1.5l-0.4-1.3L683.4,203.6z M689.8,198.3l1.2,0.2
		l0.5-0.9l1.6-1.4l1.4,1.9l1.4,2.5l1.3,0.2l0.8,1l-2.2,0.3l-0.5,2.7l-0.5,1.2l-1,0.8l0.1,1.7l-0.7,0.2l-1.7-1.8l0.9-1.7l-0.8-1
		l-1,0.3l-3.2,2.6l-0.1-2.4l-1.2-0.6l-1.1-1l0.8-1.1l-1.4-1.2l0.5-0.9l-1-0.6l-0.6-0.9l0.7-0.6l2,1l1.5,0.2l0.4-0.4l-1.3-1.9
		l0.7-0.5l0.8,0.1L689.8,198.3z"/>
	<path id="RUSSIA" class="st0" d="M1074.2,81.9l-2.7,2.8l-4.4,0.7l-0.1,6.2l-1.1,1.3l-2.5-0.2l-2.1-2.2l-3.6-1.8l-0.6-2.8l-2.7-1.1
		l-3.1,0.8l-1.5-2.3l0.6-2.4l-3.2,1.6l1.2,3.1l-1.5,2.7l0,0l-3.5,2.8l-3.5-0.5l2.4,3.3l1.6,5l1.2,1.6l0.3,2.4l-0.7,1.5l-5-1.3
		l-7.5,4.3l-2.4,0.7l-4.1,3.9l-3.9,3.4l-1,2.4l-3.8-3.8l-7,4.2l-1.2-2l-2.6,2.3l-3.6-0.7l-0.9,3.5l-3.2,5l0.1,2.1l3.1,1.1l-0.4,7.2
		l-2.5,0.2l-1.2,4l1.1,2l-4.7,2.4l-0.9,5.2l-4,1.1l-0.8,4.5l-3.9,4l-1-3l-1.2-6.4l-1.5-10.2l1.3-6.7l2.3-2.9l0.1-2.3l4.2-1.1
		l4.8-6.5l4.6-5.5l4.8-4.4l2.2-8l-3.3,0.5l-1.6,4.7l-6.8,6.1l-2.2-6.9l-7,1.9l-6.7,9.2l2.2,3.3l-6,1.4l-4.2,0.5l0.2-3.8l-4.2-0.8
		l-3.3,2.6l-8.2-0.9l-8.8,1.6l-8.7,9.9l-10.3,11.3l4.2,0.6l1.3,2.9l2.6,1l1.7-2.3l3,0.3l3.9,5l0.1,3.8l-2.1,4.3l-0.2,5.1l-1.2,6.6
		l-4.1,5.8l-0.9,2.7l-3.7,4.5l-3.6,4.4l-1.7,2.2l-3.6,2.2h-1.7l-1.7-1.8l-3.6,2.7l-0.4,1.2l-0.4-0.6v-1.9l1.4-0.1l0.4-4.4l-0.7-3.2
		l2.3-1.3l3.3,0.7l1.8-3.7l0.9-4.3l1-1.4l1.4-3.6l-4.5,1.3L919,174h-4l-1.1-3.8l-3.2-2.9l-4.7-1.4l-1-4.1l-0.9-2.6l-1-1.9l-1.7-4.4
		l-2.4-1.6l-4-1.3l-3.6,0.1l-3.3,0.8l-2.2,2.2l1.5,1.1v2.4l-1.5,1.4l-2.4,4.5v1.9l-3.8,2.6l-3.2-1.6l-3.2,0.4l-1.4-1.4l-1.6-0.4
		l-4,2.9l-3.5,0.7l-2.5,1l-3.4-0.7h-2.5l-1.6-2.1l-2.6-2l-2.7-0.6l-3.4,0.6l-2.5,0.8l-3.8-1.8l-0.5-3.2l-3.2-1.1l-2.4-0.5l-3-1.8
		l-2.8,4.5l1.1,2.5l-2.6,2.9l-3.9-1l-2.7-0.1l-1.8-2l-2.8-0.1l-2.3-1.3l-4.1,2l-5.1,3.6l-2.8,0.7l-1.1,0.3l-1.4-2.5l-3.5,0.6
		l-1.2-1.8l-1.9-0.8l-1.3-2.4l-1.5-0.8l-3.9,1.1l-3.7-2.5l-1.4,2.2l-6-11.1l-3.4-3.5l1-1.4l-6.8,4.3l-2.6,0.3l0.2-2.5l-3.5-1.6
		l-2.8,1.2l-0.8-4.8l-4.8-1l-2.4,1.9l-6.7,1.7l-1.3,1.1l-10.1,1.6l-1.2,1.6l1.9,3.1l-2.6,1.1l0.5,1.2l-2.6,2.1l4.4,3l-0.7,2
		l-3.8-0.2l-0.8,1.3l-3.5-2.2l-4.3,0.1l-2.9,1.8l-3.2-1.7l-5.9-3l-4.2,0.1l-5.6,4.7l-0.3,3.1l-2.8-2.4l-2.2,4.6l0.8,0.8l-1.6,3.1
		l2.3,2.7l2-0.1l1.7,2.6l-0.3,2l1.4,0.6l-1.2,2.3l-2.6,0.6l-2.6,3.9l2.5,3.6l-0.3,2.5l2.9,4.3l-1.6,1.4l-0.5,0.9l-1.2-0.2l-1.9-2.2
		l-0.8-0.1l-1.7-0.8l-0.8-1.5l-2.5-0.8l-1.6,0.6l-0.5-0.7l-3.7-1.8l-4-0.6l-2.3-0.6l-0.3,0.4l-3.4-3.1l-3.1-1.4L661,184l2-0.6
		l2.2-3.2l-1.5-1.5l4-1.6l-0.1-0.9l-2.4,0.6l0.1-1.8l1.4-1.1l2.6-0.3l0.4-1.3l-0.6-2.2l1.1-2.1v-1.2l-4-1.4h-1.6l-1.7-2l-2.1,0.7
		l-3.4-1.5l0.1-0.8l-1-1.9l-2.2-0.2l-0.2-1.3l0.7-0.9l-1.7-2.5l-2.8,0.4l-0.8-0.2l-0.7,1l-1-0.2l-0.7-2.8l-0.6-1.5l0.5-0.4l2.2,0.1
		l1-1l-0.8-1.2l-1.8-0.8l0.2-0.8l-1.1-0.8l-1.7-3l0.6-1.3l-0.3-2.2l-2.6-1.1l-1.4,0.6l-0.3-1.1l-2.8-1.2l-0.9-2.9l-0.3-2.4l-1.3-1.1
		l1.2-1.6l-0.8-4.8l1.9-3l-0.4-0.9l3.1-2.9l-2.8-2.6l5.8-7.1l2.5-3.3l1-3l-4-4.1l1.1-4l-2.4-4.7l1.9-5.5l-3.1-7.6l2.5-5.3l-4.1-4.8
		l0.4-5.2l2.2-0.7l4.6-3.1l2.8-2.7l4.4,4.7l7.4,1.8l10.2,8.3l2.1,3.4l0.2,4.6l-3,3.6l-4.4,1.8l-12-5.1l-2,0.9l4.4,4.9l0.2,3l0.2,6.5
		l3.5,1.9l2.1,1.6l0.3-3l-1.6-2.7l1.7-2.4l6.5,3.9l2.3-1.5l-1.8-4.7l6.3-6.5l2.5,0.4l2.5,2.3l1.6-4.6l-2.3-4.1l1.3-4.2l-2-4.5
		l7.5,2.3l1.5,4l-3.4,0.9v3.9l2.1,2.3l4.2-1.5l0.7-4.4l5.7-3.3l9.4-6.3l2,0.4l-2.7,4.5l3.3,0.8l1.9-2.5l5-0.2l4-3.1l3.1,4.4l3.1-4.9
		l-2.8-4.4l1.4-2.5l8,2.3l3.8,2.4l9.8,8.5l1.8-3.8l-2.7-4l-0.1-1.6l-3.3-0.8l0.9-3.7l-1.4-6.2l-0.1-2.6l5-7.7l1.8-8.1l2-1.8l7.1,2.4
		l0.6,5l-2.5,7l1.7,2.7l0.9,5.7l-0.6,10.6l3,4.5l-1.2,4.8l-5.3,9.8l3.1,1l1.1-2.4l3-1.8L762,73l2.3-3.3l-1.6-4.1l1.2-4.9l-3-0.6
		l-0.6-4.2l2.2-8l-3.5-6.8l4.8-5.8l-0.6-6.3l1.3-0.2l1.4,5l-1,8.3l2.9,1.5l-1.2-6.1l4.5-3.4l5.6-0.5l5,5l-2.4-7.3l-0.4-9.9l4.7-1.9
		l6.5,0.4l5.8-1.3l-2.2-5.2l3.2-6.7l3.1-0.3l5.2-5.3l7.1-1.4l0.9-3l7.1-1l2.2,2.5l6-6l5,0.2l0.7-5l2.6-5.1l6.4-5.1l4.6,4l-3.7,3
		l6.1,1.8l0.8,5.8l2.5-2.8l7.9,0.1l6.1,5.6l2.2,4.2L869,4.6l-3,3.1l-7.1,5.7l-2,3l3.3,1.4l4,2.5l2.4-1.8l1.4,6.1l1.2-2.5l4.3-1.5
		l8.6,1.6l0.7,4.4l11.3,1.3l0.2-7.2l5.7,1.7h4.3l4.3,4.9l1.2,5.8l-1.6,3.7l3.4,6.7l4.2,3.3l2.6-8.8l4.3,3.8l4.6-2.3l5.2,2.6l2-2.4
		l4.4,1.2l-1.9-8.1l3.5-3.9l24.3,5.8l2.3,5.1l7,6.4l10.9-1.6l5.4,1.4l2.2,3.4l-0.3,5.8l3.3,2.2l3.6-1.6l4.8-0.2l5.1,1.5l5.1-0.8
		l4.7,6.7l3.3-2.4l-2.2-4.9l1.2-3.5l8.6,2.2l5.6-0.5l7.7,3.7l3.8,3.3l6.6,5.6l7.1,7l-0.2,4.3l1.8,1.7l-0.6-4.9l7.3,1L1074.2,81.9z
		 M951.8,168.8l-2.7-7.4l-1.1-4.3l0.1-4.3l-0.9-4.3l-0.7-3l-1.2,0.6l1.1,2.1l-2.5,2.1l-0.2,6.1l1.6,4.2l-0.2,5.6l-0.6,3.1l0.3,4.4
		l-0.3,3.9l0.5,3.3l1.8-3l2,2.3l0.1-2.7l-2.6-4.1l1.7-5.9L951.8,168.8z M622.3,142.4l-2.8-0.8l-3.7,1.5l-0.6,2l3.3,0.5l5-0.1
		l-0.2-1.2l0.3-1.3L622.3,142.4z M1047,46.2l3.5-0.5l2.8-2l0.2-1.1l-3.9-2.4h-2.3l-0.3,0.4l-3.4,3.5l0.5,2.6L1047,46.2z M941.5,20.2
		l-2.6,3.8l0.5,0.5l5.5,1l4.1-0.1l-0.3-2.4l-3.8-3.7L941.5,20.2z M965,11.1l3.2-4.1l-6.8-2.8l-5-1.6L955.8,6l5,4.1L965,11.1z
		 M940.9,9.4l9.9,0.3l2.1-7.8l-9.7-5.8l-7.1-0.5l-3.5,2.1l-1.5,7.5l5.3,6.7L940.9,9.4z M703.6,34.3l-2.8,1.9l0.4,4.6l4.9,2.3
		l0.7,3.7l8.8,1.1l1.6-0.7l-5.2-6.8l-0.5-7.2l4.2-8.8l4-9.4l8.4-9.8l8.3-5.1l9.5-5.5l1.8-3.6l-1.9-4.6l-5.2,1.5L736-7.8l-9,2.1
		l-9,7.1L712,7l0.7,4.7l-6.4,8.7l2.5,1.2l-5.3,7.9L703.6,34.3z M845.2-30.9l0.8-5.5l-6.8-8l-2-0.9l-2.2,1.6l-5,17.9L845.2-30.9z
		 M687.5-59l2.9,3.7l3.2-2.6l0.4-2.6l2.4-1.2l3.7-2.2l1-2.5l-4-3.7l-2.5,2.8l-1.5,4l-0.5-4.5l-4.1,0.2l-5.3,3l6,0.5L687.5-59z
		 M813.5-46.5L818-41l7.5,4l5.9-1.7l0.6-13.1l-6.2-15.4l-5.2-8.7l-5.8,3.9l-7,11.4l3.7,3.1L813.5-46.5z"/>
</g>
<path id="BELGIUM" class="st0" d="M571.2,158.9l2,0.3l2.5-0.9l1.7,1.9l1.5,1l-0.3,2.8l-0.7,0.1l-0.3,2.3l-2.3-1.9l-1.4,0.3l-1.9-2
	l-1.3-1.7l-1.3-0.1l-0.4-1.5L571.2,158.9z"/>
<path id="SPAIN" class="st0" d="M537.9,196l0.1-2.6l-1.1-1.6l3.8-2.7l3.3,0.7h3.6l2.9,0.6l2.2-0.2l4.3,0.1l1.1,1.4l5,1.7l1-0.8
	l3,1.6l3.1-0.5l0.1,2.1l-2.5,2.4l-3.5,0.8l-0.2,1.2l-1.7,1.9l-1,2.8l1,2l-1.6,1.5l-0.6,2.2l-2,0.7l-1.9,2.6h-3.4l-2.6-0.1l-1.7,1.2
	l-1,1.3l-1.3-0.3l-1-1.1l-0.8-1.9l-2.5-0.5l-0.2-1l1-1.3l0.4-0.9l-0.9-1l0.7-2.3l-1.1-2.1l1.2-0.3l0.1-1.6l0.4-0.5v-2.8l1.3-1
	l-0.7-1.8l-1.6-0.1l-0.5,0.4h-1.6l-0.7-1.8l-1.1,0.5L537.9,196z"/>
<path id="FIJI" class="st0" d="M1047.5,363.1l-0.3,1.3l-0.2,0.1l-1.7,0.7l-1.7,0.6l-0.3-1l1.3-0.6l0.8-0.1l1.6-0.9L1047.5,363.1z
	 M1041.9,367.3l-1.2-0.4l-1,1l0.3,1.2l1.5,0.4l1.7-0.4l0.4-1.5l-0.9-0.8L1041.9,367.3z"/>
<path id="FRANCE" class="st0" d="M588,195l-0.9,2.8l-1.2-0.7l-0.6-2.4l0.5-1.4l1.7-1.4L588,195z M571.9,163l1.9,2l1.4-0.3l2.3,1.9
	l0.6,0.4l0.8-0.1l1.3,1.1l3.9,0.8l-1.4,2.8l-0.3,2.9l-0.7,0.7l-1.2-0.4l0.1,1l-2,2.2v1.8l1.3-0.6l0.9,1.7l-0.1,1.1l0.8,1.4l-0.9,1.2
	l0.7,2.9l1.5,0.5l-0.3,1.6l-2.4,2.1l-5.3-1l-3.9,1.2l-0.3,2.2l-3.1,0.5l-3-1.6l-1,0.8l-5-1.7l-1.1-1.4l1.4-2.2l0.5-7.6l-2.8-4.1
	l-2-2l-4.1-1.5l-0.3-3l3.5-0.9l4.5,1l-0.8-4.6l2.5,1.8l6.3-3.2l0.8-3.5l2.3-0.9l0.4,1.5l1.3,0.1L571.9,163z"/>
<path id="ENGLAND" class="st0" d="M547,144.5l-1.4,3.2l-2-0.9l-1.7,0.1l0.6-2.5l-0.6-2.5l2.3-0.2L547,144.5z M554.2,124.6l-2.9,5.5
	l2.8-0.7h3l-0.7,4.1l-2.4,4.4l2.8,0.3l0.2,0.5l2.4,5.6l1.8,0.7l1.7,5.2l0.8,1.8l3.3,0.9l-0.3,2.8l-1.4,1.3l1.1,2.2l-2.4,2.2h-3.6
	l-4.6,1.2l-1.3-0.8l-1.8,2l-2.5-0.5l-1.9,1.6l-1.4-0.8l4-4.5l2.4-0.9l0,0l-4.2-0.7l-0.9-1.8l2.8-1.4l-1.5-2.4l0.5-2.9l4,0.4l0,0
	l0.4-2.6l-1.8-2.8v-0.1l-3.3-0.8l-0.6-1.3l1-2.1l-0.9-1.3l-1.5,2.3l-0.2-4.6l-1.4-2.5l1-5.1l2.1-4.1l2.2,0.4L554.2,124.6z"/>
<path id="INDIA" class="st0" d="M771.9,217.9l2.9,3.8l-0.3,2.6l1.1,1.6l-0.1,1.6l-1.9-0.4l0.8,3.5l2.6,2l3.8,2.2l-1.7,1.4l-1,2.9
	l2.6,1.1l2.5,1.5l3.5,1.7l3.7,0.4l1.6,1.5l2.1,0.3l3.3,0.7h2.2l0.3-1.2l-0.4-1.9l0.2-1.3l1.6-0.6l0.2,2.4v0.6l2.5,1.1l1.7-0.5
	l2.3,0.2l2.2-0.1l0.2-1.9l-1.1-1l2.2-0.4l2.5-2.3l3.1-1.9l2.3,0.8l1.9-1.3l1.3,1.9l-0.9,1.3l2.9,0.4l0.2,1.1l-1,0.6l0.2,1.9
	l-1.9-0.6l-3.5,2.1l0.1,1.7l-1.5,2.5l-0.1,1.4l-1.2,2.4l-2.1-0.7l-0.1,3l-0.6,1l0.3,1.2l-1.3,0.7l-1.4-4.6h-0.8l-0.4,1.9l-1.5-1.5
	l0.8-1.7l1.2-0.2l1.2-2.5l-1.5-0.5H807l-2.5-0.4l-0.2-2.1l-1.3-0.1l-2.1-1.3l-1,2l1.9,1.6l-1.7,1.1l-0.7,1.1l1.7,0.8l-0.5,1.8
	l0.9,2.2l0.4,2.4l-0.4,1.1h-1.8l-3.3,0.6l0.2,2.2l-1.4,1.7l-3.9,1.9l-3,3.3l-2,1.8l-2.7,1.8v1.3l-1.3,0.7l-2.4,1l-1.3,0.1l-0.8,2.1
	l0.6,3.6l0.1,2.3l-1.1,2.6v4.6l-1.4,0.1l-1.2,2l0.8,0.9l-2.5,0.8l-0.9,1.8l-1.1,0.8l-2.5-2.5l-1.3-3.8l-1-2.8l-1-1.2l-1.4-2.6
	l-0.7-3.4l-0.5-1.7l-2.5-3.8l-1.1-5.4l-0.8-3.6v-3.4l-0.5-2.7l-3.9,1.7l-1.9-0.4l-3.5-3.5l1.3-1L749,257l-3.2-2.5l1.8-2h5.9
	l-0.6-2.6l-1.5-1.5l-0.3-2.3l-1.8-1.3l3-3.2l3.1,0.2l2.8-3.2l1.7-3.1l2.6-3.1v-2.2l2.3-1.8l-2.2-1.6l-0.9-2.2l-1-2.8l1.3-1.4
	l4.1,0.8l3-0.5L771.9,217.9z"/>
<path id="ITALY" class="st0" d="M604.1,208.8l-1,2.7l0.4,1l-0.6,1.7l-2.1-1.3l-1.4-0.4l-3.8-1.7l0.4-1.8l3.2,0.3l2.8-0.4
	L604.1,208.8z M587.1,198.4l1.6,2.5l-0.4,4.6l-1.2-0.2l-1.1,1.1l-1-0.9l-0.1-4.2l-0.6-2l1.5,0.2L587.1,198.4z M595.6,177.6l3.8,1
	l-0.3,1.9l0.6,1.6l-2.1-0.6l-2.2,1.4l0.2,1.9l-0.3,1.1l0.9,1.9l2.5,1.9l1.3,3l3,2.9h2.1l0.7,0.8l-0.8,0.7l2.4,1.3l2,1.1l2.3,1.8
	l0.3,0.6l-0.5,1.3l-1.5-1.6l-2.3-0.6l-1.1,2.3l2,1.3l-0.3,1.8l-1.1,0.2l-1.4,2.9l-1.1,0.3v-1l0.5-1.8l0.6-0.7l-1-2l-0.8-1.8
	l-1.1-0.4l-0.8-1.5l-1.7-0.6l-1.2-1.5l-2-0.2l-2.1-1.6l-2.5-2.4l-1.8-2.1l-0.8-3.6l-1.3-0.4l-2.2-1.2l-1.2,0.5l-1.6,1.7l-1.1,0.3
	l0.3-1.6l-1.5-0.5l-0.7-2.9l0.9-1.2l-0.8-1.4l0.1-1.1l1.2,0.8l1.3-0.2l1.5-1.3l0.5,0.6l1.3-0.1l0.6-1.6l2,0.5l1.2-0.6l0.2-1.6
	l1.6,0.6l0.3-0.8l2.7-0.7L595.6,177.6z"/>
<path id="JAPAN" class="st1" d="M924.8,222.3l0.3,1.1l-1.5,1.9l-1.1-1l-1.4,0.8l-0.7,1.9l-1.8-0.9v-1.5l1.5-1.9l1.5,0.4l1.1-1.4
	L924.8,222.3z M941.9,212.5l-1,2.7l0.5,1.7l-1.4,2.3l-3.4,1.5l-4.7,0.2l-3.8,3.7l-1.8-1.2l-0.1-2.4l-4.7,0.7l-3.2,1.5l-3.2,0.1
	l2.7,2.4l-1.8,5.4l-1.7,1.3l-1.3-1.3l0.7-2.8l-1.7-0.9l-1.1-2.2l2.5-1l1.4-2l2.7-1.7l2-2.2l5.4-1l2.9,0.7l2.8-5.9l1.8,1.6l4-3.4
	l1.5-1.3l1.7-4.2l-0.5-3.9l1.1-2.2l2.9-0.6l1.5,4.9l-0.1,2.8l-2.5,3.5L941.9,212.5z M949.8,187.6l1.9,0.8l1.9-1.6l0.6,4.2l-4,1
	l-2.4,3.6l-4.2-2.5l-1.5,4l-3,0.1l-0.4-3.6l1.3-2.8l2.9-0.2l0.8-5.2l0.8-3l3.2,4L949.8,187.6z"/>
<path id="KOREA" class="st1" d="M907.9,207.5l2.3,4l0.7,2.2v3.8l-1,1.8l-2.4,0.6l-2.2,1.4l-2.4,0.3l-0.3-1.8l0.5-2.5l-1.2-3.5l2-0.6
	l-1.8-2.9l0.2-0.3l1.2,0.1l1-1.5l1.9-0.2l1.1-0.2L907.9,207.5z"/>
<path id="NEW_ZEALAND" class="st0" d="M1028.2,440l0.6,1.5l1.9-1.4l0.8,1.5v1.5l-1,1.7l-1.8,2.7l-1.4,1.5l1,1.8h-2.1l-2.3,1.4
	l-0.7,2.5l-1.5,3.9l-2.1,1.7l-1.3,1.1l-2.5-0.1l-1.8-1.2l-2.9-0.3l-0.5-1.4l1.5-2.8l3.4-3.7l1.7-0.7l1.9-1.4l2.3-1.9l1.6-1.9
	l1.2-2.7l1-0.9l0.4-2l1.9-1.6L1028.2,440z M1032.5,423.6l1.9,3.5l0.1-2.3l1.2,0.9l0.4,2.5l2.2,1.1l1.8,0.3l1.5-1.3l1.4,0.4l-0.7,3
	l-0.8,2l-2.1-0.1l-0.7,1.1l0.3,1.5l-0.4,0.6l-1,1.9l-1.3,2.4l-2.1,1.4l-0.5-0.9l-1.1-0.5l1.6-2.9l-0.9-1.9l-2.9-1.4l0.1-1.3l1.9-1.2
	l0.4-2.6l-0.1-2.2l-1.1-2.3l0.1-0.6l-1.3-1.4l-2.1-2.9l-1.1-2.3l1-0.3l1.5,1.8l2.1,0.9L1032.5,423.6z"/>
<path id="PHILIPPINE" class="st1" d="M902.6,297.1l0.3,1.8l0.2,1.5l-0.9,2.5l-1-2.8l-1.3,1.4l0.9,2l-0.8,1.3l-3.2-1.6l-0.7-2
	l0.8-1.3l-1.7-1.3l-0.8,1.1l-1.3-0.1l-2,1.5l-0.4-0.8l1.1-2.3l1.7-0.8l1.5-1l1,1.2l2-0.7l0.4-1.2l1.9-0.1l-0.1-2l2.2,1.3l0.2,1.4
	L902.6,297.1z M896.1,292l-1,0.9l-0.8,1.7l-0.8,0.8l-1.7-1.9l0.6-0.7l0.7-0.8l0.3-1.7l1.5-0.2l-0.4,1.8l2-2.6L896.1,292z
	 M881.4,294.6l-3.6,2.6l1.3-1.9l2-1.7l1.6-1.9l1.4-2.7l0.5,2.2l-1.8,1.5L881.4,294.6z M890.5,287.6l1.6,0.9h1.7v1.1l-1.3,1.1
	l-1.7,0.8l-0.1-1.3l0.2-1.4L890.5,287.6z M900.2,286.9l0.8,3.1l-2.1-0.7l0.1,0.9l0.7,1.7l-1.3,0.6l-0.1-1.9l-0.8-0.1l-0.4-1.7
	l1.6,0.2v-1l-1.6-2.1l2.6,0.1L900.2,286.9z M889.5,284.4l-0.7,2.4l-1.2-1.4l-1.4-2.1l2.3,0.1L889.5,284.4z M889,269.3l1.7,0.8
	l0.8-0.7l0.2,0.7l-0.4,1.2l0.9,2l-0.7,2.3l-1.6,0.9l-0.4,2.2l0.5,2.3l1.4,0.3l1.2-0.3l3.4,1.5l-0.3,1.5l0.9,0.7l-0.3,1.3l-2.1-1.3
	l-1-1.4l-0.7,1l-1.7-1.6l-2.5,0.4l-1.4-0.6l0.1-1.1l0.8-0.7l-0.8-0.6l-0.3,1l-1.3-1.6l-0.4-1.2l-0.1-2.7l1.1,0.9l0.3-4.4l0.9-2.5
	L889,269.3z"/>
<path id="THAILAND" class="st0" d="M838.5,286.8l-2.4-1.3l-2.3,0.1l0.4-2.2h-2.4l-0.2,3l-1.5,4l-0.9,2.4l0.2,2l1.8,0.1l1.1,2.5
	l0.5,2.3l1.5,1.5l1.6,0.3l1.4,1.3l-0.9,1.1l-1.8,0.3l-0.2-1.4l-2.2-1.2l-0.5,0.5l-1.1-1l-0.5-1.3l-1.4-1.5l-1.3-1.3l-0.4,1.6
	l-0.5-1.5l0.3-1.7l0.8-2.6l1.3-2.8l1.5-2.5l-1.1-2.5v-1.3l-0.3-1.5l-1.8-2.2l-0.6-1.4l0.9-0.5l1-2.4l-1.1-1.8l-1.7-2l-1.3-2.5
	l1.1-0.5l1.2-3.1l1.9-0.1l1.6-1.2l1.5-0.7l1.2,0.9l0.2,1.7l1.8,0.1l-0.7,3l0.1,2.5l2.8-1.7l0.8,0.5l1.6-0.1l0.5-1l2,0.2l2,2.3
	l0.2,2.8l2.2,2.4l-0.1,2.3l-0.9,1.3l-2.5-0.4l-3.5,0.5l-1.7,2.3L838.5,286.8z"/>
<path id="AMERICA" class="st0" d="M210.8,143.4L210.8,143.4l-1.5-1.8l-2.4-1.5l-0.8-4.2l-3.5-4l-1.4-4.7l-2.6-0.3l-4.3-0.1l-3.2-1.5
	l-5.6-5.4l-2.6-1l-4.7-1.9l-3.7,0.5l-5.3-2.5l-3.2-2.3l-3,1.2l0.6,3.8l-1.5,0.3l-3.1,1.2l-2.4,1.8l-3,1.1l-0.4-3.1l1.2-5.3l2.9-1.7
	l-0.7-1.4l-3.4,3.1l-1.8,3.6l-3.9,3.8l2,2.6l-2.6,3.7l-2.9,2.1l-2.7,1.5l-0.7,2.2l-4.2,2.5l-0.9,2.3l-3.1,2l-1.8-0.4l-2.5,1.3
	l-2.7,1.6l-2.2,1.6l-4.6,1.3l-0.4-0.8l2.9-2.2l2.6-1.4l2.9-2.6l3.3-0.5l1.3-2l3.7-2.9l0.6-1l2-1.8l0.4-3.8l1.4-3l-3.1,1.6l-0.9-0.9
	l-1.4,1.8l-1.8-2.6l-0.7,1.9l-1-2.6l-2.7,2.1H126l-0.2-3.1l0.5-1.9l-1.7-1.9l-3.5,1l-2.3-2.6l-1.8-1.3v-3.1l-2.1-2.4l1-3.3l2.2-3.2
	l1-3l2.2-0.4l1.8,1l2.2-2.9l2,0.5l2.1-1.9l-0.5-2.8l-1.6-1.2l2-2.4l-1.7,0.1l-2.9,1.3l-0.8,1.4l-2.1-1.4l-3.8,0.7l-3.9-1.5l-1.2-2.5
	l-3.4-3.8l3.8-2.8l6-3.3h2.2l-0.4,3.3l5.7-0.3l-2.2-4.2l-3.3-2.6l-1.9-3.5l-2.6-3l-3.7-2.3l1.5-3.9l4.8-0.2l3.4-3.4l0.6-3.8l2.8-3.8
	l2.6-0.9l5.1-3.6l2.5,0.5l4.1-4.4l4.1,1.8l1.9,3.7l1.2-1.6l4.6,0.5l-0.2,1.9l4.1,1.4l2.8-0.8l5.7,2.5L170,52l2.1,1l3.6-1.3l4.1,2.4
	l2.9,1.1v60.5l2.6,0.2l2.6,1.5l1.9,2.3l2.4,3.5l2.6-2.9l2.7-1.7l1.4,2.7l1.8,2.1l2.5,2.3l1.7,3.6l2.8,5.6l4.6,3.1l0.1,3L210.8,143.4
	z M379.8,176.5l-1.2-1.1l-1.8,0.7l-0.9-1l-2.1,3l-0.8,3l-1,1.8l-1.1,0.6l-0.9,0.2l-0.3,0.9h-9.1l-1.2,0.7l-2.8,2.6l0.3,0.5l0.2,1.4
	l-2,1.2l-2.2-0.3l-2.1-0.1l-1.3,0.4l0.2,1.1l0,0v0.4l-2.3,2.2l-2,1l-1.4,0.5l-1.6,1l-2,0.5l-1.3-0.2l-1.7-0.7l0.9-1.4l0.6-1.3l1.3-2
	l-0.1-1.5l-0.5-2.1l-1-0.4l-1.7,1.6h-0.5l-0.1-0.9l1.5-1.5l0.3-1.7l-0.2-1.7l-2-1.5l-2.3-0.8l-0.4,1.5l-0.6,0.4l-0.5,1.9l-0.3-1.3
	l-1.1,0.9l-0.7,1.3l-0.7,1.8l-0.1,1.6l0.9,2.3l-0.1,2.4l-1.1,1.8l-0.5,0.5l-0.7,0.4h-0.9l-0.3-0.2l-0.7-1.9v-0.9l0.1-0.9l-0.3-1.8
	l0.5-2.1l0.6-2.6l1.4-2.9h-0.4l-2,2.4l-0.4-0.4l1.1-1.4l1.6-2.5l1.8-0.4l2.1-0.8l2.1,0.4h0.1l2.4-0.4l-1.3-1.5l-0.7-0.1l-0.8-0.1
	l-0.6-1l-2.6,0.4l-2.4,0.9l-1.9-1.5l-1.5-0.5l0.9-2.1l-2.4,1.3l-2.2,1.3l-2.1,1l-1.6-1.3l-2.7,0.8v-0.6l1.8-1.7l1.9-1.6l2.8-1.3
	l-3.3-1l-2.2,0.5l-2.5-1.3l-2.8-0.6l-1.9-0.3l-0.8-0.7l-0.5-2.3H306v1.6h-74.5l0.9,3.3l0.4,3.3l-0.7,1l-1.4-3.8l-3.9-1.4l-0.3,0.8
	l0.8,1.9l0.9,3.4l0.5,5.2l-0.3,3.5l-0.3,3.4l-1.1,3.5l0.9,2.8l0.1,3.1l-0.6,2.9l1.4,1.9l0.4,2.8l2.1,2.9l1.2,1.1l-0.1,0.8l2.3,4.7
	l2.6,3.3l0.3,1.8l0.7,0.5l2.5,0.3l1,0.9l1.5,0.2l0.3,0.9l1.3,0.4l1.8,1.8l0.4,1.6l3.1-0.2l3.4-0.4l-0.3,0.6l4.1,1.5l6.1,2.2h7.5
	v-1.3h4.7l1,1.1l1.4,1l1.6,1.4l0.9,1.6l0.7,1.7l1.4,0.9l2.2,0.9l1.7-2.4l2.2-0.1l1.9,1.2l1.4,2.1l0.9,1.8l1.6,1.7l0.6,2.1l0.8,1.4
	l2.1,0.9l1.9,0.6l1-0.1l-0.5-1l-0.2-1.4v-2.1l0.6-1.4l1.5-1.4l2.7-1.3l2.5-2.3l2.3-0.7l1.7-0.2l2,0.7l2.4-0.4l2,1.6l2,0.1l1-0.6
	l1,0.4l0.5-0.4l-0.6-0.6v-1.3L321,235l1.1-0.5l2.1-0.2l2.4,0.4l3-0.4l1.7,0.8l1.3,1.4l0.5,0.1l2.7-1.4l1,0.5l2.1,2.6l0.8,1.7l-0.6,2
	l0.4,1.2l1.3,2.3l1.4,2.6l1,0.7l0.4,1.3l1.3,0.4l0.8-0.4l0.7-1.8l0.1-1.2l0.1-2l-1.3-3.5v-1.3l-1.2-2.2l-0.9-2.6l-0.5-2.2l0.4-2.2
	l1.3-1.9l1.5-1.5l3-2.1l0.4-1.1l1.4-1.2l1.3-0.2l1.8-1.9l2.8-1l1.7-2.4l-0.3-3.3l-0.3-1.2l-0.8-0.2l-0.1-3.2l-1.8-1.1l1.8,0.5
	l-0.6-2.2l0.5-1.5l0.3,2.9l1.4,1.3l-0.8,2.3l0.3,0.1l1.5-2.7l0.9-1.3v-1.3l-0.7-0.6l-0.5-1.9l0.9,0.9l0.6,0.2l0.2,0.9l2-2.7l0.6-2.5
	l-0.8-0.2l0.8-1l-0.1,0.4h1.7l3.8-1.1l-0.8-0.7l-4,0.7l2.3-1l1.6-0.2l1.2-0.2l2-0.6l1.3,0.1l1.8-0.6l0.2-1l-0.9-0.9l0.3,1.3
	l-1.1-0.1l-0.9-1.9v-1.9l0.5-0.8l1.4-2.2l2.8-1.1l2.8-1.3l2.9-1.8l-0.5-1.2l-1.8-2.2L379.8,176.5z M149.6,128l-1.4,0.8l-2.4,1.8
	l0.4,2.3l1.4,1.3l2.7-1.9l2.3-2.4l-1.1-1.6L149.6,128z M105.8,100.6l2-1.2l0.2-0.7l-2.2-0.6V100.6L105.8,100.6L105.8,100.6z
	 M114,115.3l-2.7,0.9l1.6,1.5l1.8,1l1.7-0.8l-0.3-2.1L114,115.3z M207.5,146.5l-2.6,0.4l-1.3-0.6l-0.2,1.5l0.5,2l1.4,1.4l1,2l1.6,2
	h1l-2.3-3.6L207.5,146.5z M141.5,262.4l-1-0.3l-0.3,0.3v0.2l0.3,0.2l0.5,0.6l0.9-0.2l0.2-0.4L141.5,262.4z M138.6,261.9l1.4,0.1
	l0.1-0.3l-1.3-0.1L138.6,261.9z M144.3,265.1l-0.5-0.3l-1-0.5l-0.2-0.1l-0.1,0.3l0.2,0.6l-0.5,0.5l-0.1,0.3l0.4,1l-0.1,0.8l0.7,0.4
	l0.4-0.5l0.9-0.4l1.1-0.6l0.1-0.1l-0.7-1L144.3,265.1z M136.7,260.1l-0.7,0.4l0.1,0.1l0.4,0.6l0.9,0.1h0.2l0.1-0.2l-0.8-1H136.7z
	 M132.5,258.6l-0.4,0.3l-0.1,0.2l0.9,0.5l0.3-0.3l-0.1-0.7H132.5z"/>
<path id="CANADA" class="st1" d="M296.9-32.9l-0.2-5.7l3.5,0.6l1.6,0.9l3.3,4.7l-0.7,4.8l-4,2.7l-2.2-3L296.9-32.9z M309.6-20.8
	l0.3-1.4l-1.9-2.4l-5.4-0.2l0.7,3.5l5,0.8L309.6-20.8z M344.5,24.3l3,4.9l0.8,0.5l3-1.2l2.9,0.2L357,29l-0.2-2.5l-4.7-5.2l-6.2-1
	l-1.3,0.6L344.5,24.3z M281.6-35.9l-2.6,4l6,0.5l4.4,4.3l4.4,1.4l-1-5.5l-2.1-6.5l-7.3-5.1l-5.3-2l0.2,5.5L281.6-35.9z M306.5-45.7
	l4.9-0.1l-2.1,3.9v5.1l2.9,5.5l5.6,1.7l4.8-1l5-10.3l3.7-4.3L328-50l-2.1-10.2l-4.4-3.1l-4.5-3.5l-3.4-9.2l-6.3,0.9l1.2,4l-2.8,1.2
	l-1.9,5.1l-1.9,7.2l1.7,7L306.5-45.7z M245.3,5.5l3.7,1.9l12.2-1.3l-5.6,4.6L256,14l4.1-0.2l6.8-4.4l9.1-1.6l1.6-5l-0.5-5.3L274.3-3
	l-2.4,1.9l-1.1-4l-0.9-5.5l-2.8-1.4l-2.5,4.2l3.9,10.6L263.9,2l-4.8-6.5l-7.6-3.8L249-5.1L245.3,5.5z M267-34.9l-3.5-2.8l-1.5-0.6
	l-2.8,4.1v1.9h4.5L267-34.9z M265.6-23l0.9-3.8l-3.8-2l-3.9,1.3l-2.2,4.1l4,4L265.6-23z M293.5,8.9l4.4-1.1l1.2-7.9L299-5.8
	l-2.1-5.3l-0.2,1.5l-3.8-0.7l-4,3.9L286-6.8l0.2,8.6l4.4-0.9l-0.1,6.3L293.5,8.9z M290.4,52.7l-4.9-3.7l-4.5-4l-0.8-6l-1.7-8.6
	l-3-3.7l-2.7-1.5l-2.4,1.4l1.9,9.2l-1.3,3.6l-2.2-8.6l-2.5-3l-3,4.6l-3.8-4.6l-6,2.8l1.3-4.3l-2.8-1.8l-7.2,5.6l-2,3.5l-2.3,6.5
	l4.7,2.2l4.2-0.1l-6.2,3.3l1.4,3l3.8,0.2l5.8-0.6l5.2,1.9l-3.6,1.4L252,51l-4.2,1.3l-1.8,0.8l3.3,6.1l2.4-0.8l3.7,2.1l1.5,3.5
	l4.8-0.7l6.8-1.1l5-2.5l3.1-0.5l4.6,2l4.9,1.2l0.9-2.8l-1.7-2.9l4.4-0.6L290.4,52.7z M297.8,51.8l-1.9,3.4l-2.4,2.4l3.7,3.4l2.2-0.8
	l3.6,2.2l1.7-2.6l-1.7-2.9l-0.8-1.5l-1.6-1.4L297.8,51.8z M280.9,23.5l-2-2.1l-3.6,0.4l-0.9,1.3l4.2,6.5L280.9,23.5z M308.4,36.2
	l2.9-6.7l3.2-1.8l4-8.4l-5.1-2.3l-5.6-0.4l-2.7,2.7l-1.4,4.1V28l1.7,7.9L308.4,36.2z M324.9,14.1l5.5-0.2l7.7-1.6l3.5,1.2l4-2.2
	l1.7-2.7l-0.6-4.3l-2.9-4.1l-4.4-0.8l-5.5,0.9l-4.3,2.3l-3.9-0.9l-3.6-0.5l-1.7-2.6l-3.1-2.5l0.6-4.3l-2.3-3.8h-5.3l-3-3.8l-5.5-0.8
	l-1,4.9l3.1,3.6l5.6,1.4l2.7,4.9l0.3,5.4l0.9,5.8l7.1,3.3L324.9,14.1z M239.4-3.5l5-4.9l2.5-0.6l2.1-4l0.4-9.4l-3.7,1.8l-4.1-0.2
	l-5.5,7.9l-4.6,8.6l3.6,2.4L239.4-3.5z M308.7,12l1.5-4l-1-3.3L306.9,1L303,3.9l-1.5,4.7l3.3,2.7L308.7,12z M300.7,23l-0.7-2.7
	l-4.8,1.2l-3.2-2l-3.2,4.6l3,6l-5.5-1.1l-0.1,2.9l6.7,6.8l1.9,3.3l2.6,0.7l4.4-3.3l0.5-7.9l-4.1-3.9L300.7,23z M229.7,170.7
	l-1.1-2.3l-2.7-1.7l-1.3-2l-0.9-1.4l-2.5-0.4l-1.6-0.6l-2.8-0.9l-0.2,1l1,2.3l2.8,0.8l0.5,1.2l2.4,1.4l0.8,1.4l4.4,1.8L229.7,170.7z
	 M346.6,96.1l-1.9-2l-2,0.5l-0.2-2.9l-3.1-2l-3-2.2l-1.5-1.7l-1.4,1L333,84l-2-0.6l-0.9,5.9l-0.4,4.9l-2.3,3l3.6-0.6l0.9,3.5
	l3.8-3.1l2.7-3.3l1.5,2.8l4.2,1.4L346.6,96.1z M230.8,45.7l7.1-4V38l3.3-6.2l6.6-6.4l3.4-2.4l-2.9-4l-2.6-2.8l-6.9-0.6l-3.8-2.1
	l-9.1,1.5l2.6,6l-2.3,6.2l-1.9,6.6l-1.1,3.7l6.2,4.5L230.8,45.7z M359.7,71.9l0.3-1v-3l-2.1-2l-2.5,1l-1.1,4l0.7,3.4l3-0.3
	L359.7,71.9z M382.6,79.1l4.2,6.3l3.3,2.7l4.7-7.6l0.8-4.7l-4.2-0.4l-3.9-6.5l-4.3-1.6l-6.3-4.8l5-3.5l-2.5-7.2l-2.5-3.2l-6.5-3.2
	l-2.8-5.3l-5,1.9l-0.4-3.7l-3.7-4.2l-6-4.5l-2.5,3.6l-5.3,2.5l0.4-5.8l-4.6-9.6l-6.8,3.9l-2.5,7.4l-2-5.6l2-6.1l-7,2.5l-2.8,3.8
	l-2.1,8.1l0.8,8.7h3.8l-2.8,3.8l2.2,2.8l4.4,1.2l5.7,2.3l9.8,1.8l4.9-1l1.4-2.3l2.1,2.7l2.4,0.4l2.8,4.8l-1.7,1.9l5.5,2.5l4.1,3.5
	l1,2.4l0.8,3.1l-3.5,6.7l-0.9,3.3l0.9,2.3l-5.5,0.8l-5.1,0.1l-1.8,4.7l2.3,2.1l7.8-1V90l3.9,3l4,3.2l-0.9,1.7l3.2,2.9l5.8,3.4
	l7.3,2.3l-0.4-2l-2.8-3.5l-3.8-5l6.8,4.8l3.4,1.6l0.9-4.3l-1.8-6.1l-1.1-1.7l-3.7-2.9l-2.8-3.8l0.4-3.7L382.6,79.1z M319.4-76l2.3,7
	l4.8,5.7l9.4-1l6.1,1.9l-4.2,5.8l-2.1-1.7l-7.4-0.6l1.1,8l3.8,5.8l-0.8,5l-4.8,3.2l-2.2,5.3l4.4,2.5l3.7,8.2l-7.2-5.5l-1.6,0.9
	l1.3,9l-5,2.7l0.3,5.6l5.1,0.6l4,1.4l7.9-1.8l7,3.1l7.2-6.9l-0.1-2.9l-4.6,0.5l-0.3-2.8l3.8-3.7l1.3-5l4.2-3.7l2.5-4.6l-2.3-6.7
	l1.9-2.5l-3.7-1.8l8.1-1.6l1.7-3l5.5-2.5l4.6-12.9l4.4-4.7l6.4-10.7l-5.9,0.1l2.4-4.1l6.5-3.8l6.6-8.6l0.1-5.5l-4.9-5.8L385-111
	l-7.2-1.8l-5.8-1.4l-5.8-1.4l-7.8,3.8l-1.4-2.4l-8.2,0.9l-4.8,2.5l-3.5,3.5l-2,11.3l-2.9-5.8l-3.5-1.1l-4,7.7l-5.2,3.2l-3.1,0.6
	l-4,3.7l0.6,6.4L319.4-76z M390.8,178.5l-0.9-1.9l-1,1.2l0.7,1.3l3.4,1.6l1-0.3l1.3-1.6l-2.5,0.1L390.8,178.5z M336.1,103.7l0.6,1.6
	l1.9,0.1l3.1-3.2l0.1-1.1l-3.7-0.1L336.1,103.7z M395.8,167.5l-2.8-1.8l-3.5-1l-0.9,0.4l2.5,2l3.5,1.3l1.3-0.1L395.8,167.5z
	 M419.7,172.1l-0.4-2.1l-1.9,0.7l0.8-3l-2.7-1.3l-1.2,1l-2.4-1.1l0.9-1.4L411,164l-1.8,1.4l1.8-3.7l1.4-2.7l0.5-1.2l-1.3-0.2
	l-2.3,1.5l-1.7,2.4l-2.8,6.6l-2.3,2.5l1.2,1.1l-1.7,1.4l0.4,1.2l5.2,0.1l2.9-0.2l2.6,1l-1.9,1.9l1.6,0.1l3.1-3.4l0.8,0.5l-0.6,3.2
	l1.8,0.7l1.2-0.1l1.1-3.5L419.7,172.1z M399.3,176.7l-2.7,4.4l-4.5,0.6l-3.5-1.9l-0.9-2.9l-0.9-4.3l2.5-2.7l-2.4-2l-4,0.4l-5.6,3.4
	l-4.3,5.2l-2.3,0.6l3.1-3.6l3.9-5.4l3.4-1.8l2.3-3l2.8-0.3h4l5.7,0.9l4.5-0.7l3.5-3.5l4.4-1.5l1.9-1.5l2-1.6l-0.2-5l-1.1-1.7
	L409,148l-1.1-3.9l-1.7-1.5l-4.3-1.2l-2.4-2.7l-3.6-2.7l1.1-3l-3-6l-3.5-6.6l-2.1-4.8l-1.8,2.5l-2.6,5.8l-3.9,2.8l-2-3l-2.5-0.8
	l-0.9-6.7l0.1-4.6l-4.8-0.4l-0.8-2.2l-3.2-3.3l-2.5-2l-2.2,1.5l-2.8-0.6l-4.6-1.6l-1.9,1.4l0.9,8.8l1.2,4.9l-3.2,5.5l3.3,3.9
	l1.8,4.3l0.2,3.3l-1.5,3.4l-3,3.3l-4.4,2.2l1.9,2.4l1.4,7.1l-1.4,4.5l-2.1,1.4l-4-4.1l-2-5l-0.8-4.6l0.4-4l-2.9-0.4l-4.5-0.3l-2.9-2
	l-3.4-1.3l-1.9-2.3l-2.7-1.9l-5-2.1l-3.8,1l-1.3-3.8l-1.2-4.8l-4-0.9l0.1-6.2l1-4.3l2.9-6.3l3.3-4.7l3.1-0.7l0.3-3.9l2.1-2.6
	l3.9-0.4l3.1-4.2l0.8-2.8l2.6-5.5l0.9-3.3l2.8,2l3.8-1l5.3-4.8l0.4-3.4l-1.9-3.8l2-3.9l-0.2-3.7l-3.6-3.8l-4-1.1l-3.8-0.6l-0.1,8.4
	l-2,6.3l-2.9,5.1l-2.6-4.8l0.8-5.4l-3.2-4.8l-3.6,5.8v-7.7l-5-1.6l2.4-3.8l-3.7-9.2l-2.7-3.8L306,37l-3.2,6.2l-0.2,9l3.1,3.2
	l2.8,4.7l-1.2,7.4l-2.2-0.2l-1.7,5.7v-6.7l-4.2-2.5l-2.4,1.3l0.3,4.5l-3.9-0.2l-4.2,1.1l-4.8-3.2l-3,0.6l-2.7-4l-2.2-1.8l-2.1,0.7
	l-3.3,0.3l-1.7,2.5l2.8,3.1l-2.9,3.6l-2.9-4.2l-2.3,1.3l-7.3,0.8l-4.9-1.5l3.8-3.6l-3.6-3.8l-2.6,0.5l-3.7-1.3l-6.3-2.8l-4.1-3.2
	L232,54l-1,2.3l-3.3,1.3l-0.4-5.9l-3.6,5.3l-4.6-7l-1.9-0.9l-0.6,3.8l-2,1.8l-1.9-3.3l-4.4,2l-4,3.4l-4-0.9l-3.3,2.4l-2.4,3.2
	l-2.8-0.7l-4.3-3.7l-5-1.9v60.6l2.6,0.2l2.6,1.5l1.9,2.3l2.4,3.5l2.6-2.9l2.7-1.7l1.4,2.7l1.8,2.1l2.5,2.3l1.7,3.6l2.8,5.6l4.6,3.1
	l0.1,3l-1.5,2.3l0.1,2.4l3.3,3.3l0.5,3.6l3.4,1.9l-0.4,2.7l1.5,3.8l4.9,1.8l1.9,1.8l5.2,4.1H306V167h0.9l0.5,2.3l0.8,0.7l1.9,0.3
	l2.8,0.6l2.6,1.3l2.2-0.5l3.3,1l1.1-1.6l1.5-0.6l0.6-1l0.6-0.5l2.5,0.8l1.9,0.1l0.6,0.6l0.9,2.3l3,0.6l-0.5,1.1l1.1,1.2L334,177
	l1.1,0.5l-0.6,1.3l0.7,0.1l0.5-0.6l0.5,0.9l2,0.5h2l2.2,0.4l2.4,0.8l0.9,1.2l1.8,2.9l-0.9,1.3l-2.2-0.5l-1.4-2.3l0.4,2.4l-1.3,2.1
	l0.1,1.8l-0.2,1l-1.7,1.4l-1.3,2l-0.6,1.3l1.5,0.2l2-1.1l1.2-1l0.8-0.2l1.5,0.4l0.7-0.6l1.3-0.5l2.3-0.4l0,0l-0.2-1.1h-0.1l-0.8,0.2
	l-1.1-0.4l0.8-1.3l0.8-0.4l1.9-0.5l2.3-0.5l1.2,0.7l0.8-0.8l0.9-0.5l0.6,0.3v0.1l2.8-2.6l1.2-0.7h9.1l0.3-0.9l0.9-0.2l1.1-0.6l1-1.8
	l0.8-3l2.1-3l0.9,1l1.8-0.7l1.2,1.1v5.3l1.8,2.2l3-0.5l4.3-0.1l-4.7,3.1l0.1,3.2l2,0.3l3-2.7l2.7-1.5l6-2.3l3.3-2.5l-1.7-1.4
	L399.3,176.7z M347.8,108.4l1.1-3l-0.7-1.2l-1.1-0.1l-1,1.7l-0.1,0.4l0.7,1.7L347.8,108.4z M210.8,143.4L210.8,143.4l1.5-2.3
	L210.8,143.4z M207.5,146.6l-2.6,0.4l-1.3-0.6l-0.2,1.5l0.5,2l1.4,1.4l1,2l1.6,2h1l-2.3-3.6L207.5,146.6z"/>
<path id="TURKEY" class="st0" d="M661.7,197.9l3.9,1.4l3.1-0.6l2.3,0.3l3.2-1.9l2.9-0.2l2.6,1.8l0.5,1.3l-0.3,1.7l2,0.9l1.1,1
	l-1.8,1l0.8,3.9l-0.5,1.1l1.5,2.7l-1.3,0.6l-0.9-0.9l-3.1-0.4l-1.2,0.5l-3.1,0.5l-1.5-0.1l-3.1,1.3h-2.2l-1.4-0.6l-3,0.9l-0.9-0.6
	l-0.1,1.9l-0.7,0.7l-0.7,0.7l-1-1.5l1-1.3l-1.6,0.3l-2.3-0.8l-1.8,1.9l-4.1,0.4l-2.2-1.8l-2.9-0.1l-0.6,1.4l-1.9,0.4l-2.6-1.8
	l-2.9,0.1l-1.6-3.3l-2-1.9l1.3-2.7l-1.7-1.6l3-3.3l4.2-0.1l1.1-2.7l5.1,0.5l3.2-2.3l3.1-1l4.5-0.1L661.7,197.9z M635.5,200.2
	l-2.3,1.9l-0.8-1.6v-0.7l0.6-0.4l0.8-2.2l-1.3-1l2.7-1.1l2.3,0.5l0.4,1.4l2.3,1.1l-0.5,0.9l-3.2,0.2L635.5,200.2z"/>
<path id="INDONESIA" class="st0" d="M887.3,347.2h-1.1l-3.6-1.9l2.5-0.5l1.4,0.8l0.9,0.8L887.3,347.2z M897.3,347l-2.3,0.6l-0.3-0.3
	l0.2-0.9l1.2-1.6l2.7-1.1l0.3,0.5v0.9L897.3,347z M879.7,341.4l1,0.7l1.7-0.2l0.7,1.1l-3.1,0.5l-1.9,0.4h-1.5l0.9-1.6h1.4
	L879.7,341.4z M893.2,341.4l-0.4,1.5l-4,0.8l-3.6-0.3v-1l2.1-0.6l1.7,0.8l1.8-0.2L893.2,341.4z M854.7,337.9l5.2,0.3l0.6-1.1l5,1.3
	l1,1.8l4,0.5l3.3,1.6l-3.1,1l-3-1.1l-2.4,0.1l-2.8-0.2l-2.5-0.5l-3.1-1l-2-0.3l-1.1,0.3l-4.9-1.1l-0.5-1.2L846,338l1.8-2.6l3.3,0.2
	l2.2,1l1.1,0.2L854.7,337.9z M925,336.4l-1.4,1.8l-0.3-2l0.5-1l0.6-0.9l0.6,0.8L925,336.4z M904.9,329l-1,0.9l-1.9-0.5l-0.5-1.1
	l2.7-0.1L904.9,329z M913.5,328l1,2l-2.3-1.1l-2.3-0.2l-1.5,0.2l-1.9-0.1l0.6-1.5l3.3-0.1L913.5,328z M923.4,322.8l0.8,4.3l2.8,1.6
	l2.3-2.8l3.1-1.6h2.4l2.3,0.9l2,1l2.9,0.5v17.5l-2.4-2.2l-2.7-0.5l-0.7,0.8l-3.4,0.1l1.1-2.2l1.7-0.8l-0.7-2.9l-1.3-2.3l-5.2-2.3
	l-2.2-0.2l-4-2.5l-0.8,1.3l-1,0.2l-0.6-1v-1.2l-2.1-1.3l2.9-1h1.9l-0.2-0.7h-3.9l-1-1.5l-2.4-0.5l-1.1-1.3l3.6-0.6l1.4-0.9l4.3,1.1
	L923.4,322.8z M899.4,315.9l-2.2,2.6l-2,0.5l-2.6-0.5l-4.5,0.1l-2.3,0.4l-0.4,2l2.4,2.4l1.5-1.2l5-0.9l-0.2,1.2l-1.2-0.4l-1.2,1.6
	l-2.4,1l2.5,3.4l-0.5,0.9l2.4,3.1v1.8l-1.4,0.8l-1.1-0.9l1.3-2.2l-2.6,1l-0.7-0.7l0.3-1l-1.9-1.6l0.2-2.6l-1.8,0.8l0.2,3.1l0.1,3.8
	l-1.7,0.4l-1.2-0.8l0.8-2.5l-0.4-2.5h-1.1l-0.9-1.8l1.1-1.8l0.4-2.1l1.3-4l0.6-1.1l2.3-2l2.1,0.8l3.4,0.4l3.1-0.1l2.7-2L899.4,315.9
	z M908.7,316.7l-0.1,2.3l-1.4-0.3l-0.4,1.6l1.1,1.4l-0.8,0.3l-1.1-1.7l-0.8-3.4l0.5-2.1l0.9-1l0.2,1.5l1.6,0.2L908.7,316.7z
	 M879.6,314.8l3,2.5l-3.2,0.3l-0.9,1.8l0.1,2.4l-2.6,1.8v2.7l-1,4.1l-0.4-1l-3.1,1.2l-1-1.6l-1.9-0.1l-1.3-0.9l-3.2,1l-1-1.3
	l-1.8,0.1l-2.2-0.3l-0.4-3.6l-1.3-0.7l-1.3-2.3l-0.4-2.3l0.3-2.5l1.6-1.8l0.5,1.8l1.8,1.5l1.7-0.5l1.7,0.2l1.6-1.4l1.3-0.2l2.5,0.8
	l2.2-0.6l1.4-3.7l1-0.9l0.9-3h3.1l2.3,0.5l-1.5,2.3l2,2.5L879.6,314.8z M847.1,335.4l-3,0.1l-2.1-2.3l-3.5-2.2l-1.2-1.6l-2-2.2
	l-1.3-2l-2-3.8l-2.4-2.2l-0.8-2.3l-1-2.1l-2.4-1.7l-1.4-2.3l-2-1.5l-2.8-3l-0.4-1.4l1.7,0.1l4.2,0.5l2.4,2.6l2.1,1.8l1.5,1.1
	l2.5,2.9h2.7l2.3,1.9l1.6,2.2l2,1.2l-1.1,2.2l1.5,0.9l1,0.1l0.5,1.9l0.9,1.5l2,0.2l1.3,1.7l-0.7,3.3L847.1,335.4z"/>
<path id="IRELAND" class="st1" d="M545.6,147.7l0.4,3.2l-2,4l-4.8,2.6l-3.8-0.6l2.2-4.6l-1.4-4.6l3.7-3.6l2-2.2l0.6,2.5l-0.6,2.5
	l1.7-0.1L545.6,147.7z"/>
<path id="MALAYSIA" class="st0" d="M834.4,303.1l0.2,1.4l1.8-0.3l0.9-1.1l0.6,0.3l1.6,1.6l1.1,1.8l0.2,1.8l-0.3,1.2l0.3,0.9l0.2,1.6
	l1,0.7l1.1,2.4v0.9l-1.9,0.2l-2.5-2l-3.2-2.1l-0.4-1.3l-1.6-1.8l-0.4-2.2l-1-1.5l0.3-2l-0.6-1.1l0.5-0.5L834.4,303.1z M881.7,307.7
	l-2,0.9l-2.3-0.5h-3.1l-0.9,3l-1,0.9l-1.4,3.7l-2.2,0.6l-2.5-0.8l-1.3,0.2l-1.6,1.4l-1.7-0.2l-1.7,0.5l-1.9-1.5l-0.5-1.8l2,0.9
	l2.1-0.5l0.5-2.3l1.2-0.5l3.2-0.6l1.9-2.1l1.3-1.7l1.2,1.4l0.6-0.9l1.3,0.1l0.2-1.7l0.1-1.3l2.1-1.9l1.3-2.1h1.1l1.4,1.4l0.1,1.2
	l1.9,0.7l2.3,0.8l-0.3,1.1l-1.8,0.1L881.7,307.7z"/>
<path id="VIETNAM" class="st0" d="M853.2,260.6l-3.6,2.5l-2.3,2.7l-0.6,2l2.1,3l2.5,3.7l2.4,1.7l1.6,2.2l1.2,5.1l-0.4,4.8l-2.2,1.8
	l-3.1,1.7l-2.2,2.3l-3.4,2.5l-1-1.7l0.8-1.8l-2-1.5l2.3-1.1l2.8-0.2l-1.2-1.7l4.5-2.1l0.3-3.3l-0.6-1.8l0.5-2.8l-0.7-2l-2-1.9
	l-1.7-2.5l-2.2-3.3l-3.3-1.7l0.8-1l1.7-0.7l-1-2.5h-3.3l-1.2-2.7l-1.6-2.3l1.5-0.7h2.2l2.6-0.3l2.3-1.6l1.3,1.1l2.5,0.5l-0.4,1.7
	l1.3,1.2L853.2,260.6z"/>
<path id="AUSTRALIA" class="st1" d="M953.8,439.5l2.6,1.2l1.5-0.5l2.1-0.7l1.6,0.2l0.2,4.3l-0.9,1.3l-0.3,2.9l-0.9-1l-1.9,2.6
	l-0.6-0.2l-1.7-0.1l-1.7-3.1l-0.4-2.4l-1.5-3.1l0.1-1.6L953.8,439.5z M948.8,356.9l1,2.2l1.7-1l0.9,1.2l1.3,1.1l-0.3,1.2l0.6,2.4
	l0.4,1.4l0.7,0.3l0.7,2.4l-0.3,1.5l0.9,1.9l2.9,1.5l1.9,1.4l1.8,1.2l-0.4,0.7l1.5,1.8l1,3.1l1.1-0.6l1.1,1.3l0.7-0.4l0.5,3.1
	l1.9,1.8l1.3,1.1l2.1,2.4l0.8,2.4l0.1,1.7l-0.2,1.9l1.3,2.6l-0.2,2.7l-0.5,1.4l-0.7,2.7l0.1,1.8l-0.5,2.3l-1.2,2.9l-2,1.6l-1,2.5
	l-0.9,1.6l-0.8,2.8l-1,1.6l-0.7,2.5l-0.3,2.3l0.1,1.1l-1.5,1.2l-3,0.1l-2.5,1.4l-1.2,1.3l-1.6,1.5l-2.3-1.5l-1.7-0.6l0.4-1.8
	l-1.5,0.6L949,433l-2.3-0.9l-1.5-0.5l-1.5-0.2l-2.6-1l-1.7-2.1l-0.5-2.5l-0.6-1.7l-1.3-1.3l-2.6-0.4l0.9-1.6l-0.7-2.4l-1.3,2.3
	l-2.4,0.6l1.4-1.8l0.4-1.9l1-1.6l-0.2-2.4l-2.2,2.7l-1.7,1.1l-1,2.6l-2.1-1.3l0.1-1.7l-1.7-2.3l-1.4-1.2l0.5-0.7l-3.5-1.9l-1.9-0.1
	l-2.6-1.5l-4.8,0.3l-3.5,1.1l-3.1,1.1l-2.6-0.2l-2.8,1.6l-2.3,0.7l-0.5,1.7l-1,1.3l-2.3,0.1l-1.7,0.3l-2.4-0.6l-1.9,0.4l-1.8,0.1
	l-1.6,1.7l-0.8-0.1l-1.3,0.9l-1.3,1l-2-0.1h-1.8l-2.8-2.1l-1.5-0.6l0.1-1.9l1.3-0.4l0.5-0.7l-0.1-1.1l0.3-2.2l-0.3-1.8l-1.4-3.2
	l-0.4-1.8l0.1-1.8l-1.1-2l-0.1-0.9l-1.2-1.2l-0.3-2.4l-1.5-2.4l-0.4-1.3l1.2,1.3l-0.9-2.8l1.3,0.9l0.8,1.1v-1.5l-1.3-2.3l-0.3-0.9
	l-0.7-0.9l0.3-1.7l0.5-0.7l0.4-1.5l-0.3-1.7l1.1-2.1l0.2,2.2l1.1-2l2.2-1l1.3-1.2l2.1-1.1l1.2-0.2l0.7,0.4l2.1-1.1l1.6-0.3l0.4-0.6
	l0.7-0.3l1.5,0.1l2.8-0.8l1.5-1.3l0.7-1.5l1.6-1.4l0.1-1.1l0.1-1.5l1.9-2.4l1.1,2.4l1.1-0.6l-1-1.3l0.8-1.4l1.2,0.6l0.3-2.1l1.5-1.4
	l0.7-1.1l1.3-0.5v-0.8l1.2,0.3v-0.7l1.2-0.4l1.3-0.4l2,1.3l1.5,1.6h1.7l1.7,0.3l-0.6-1.5l1.3-2.2l1.2-0.7l-0.4-0.7l1.2-1.6l1.6-1
	l1.4,0.3l2.3-0.5v-1.4l-2-0.9l1.4-0.4l1.8,0.7l1.4,1.1l2.3,0.7l0.8-0.3l1.7,0.9l1.6-0.8l1,0.2l0.6-0.5l1.3,1.4l-0.7,1.5l-1,1.1
	l-0.9,0.1l0.3,1.1l-0.8,1.4l-1,1.4l0.2,0.8l2.1,1.5l2.1,0.9l1.4,1l2,1.6h0.8l1.4,0.7l0.4,0.9l2.6,1l1.8-1l0.5-1.5l0.5-1.2l0.3-1.5
	l0.8-2.2l-0.4-1.3l0.2-0.8l-0.3-1.6l0.4-2.1l0.5-0.6l-0.4-0.9l0.7-1.5l0.5-1.5l0.1-0.8l1-1l0.8,1.3l0.2,1.7l0.7,0.3l0.1,1.1l1,1.4
	l0.2,1.6L948.8,356.9z"/>
</svg>
